/* XPM */
static char *_fa5a5c49da14685da5d71c6dd05efe6TZWvaDwywfWNYJlv[] = {
/* columns rows colors chars-per-pixel */
"81 81 34 1 ",
"  c black",
". c #161419",
"X c #201D1A",
"o c #1F1D20",
"O c #490E07",
"+ c #5B290E",
"@ c #4B2510",
"# c #573A28",
"$ c #413C40",
"% c #49474C",
"& c #833504",
"* c #BF3F32",
"= c #954009",
"- c #964B1F",
"; c #B77E1C",
": c #B36739",
"> c #C7591A",
", c #C95D1C",
"< c #C66427",
"1 c #9E7353",
"2 c #A47B67",
"3 c #C28315",
"4 c #D18D17",
"5 c #ED8232",
"6 c #F68D4B",
"7 c #EA9777",
"8 c #AFA992",
"9 c #DEAD9D",
"0 c #F4AD83",
"q c #F9C19D",
"w c #C0D3D2",
"e c #FBDCC8",
"r c #E1E1E3",
"t c white",
/* pixels */
"444444444444444444444444444444444444444444444444444444444444444444444444444444444",
"444444444444444444444444444444444444444444444444444444444444444444444444444444444",
"444;;;;;;;;;;;;;;;;;;;;;;;;;;;;;;;;4444444444444444444444444444444444444444444444",
";;;4444444444444444444444444444444444444444444444444444444444444;;;;;;;;;;;444444",
"444444444444444444444444444444444444444444444444444444444444444444444444444;;;;;;",
"444444444444444444444444444444444444444444444444444444444444444444444444444444444",
"444444444444444444444444444444444444444444444444444444444444444444444444444444444",
";;;;;;;;;;;;;;;;;;;;;;;;;;;;;;;;;;;;;;;;;;;;;;;;333333344444444444444444444444444",
"4444333333333333333333333333333333333++333333333444444444444444444444444444444444",
"444444444444444444444444444444444444+++4444444444+4444444444444444444444444444444",
"444444444444444444444444444444444444+==+444444444++444444444444444444444444444444",
"444444444444444444444444444444444444+==+444444444++444444444444444444444444444444",
";;;;;;;;;;;;;;;;;;;;;;;;;;;;+++4444+====++++++++4+=++4444444444444444444444444444",
"4444444444444444444444444444++=++++++==,========+==++4444444444444444444444444444",
"444444444444444444444444444444+======,,6600066=======+++++44444444444444444444444",
"44444444444444444444444444+4444+6,,66006000066666=+===+44444444444444444444444444",
"44444444444444444444444444+4444+6,,66006000066666=+===+4444;;;;;;;;;;;;;;;;;;;;;;",
"4444444444444;;;;;;;;;;;;;++++++,++=00066666,=0066===,=++444444444444444444444444",
"44444444;;;;;44444444444444+==+6,++=6666,=666,===60006,==+44444444444444444444444",
"4444444444444444444444444444+++,===,06666,===6006=60066,,=+444+444444444444444444",
"4444444444444444444444444444+++,===,06666,===6006=60066,,=+444+444444444444444444",
"4444444444444444444444444444++,0,==+,,,=6666,========6=,,==++++444444444444444444",
"4444444444444444444444444444++6,=++,=++,60006666666006+,,,,=++4444444444444444444",
"444444444444444444444444444+,,,==++=+==,66006=66,=,666+,,,+=444444444444444444444",
"444444444444444444444444444+====+ee++==,,666,+,,,+,,,,,,,,=+444444444444444444444",
"44444;;;;;;;;;;;;;;;;;;;444+====+ee++==,,666,+,,,+,,,,,,,,=+;;;;44444444444444444",
"44444444333333333444444;44++++++eeee+==+,,,,,+,,,+=,,,,,,,,=++44;;+;;;;;;;;;;;;;;",
"44444444444444444444444444+4::qqq77--+++=,++==,,,,+==,,,,,,,==+++++44444444444444",
"4444444444444444444444444444::7qq777qqqq+=++=+---+=++,,++,,,,,=+++444444444444444",
"4444444444444444444444444444::7qq777qqqq+=++=+---+=++,,++,,,,,=+++444444444444444",
"444444444444444444444444444444:qq-------+===+-::7O====,==+,,,,+444444444444444444",
"444444444444444444444444444444:qq--  ---++==+-77e9=++=>,,=+,++;;;;;;;444444444444",
"444444444444444444444444444444:qq771 888+=++qq77eq ++=,,,,= 444444444444444444444",
"444444444444444444444444444444:qq77 #tt8++qqqq77q: ++==,,,,=  4444444444444444444",
"444444444444444444444444444444:qq77 #tt8++qqqq77q: ++==,,,,=  4444444444444444444",
"4444444444444444444444444444:::ee77 1tt8+qqqqq77: +======   444444444444444444444",
";;;;;;;;;;;;;;;;;;;;;;;;;;;;::qeeqq22ttqqqqqqq   ++====  444  4444444444444444444",
"4444443333333333333333334444::7eeeeeeqqqqqqqq777++=====  444444444444444444444444",
"4444444444444444444444444444::7eeeeeeqqqqqqqq777++=====  444444444444444444444444",
"444444444444444444444444444444:qeeeeqqqqqqqqq777++=====   44444444444444444444444",
"444444444444444444444444444444 7qqqqqqqqqqqq77+++====  44444444444444444444444444",
"4444444444444444444444444444444 :77qqqqqqq7777+++==  4444444444444444444444444444",
"44444444444444444444444444444444   ::7777777::     444444444444444444444444444444",
"44444444444444444444444444444444   ::7777777::     ;;;;;;;;;;;;;;;;;;;;;;;;;;;;;;",
"44444444444444444444444444444444444 @@@@@@@@  .... 444444444444444444444444444444",
"44444444444444444444444444444444444&@@@ 5&oooo%%$o.  4444444444444444444444444444",
"44444444444444444444444444444444444&5&&5.ooo$%%%$oo  4444444444444444444444444444",
"444444;;;44444444444444444444444444&5&&5.ooo$%%%$oo  4444444444444444444444444444",
"444444444;;;;;;;;;4444;;;;;;44444  .o...r.$$.$%%%$$.. 444444444444444444444444444",
"444444444444444444;;;;44444444444  o%rr%or..& ooooo  -444444444444444444444444444",
"444444444444444444444444444444444  $r%%ror&&&&..o  ::-444444444444444444444444444",
"444444444444444444444444444444444  %r%%ror&&<&   7777-;;4444444444444444444444444",
"444444444444444444444444444444444  %r%%ror&&<&   7777-444444444444444444444444444",
"444444444444444444444444444444444  or%%ror<<<<---7777:-44444444444444444444444444",
"44444444444444444444444444444444444 r%%ror<<<<---qq77--44444444444444444444444444",
"44444444444444444444444444444444-:: $rr%$r55<5--7qqqq7-44444444444444444444444444",
"44;44444444444444444444444444444-:: $rr%$r55<5--7qqqq7-44444444444444444444444444",
"444;;;;;;;;;;;;;;;;;;;;;;;;;;44-::: o$$%or5555--7qqqq7-44444444444444444444444444",
"4444444444444444444444444444444-7::          -::qee77X;;;;;;;;;;;;;;;;;4444444444",
"4444444444444444444444444444444 ::: .oo$r5<<< ::77q77 44444444444444444;;;;;;;;;;",
"44444444444444444444444444444;;;    .$$r<555ro  7-7  4444444444444444444444444444",
"44444444444444444444444444444444    .$$r<555ro  7-7  4444444444444444444444444444",
"44444444444444444444444444444444444 .rr&&&<<ro..   444444444444444444444444444444",
"44444444444444444444444444444444444 orr<<&rro.    4444444444444444444444444444444",
"44444444444444444444444444444444444 orr5<r... ooo 4444444444444444444444444444444",
"44444444444444444444444444444444444 orr5<r... ooo 4444444444444444444444444444444",
"44444444444444444444444444444444444-   5<r   ooo  4444444444444444444444444444444",
"44444444444444444444444444444444444:qee   44    --4444444444444444444444444444444",
"444444444444444444444444444444444  .eeeq:-44 -:::--444444444444444444444444444444",
"444444444444444444444444444444444...oooo  444 ..oo 444444444444444444444444444444",
"444444444444444444444444444444444...oooo  444 ..oo 444444444444444444444444444444",
"444444;;44444444444;;;;4444444444        4444      444444444444444444444444444444",
"44444444;;;;;;;;;;;44444444444444---qeeq-4444;-----  ;;;;;;;;;;;;4444444444444444",
"44444444444444444444444444444444     eeq  4444       444444444444;;;;444444444444",
"44444444444444444444444444444444     eeq  44;;       4444444444444444;;;;;;;44444",
"44444444444444444444444444444444 **ww   * ;;4   *w*  44444444444444444444444;;;;;",
"4444444444444444444444444444444; ww*w**w 4444 ww*ww  4444444444444444444444444444",
"44444444444444444444444444444444   w*ww 44444      444444444444444444444444444444",
";;;;;;;;;;;;;;;;;;;;444444444444444     44444444444444444444444444444444444444444",
"44444444444444444444;;;;44444444444     44444444444444444444444444444444444444444",
"444444444444444444444444444444444444444444444444444444444444444444444444444444444"
};
