/* XPM */
static char *_d129f7e9d5f4d188c7fc8e10efb9f8ex69w4a11Q7DNlSjg[] = {
/* columns rows colors chars-per-pixel */
"81 81 31 1 ",
"  c black",
". c #161419",
"X c #1F1D20",
"o c #5B290E",
"O c #4B2510",
"+ c #573A28",
"@ c #413C40",
"# c #49474C",
"$ c #585549",
"% c #833504",
"& c #BF3F32",
"* c #954009",
"= c #964B1F",
"- c #B77E1C",
"; c #B36739",
": c #C95D1C",
"> c #C66427",
", c #9E7353",
"< c #A47B67",
"1 c #C28315",
"2 c #D18D17",
"3 c #ED8232",
"4 c #F68D4B",
"5 c #EA9777",
"6 c #AFA992",
"7 c #F4AD83",
"8 c #F9C19D",
"9 c #C0D3D2",
"0 c #FBDCC8",
"q c #E1E1E3",
"w c white",
/* pixels */
"222222222222222222222222222222222222222222222222222222222222222222222222222222222",
"2222222222222222222222222222222222222oo222222222222222222222222222222222222222222",
"222--------------------------------22oo222222222222222222222222222222222222222222",
"---222222222222222222222222222222222ooo2222222222222222222222222-----------222222",
"22222222222222222222222222222222222o***o222222222o2222222222222222222222222------",
"22222222222222222222222222o22222222o****o2222o222o2222222222222222222222222222222",
"22222222222222222222222222oooo22222o:****oooo*ooo*o222222222222222222222222222222",
"--------------------------oooo-----o:****oooo*ooo*o111122222222222222222222222222",
"22221111111111111111111111o***ooooo:44444444*o::o:*oo2o22222222222222222222222222",
"222222222222222222222222222o**:47777444477774*oo44:**o222222222222222222222222222",
"222222222222222222222ooooo2o::7477744***4477744474:**o222222222222222222222222222",
"222222222222222222222ooooo2o::7477744***4477744474:**o222222222222222222222222222",
"----------------------o***o***::*****44474444444474::o222222222222222222222222222",
"2222222222222222222222o***:4::***44447777744*:4444744:ooo2o2222222222222222222222",
"22222222222222222222222o::447744*****4477444:*::4477774::oo2222222222222222222222",
"22222222222222222222222ooo:477744:::***444444***:44447444*o2222222222222222222222",
"22222222222222222222222ooo:477744:::***444444***:44447444*o----------------------",
"2222222222222-------------o444:7444::::44o::o****::4444**o22222222222222222222222",
"22222222-----22222222222oo::**:44::*o**:4*oo*:**o*:::4:::*o2222222222222222222222",
"22222222222222222222222o:::*:::4:**oo**::*oo*o**o*::::::::*ooo2222222222222222222",
"22222222222222222222222o:::*:::4:**oo**::*oo*o**o*::::::::*ooo2222222222222222222",
"222222222222222222ooooo:::*:::::*oo00oo::*oo*o***o*::::****o222222222222222222222",
"2222222222222222222oo**:::*:::::*oo00oo*:o00oooooo*oo:*oooo2222222222222222222222",
"2222222222222222222oo*::**::::**o000000o*o0000008oo**::** 22222222222222222222222",
"222222222222222222222o*:::::**oo====5000oo005====;ooo*:::* 2222222222222222222222",
"22222----------------o*:::::**oo====5000oo005====;ooo*:::* -----22222222222222222",
"2222222211111111122222o*  :*oo58888855580o555888885;;o*:::* 2222-----------------",
"22222222222222222222222 :::ooo5======5588855======5;;o*::* 2222222222222222222222",
"2222222222222222222222 ***:o;;==    =;;888;;=    ==;;=o** 22222222222222222222222",
"2222222222222222222222 ***:o;;==    =;;888;;=    ==;;=o** 22222222222222222222222",
"22222222222222222222222 ***o;;66,$$  ;;888;; ,$$ 66;;=o** 22222222222222222222222",
"222222222222222222222222  *o;;6w+  +655888556+  +w6;;=o  ------------222222222222",
"22222222222222222222222222  ;;6w,  ,w5508055w,  ,w6;;  22222222222222222222222222",
"222222222222222222222222222 ;;5w<<<<w8800088w<<<<w5;; 222222222222222222222222222",
"222222222222222222222222222 ;;5w<<<<w8800088w<<<<w5;; 222222222222222222222222222",
"2222222222222222222222222222  558880000050000088855  2222222222222222222222222222",
"----------------------------  ;5888800005000088885;  2222222222222222222222222222",
"222222111111111111111111222222 ;58888888888888885; 222222222222222222222222222222",
"222222222222222222222222222222 ;58888888888888885; 222222222222222222222222222222",
"2222222222222222222222222222     ;;58888888885==     2222222222222222222222222222",
"222222222222222222222222222 @@@X.   ;;;555;;;   .X@@@ 222222222222222222222222222",
"22222222222222222222222222 @###XX333 OOOOOOO 333XX###@ 22222222222222222222222222",
"22222222222222222222222222 @###XX...3%%303%%3...XX###@ 22222222222222222222222222",
"22222222222222222222222222 @###XX...3%%303%%3...XX###@ --------------------------",
"222222222222222222222222  X@###....q...%%%...q....###@X  222222222222222222222222",
"222222222222222222222222  X@@@X 3qq.X@@...@@X.qq3 X@@@X  222222222222222222222222",
"222222222222222222222222  X@@@X%>qq.@qq@X@qq@.qq>%X@@@X  222222222222222222222222",
"222222---222222222222222  X@@@X%>qq.@qq@X@qq@.qq>%X@@@X  222222222222222222222222",
"222222222---------2222--== XXX.%>qq@qqq#@q##q@qq>%.XXX ==222222222222222222222222",
"222222222222222222----22;;5    %3qq.@qq##q##q#qq3%    5;;222222222222222222222222",
"22222222222222222222222=555555 %3qqX#qq##q##q#qq3% 555555=22222222222222222222222",
"22222222222222222222222=8885  2%3qq.@qq##q##q@qq3%-  5888=22222222222222222222222",
"22222222222222222222222=8885  2%3qq.@qq##q##q@qq3%2  5888=22222222222222222222222",
"22222222222222222222222=8885  2%>qq@qqqq#@qq@.qq>%2  5888=22222222222222222222222",
"22222222222222222222222=8885  2 >qq.@##@X.@@..qq> 2  5888=22222222222222222222222",
"22222222222222222222222=8885  2                   2  5888=22222222222222222222222",
"22-22222222222222222222=8885  2                   2  5888=22222222222222222222222",
"222--------------------=550055 %3qq.X@@@@@@@X.qq3% 550055=22222222222222222222222",
"22222222222222222222222=550055 %>qqXX@@###@@XXqq>% 550055=-------------2222222222",
"22222222222222222222222=558=55 %>qqXXXX@#@XXXXqq>% 55=855=2222222222222----------",
"22222222222222222222222=555   -%>qqX@XX. .XX@Xqq>%2   555=22222222222222222222222",
"22222222222222222222222=555   2%>qqX@XX. .XX@Xqq>%2   555=22222222222222222222222",
"222222222222222222222222    222%3qqX@.. 2 ..@Xqq3%222    222222222222222222222222",
"2222222222222222222222222222222         2         2222222222222222222222222222222",
"2222222222222222222222222222222=5000855=2=5580005=2222222222222222222222222222222",
"2222222222222222222222222222222=5000855=2=5580005=2222222222222222222222222222222",
"2222222222222222222222222222222=5000855=2=5580005=2222222222222222222222222222222",
"2222222222222222222222222222222 .XXXXXX 2 XXXXXX. 2222222222222222222222222222222",
"2222222222222222222222222222222..XXXXXX.2.XXXXXX..2222222222222222222222222222222",
"2222222222222222222222222222222         2         2222222222222222222222222222222",
"2222222222222222222222222222222         2         2222222222222222222222222222222",
"222222--22222222222----22222222=5000055=2=5500005=2222222222222222222222222222222",
"22222222-----------222222222222  0000   2   0000  ---------------2222222222222222",
"2222222222222222222222222222222 &    && 2 &&    & 222222222222222----222222222222",
"2222222222222222222222222222222 &    && 2 &&    & 2222222222222222222-------22222",
"2222222222222222222222222222222 9&&&&99 - 99&&&&9 22222222222222222222222222-----",
"2222222222222222222222222222222 9    99 2 99    9 2222222222222222222222222222222",
"22222222222222222222222222222222       222       22222222222222222222222222222222",
"--------------------2222222222222222222222222222222222222222222222222222222222222",
"22222222222222222222----222222222222222222222222222222222222222222222222222222222",
"222222222222222222222222222222222222222222222222222222222222222222222222222222222"
};
