/* XPM */
static char *_08146e158fc4c8b9a049088eab8eda8lEkQwgLu6KPj52Ts[] = {
/* columns rows colors chars-per-pixel */
"81 81 34 1 ",
"  c black",
". c #161419",
"X c #201D1A",
"o c #1F1D20",
"O c #490E07",
"+ c #5B290E",
"@ c #4B2510",
"# c #573A28",
"$ c #413C40",
"% c #49474C",
"& c #833504",
"* c #BF3F32",
"= c #954009",
"- c #964B1F",
"; c #B77E1C",
": c #B36739",
"> c #C7591A",
", c #C95D1C",
"< c #C66427",
"1 c #9E7353",
"2 c #A47B67",
"3 c #C28315",
"4 c #D18D17",
"5 c #ED8232",
"6 c #F68D4B",
"7 c #EA9777",
"8 c #AFA992",
"9 c #DEAD9D",
"0 c #F4AD83",
"q c #F9C19D",
"w c #C0D3D2",
"e c #FBDCC8",
"r c #E1E1E3",
"t c white",
/* pixels */
"444444444444444444444444444444444444444444444444444444444444444444444444444444444",
"444444444444444444444444444444444444444444444444444444444444444444444444444444444",
"444;;;;;;;;;;;;;;;;;;;;;;;;;;;;;;;;4444444444444444444444444444444444444444444444",
";;;4444444444444444444444444444444444444444444444444444444444444;;;;;;;;;;;444444",
"444444444444444444444444444444444444444444444444444444444444444444444444444;;;;;;",
"444444444444444444444444444444444444444444444444444444444444444444444444444444444",
"444444444444444444444444444444444444444444444444444444444444444444444444444444444",
";;;;;;;;;;;;;;;;;;;;;;;;;;;;;;;;;;;;;;;;;;;;;;;;333333344444444444444444444444444",
"4444333333333333333333333333333333333333333333++444444444444444444444444444444444",
"44444444444444444444444444444444444+4444444444+++44444444444444444444444444444444",
"444444444444444444444444444444444+++444444444+==+44444444444444444444444444444444",
"444444444444444444444444444444444+++444444444+==+44444444444444444444444444444444",
";;;;;;;;;;;;;;;;;;;;;;;;;;;;;444+==+4++++++++====+4444+++444444444444444444444444",
"44444444444444444444444444444444+===+========,==++++++=++444444444444444444444444",
"444444444444444444444444444+++++=======6600066,,======+44444444444444444444444444",
"444444444444444444444444444444+==++=66666000060066,66+4444+4444444444444444444444",
"444444444444444444444444444444+==++=66666000060066,66+4444+;;;;;;;;;;;;;;;;;;;;;;",
"4444444444444;;;;;;;;;;;;;;;++=,===6600=,66666000=+,,++++++4444444444444444444444",
"44444444;;;;;44444444444444+==,60006===,66==,6666=+,,6+==+44444444444444444444444",
"4444444444444444444444+444+=,,66066=6006==,,66660,===,+++444444444444444444444444",
"4444444444444444444444+444+=,,66066=6006==,,66660,===,+++444444444444444444444444",
"4444444444444444444444++++==,,=6========,6666=,,,+=,,0,++444444444444444444444444",
"44444444444444444444444+==,,,,+60666666660006,++=,+==,6++444444444444444444444444",
"444444444444444444444444==+,,,+66,,=,66=60666,==+=+===,,,+44444444444444444444444",
"444444444444444444444444++=,,,,,,,,+,,,+,666,,==++e++====+44444444444444444444444",
"44444;;;;;;;;;;;;;;;;;;;++=,,,,,,,,+,,,+,666,,==++e++====+;;;;;;44444444444444444",
"444444443333333334+4444+==,,,,,,,==+,,,+,,,,,+==+eeee++++++44444;;;;;;;;;;;;;;;;;",
"444444444444444444+++++=,,,,,,,,=++,,,,==+,,=+++--7qqqq::4+4444444444444444444444",
"4444444444444444444+++=,,,,,++,,+==+---+=+==+qqqq77qqq7::444444444444444444444444",
"4444444444444444444+++=,,,,,++,,+==+---+=+==+qqqq77qqq7::444444444444444444444444",
"4444444444444444444444+,,,,+==,====O7::-+===+------qqq:44444444444444444444444444",
"44444444444444444444444+,,+=,,>=+==9e77-+=+++---  -qqq:;;;;;;;;;;;;;;444444444444",
"444444444444444444444444  =,,,,=+  qe77qq+==+888 17qqq:44444444444444444444444444",
"44444444444444444444444 ==,,,,==+  :q77qqq+++8tt# 7qqq:44444444444444444444444444",
"44444444444444444444444 ==,,,,==+  :q77qqq+++8tt# 7qqq:44444444444444444444444444",
"444444444444444444444444    =====++ :77qqqqq+8tt1 7eee:::444444444444444444444444",
";;;;;;;;;;;;;;;;;;;;;;; ;;;;  ===+++   qqqqqqqtt22qeeeq::444444444444444444444444",
"4444443333333333333333334444  =====++777qqqqqqqqeeeeee7::444444444444444444444444",
"4444444444444444444444444444  =====++777qqqqqqqqeeeeee7::444444444444444444444444",
"444444444444444444444444444   =====++777qqqqqqqqqeeeeq:44444444444444444444444444",
"444444444444444444444444444444  ====+++77qqqqqqqqqqqq7 44444444444444444444444444",
"44444444444444444444444444444444 ===+++777qqqqqqqq7:: 444444444444444444444444444",
"444444444444444444444444444444444      ::7777777::   4444444444444444444444444444",
"444444444444444444444444444444444      ::7777777::   ;;;;;;;;;;;;;;;;;;;;;;;;;;;;",
"444444444444444444444444444444444  ....  @@@@@@@@ 4444444444444444444444444444444",
"44444444444444444444444444444444 ..o$%%ooo&&5 @@@&4444444444444444444444444444444",
"44444444444444444444444444444444 ooo$%%%$ooo.5&&5&4444444444444444444444444444444",
"444444;;;44444444444444444444444 ooo$%%%$ooo.5&&5&4444444444444444444444444444444",
"444444444;;;;;;;;;4444;;;;;;444 .$$$%%%$.$..r...o. 444444444444444444444444444444",
"444444444444444444;;;;444444444- oooooo &.rro%rr%o 444444444444444444444444444444",
"4444444444444444444444444444444-:   o..&&&rrorrr%$ 444444444444444444444444444444",
"4444444444444444444444444444444-7777   &<&rro%rr%% ;;;;;4444444444444444444444444",
"4444444444444444444444444444444-7777   &<&rro%rr%% 444444444444444444444444444444",
"444444444444444444444444444444-:7777---<<<rro%rr%o 444444444444444444444444444444",
"444444444444444444444444444444--7qqq---<<<rro%rr% 4444444444444444444444444444444",
"444444444444444444444444444444-7qqqq7--5<5rr$rrrr :--4444444444444444444444444444",
"44;444444444444444444444444444-7qqqq7--5<5rr$rrrr :--4444444444444444444444444444",
"444;;;;;;;;;;;;;;;;;;;;;;;;;;4-7qqqq7--555rro%$$o :::-444444444444444444444444444",
"4444444444444444444444444444444X7eeeq::-          :77-;;;;;;;;;;;;;;;;;4444444444",
"4444444444444444444444444444444 7qq77:: <<55r$oo. ::: 44444444444444444;;;;;;;;;;",
"44444444444444444444444444444;;; 77-7  or555<r$$.    4444444444444444444444444444",
"44444444444444444444444444444444 77-7  or555<r$$.    4444444444444444444444444444",
"444444444444444444444444444444444    ..or<&&&&rr. 4444444444444444444444444444444",
"44444444444444444444444444444444444    .or&&<<rro 4444444444444444444444444444444",
"44444444444444444444444444444444444 ooo ..rr<5rro 4444444444444444444444444444444",
"44444444444444444444444444444444444 ooo ..rr<5rro 4444444444444444444444444444444",
"44444444444444444444444444444444444  ooo  rr<5   -4444444444444444444444444444444",
"44444444444444444444444444444444444--    4    eeq:4444444444444444444444444444444",
"444444444444444444444444444444444---:::- 4--:qeee. 444444444444444444444444444444",
"444444444444444444444444444444444  oo.. 44   oooo..444444444444444444444444444444",
"444444444444444444444444444444444  oo.. 44   oooo..444444444444444444444444444444",
"444444;;44444444444;;;;4444444444       4444       444444444444444444444444444444",
"44444444;;;;;;;;;;;4444444444444 ------44444-qeeq--;;;;;;;;;;;;;;4444444444444444",
"44444444444444444444444444444444       444   qee     444444444444;;;;444444444444",
"44444444444444444444444444444444       444   qee     4444444444444444;;;;;;;44444",
"44444444444444444444444444444444 **w*   ;;  *   ww*  44444444444444444444444;;;;;",
"4444444444444444444444444444444; www*ww 4444 w**w*w  4444444444444444444444444444",
"444444444444444444444444444444444       44444 ww*w   4444444444444444444444444444",
";;;;;;;;;;;;;;;;;;;;4444444444444444444444444     4444444444444444444444444444444",
"44444444444444444444;;;;444444444444444444444     4444444444444444444444444444444",
"444444444444444444444444444444444444444444444444444444444444444444444444444444444"
};
