/* XPM */
static char *f13181abb53b435bdf56ea56ecb0289aYmfO1LikJPb6MwHo[] = {
/* columns rows colors chars-per-pixel */
"81 81 33 1 ",
"  c black",
". c #161419",
"X c #201D1A",
"o c #1F1D20",
"O c #490E07",
"+ c #5B290E",
"@ c #4B2510",
"# c #573A28",
"$ c #413C40",
"% c #49474C",
"& c #833504",
"* c #BF3F32",
"= c #954009",
"- c #964B1F",
"; c #B77E1C",
": c #B36739",
"> c #C7591A",
", c #C95D1C",
"< c #9E7353",
"1 c #A47B67",
"2 c #C28315",
"3 c #D18D17",
"4 c #ED8232",
"5 c #F68D4B",
"6 c #EA9777",
"7 c #AFA992",
"8 c #DEAD9D",
"9 c #F4AD83",
"0 c #F9C19D",
"q c #C0D3D2",
"w c #FBDCC8",
"e c #E1E1E3",
"r c white",
/* pixels */
"333333333333333333333333333333333333333333333333333333333333333333333333333333333",
"333333333333333333333333333333333333333333333333333333333333333333333333333333333",
"333;;;;;;;;;;;;;;;;;;;;;;;;;;;;;;;;3333333333333333333333333333333333333333333333",
";;;3333333333333333333333333333333333333333333333333333333333333;;;;;;;;;;;333333",
"333333333333333333333333333333333333333333333333333333333333333333333333333;;;;;;",
"333333333333333333333333333333333333333333333333333333333333333333333333333333333",
"3333333333333333333333333333333333333++333333333333333333333333333333333333333333",
";;;;;;;;;;;;;;;;;;;;;;;;;;;;;;;;;;;;;++;;;;;;;;;222222233333333333333333333333333",
"333322222222222222222222222222222222+++2222222223+3333333333333333333333333333333",
"333333333333333333333333333333333333+==+333333333++333333333333333333333333333333",
"3333333333333333333333333333+++3333+====++++++++3+=++3333333333333333333333333333",
"3333333333333333333333333333+++3333+====++++++++3+=++3333333333333333333333333333",
";;;;;;;;;;;;;;;;;;;;;;;;;;;;++=++++++==,========+==++3333333333333333333333333333",
"333333333333333333333333333333+======,,5599955=======+++++33333333333333333333333",
"33333333333333333333333333+3333+5,,55995999955555=+===+33333333333333333333333333",
"33333333333333333333333333++++++,++=99955555,=9955===,=++333333333333333333333333",
"33333333333333333333333333++++++,++=99955555,=9955===,=++33;;;;;;;;;;;;;;;;;;;;;;",
"3333333333333;;;;;;;;;;;;;;+==+5,++=5555,=555,===59995,==+33333333333333333333333",
"33333333;;;;;333333333333333+++,===,95555,===5995=59955,,=+333+333333333333333333",
"3333333333333333333333333333++,9,==+,,,=5555,========5=,,==++++333333333333333333",
"3333333333333333333333333333++,9,==+,,,=5555,========5=,,==++++333333333333333333",
"3333333333333333333333333333++5,=++,=++,59995555555995+,,,,=++3333333333333333333",
"333333333333333333333333333+,,,==++=+==,55995=55,=,555+,,,+=333333333333333333333",
"333333333333333333333333333+====+ww++==,,555,+,,,+,,,,,,,,=+333333333333333333333",
"33333333333333333333333333++++++wwww+==+,,,,,+,,,+=,,,,,,,,=++3333+33333333333333",
"33333;;;;;;;;;;;;;;;;;;;33++++++wwww+==+,,,,,+,,,+=,,,,,,,,=++;;33+33333333333333",
"33333333222222222333333;33+3::00066--+++=,++==,,,,+==,,,,,,,==+++++;;;;;;;;;;;;;;",
"3333333333333333333333333333::6006660000+=++=+---+=++,,++,,,,,=+++333333333333333",
"333333333333333333333333333333:00-------+===+-::6O====,==+,,,,+333333333333333333",
"333333333333333333333333333333:00-------+===+-::6O====,==+,,,,+333333333333333333",
"333333333333333333333333333333:00--  ---++==+-66w8=++=>,,=+,++3333333333333333333",
"333333333333333333333333333333:0066< 777+=++0066w0 ++=,,,,= ;;;;;;;;;333333333333",
"333333333333333333333333333333:0066 #rr7++0000660: ++==,,,,=  3333333333333333333",
"3333333333333333333333333333:::ww66 <rr7+0000066: +======   333333333333333333333",
"3333333333333333333333333333:::ww66 <rr7+0000066: +======   333333333333333333333",
"3333333333333333333333333333::0ww0011rr0000000   ++====  333  3333333333333333333",
";;;;;;;;;;;;;;;;;;;;;;;;;;;;::6wwwwww00000000666++=====  333333333333333333333333",
"333333222222222222222222333333:0wwww000000000666++=====   33333333333333333333333",
"333333333333333333333333333333:0wwww000000000666++=====   33333333333333333333333",
"333333333333333333333333333333 600000000000066+++====  33333333333333333333333333",
"3333333333333333333333333333333 :6600000006666+++==  3333333333333333333333333333",
"33333333333333333333333333333333   ::6666666::     333333333333333333333333333333",
"33333333333333333333333333333333333 @@@@@@@@  ... 3333333333333333333333333333333",
"33333333333333333333333333333333333 @@@@@@@@  ... ;;;;;;;;;;;;;;;;;;;;;;;;;;;;;;;",
"33333333333333333333333333333333333&@@@ 4&ooooooo.3333333333333333333333333333333",
"33333333333333333333333333333333333&4&&4.ooo$%%%%o 333333333333333333333333333333",
"333333333333333333333333333333333  .o...e.$$$%%%%$ 333333333333333333333333333333",
"333333;;;333333333333333333333333  .o...e.$$$%%%%$ 333333333333333333333333333333",
"333333333;;;;;;;;;3333;;;;;;33333  o%ee%oe.. ooo$o.  3333333333333333333333333333",
"333333333333333333;;;;33333333333  $e%%eoe&& ooo$o.  3333333333333333333333333333",
"333333333333333333333333333333333  %e%%eoe&& .oo$o.  3333333333333333333333333333",
"333333333333333333333333333333333  oe%%eoe44- ..   --;;;3333333333333333333333333",
"333333333333333333333333333333333  oe%%eoe44- ..   --3333333333333333333333333333",
"33333333333333333333333333333333333 e%%eoe44-   66:--3333333333333333333333333333",
"33333333333333333333333333333333333 $ee%$e44--0006-333333333333333333333333333333",
"33333333333333333333333333333333333 o$$%oe--600006-333333333333333333333333333333",
"33;33333333333333333333333333333333 o$$%oe--600006-333333333333333333333333333333",
"333;;;;;;;;;;;;;;;;;;;;;;;;;;333333       --660006-333333333333333333333333333333",
"33333333333333333333333333333333333 $%%%$-::w0006X;;;;;;;;;;;;;;;;;;;;;3333333333",
"33333333333333333333333333333333333 .$$$o-::0w666X333333333333333333333;;;;;;;;;;",
"33333333333333333333333333333;;;;;; .$$$oe::60666 3333333333333333333333333333333",
"33333333333333333333333333333333333 .$$$oe::60666 3333333333333333333333333333333",
"33333333333333333333333333333333333 o...oe  6-66  3333333333333333333333333333333",
"33333333333333333333333333333333333 o.. .e       33333333333333333333333333333333",
"33333333333333333333333333333333333              33333333333333333333333333333333",
"33333333333333333333333333333333333              33333333333333333333333333333333",
"33333333333333333333333333333333333--::-0www66::-33333333333333333333333333333333",
"33333333333333333333333333333333333--::-0www00::-33333333333333333333333333333333",
"333333333333333333333333333333333333 oo ..oooo  333333333333333333333333333333333",
"333333333333333333333333333333333333... ....oo..333333333333333333333333333333333",
"333333333333333333333333333333333333... ....oo..333333333333333333333333333333333",
"333333;;33333333333;;;;3333333333333   .        333333333333333333333333333333333",
"33333333;;;;;;;;;;;33333333333333333-:::-www0:--;;;;;;;;;;;;;;;;;3333333333333333",
"333333333333333333333333333333333333     www    33333333333333333;;;;333333333333",
"333333333333333333333333333333333333     www    333333333333333333333;;;;;;;33333",
"33333333333333333333333333333333333 ***q    q*  3333333333333333333333333333;;;;;",
"3333333333333333333333333333333;;;; qqq* *qq*q  333333333333333333333333333333333",
"33333333333333333333333333333333333      qqqq*  333333333333333333333333333333333",
";;;;;;;;;;;;;;;;;;;;333333333333333333333     33333333333333333333333333333333333",
"33333333333333333333;;;;33333333333333333     33333333333333333333333333333333333",
"333333333333333333333333333333333333333333333333333333333333333333333333333333333"
};
