/* XPM */
static char *_cd7d235da2a4b40ca4895db8d7dcd9eV8rf4SCwW6H2VV84[] = {
/* columns rows colors chars-per-pixel */
"81 81 31 1 ",
"  c None",
". c #5B290E",
"X c #954009",
"o c #C95D1C",
"O c #F68D4B",
"+ c #F4AD83",
"@ c #FBDCC8",
"# c #964B1F",
"$ c #EA9777",
"% c #F9C19D",
"& c #B36739",
"* c #490E07",
"= c #C7591A",
"- c #DEAD9D",
"; c black",
": c #AFA992",
"> c #9E7353",
", c white",
"< c #573A28",
"1 c #A47B67",
"2 c #161419",
"3 c #4B2510",
"4 c #1F1D20",
"5 c #833504",
"6 c #ED8232",
"7 c #413C40",
"8 c #49474C",
"9 c #E1E1E3",
"0 c #C66427",
"q c #C0D3D2",
"w c #BF3F32",
/* pixels */
"                                                                                 ",
"                                                                                 ",
"                                                                                 ",
"                                                                                 ",
"                                                                                 ",
"                                                                                 ",
"                                                                                 ",
"                                                                                 ",
"                                              ..                                 ",
"                                   .          ...                                ",
"                                 ...         .XX.                                ",
"                                 ...         .XX.                                ",
"                                .XX. ........XXXX.    ...                        ",
"                                .XXX.XXXXXXXXoXX......X..                        ",
"                           .....XXXXXXXOO+++OOooXXXXXX.                          ",
"                              .XX..XOOOOO++++O++OOoOO.    .                      ",
"                              .XX..XOOOOO++++O++OOoOO.    .                      ",
"                            ..XoXXXOO++XoOOOOO+++X.oo......                      ",
"                           .XXoO+++OXXXoOOXXoOOOOX.ooO.XX.                       ",
"                      .   .XooOO+OOXO++OXXooOOOO+oXXXo...                        ",
"                      .   .XooOO+OOXO++OXXooOOOO+oXXXo...                        ",
"                      ....XXooXOXXXXXXXXoOOOOXooo.Xoo+o..                        ",
"                       .XXoooo.O+OOOOOOOO+++Oo..Xo.XXoO..                        ",
"                        XX.ooo.OOooXoOOXO+OOOoXX.X.XXXooo.                       ",
"                        ..Xoooooooo.ooo.oOOOooXX..@..XXXX.                       ",
"                        ..Xoooooooo.ooo.oOOOooXX..@..XXXX.                       ",
"                  .    .XXoooooooXX.ooo.ooooo.XX.@@@@......                      ",
"                  .....XooooooooX..ooooXX.ooX...##$%%%%&& .                      ",
"                   ...Xooooo..oo.XX.###.X.XX.%%%%$$%%%$&&                        ",
"                   ...Xooooo..oo.XX.###.X.XX.%%%%$$%%%$&&                        ",
"                      .oooo.XXoXXXX*$&&#.XXX.######%%%&                          ",
"                       .oo.Xoo=X.XX-@$$#.X...###;;#%%%&                          ",
"                        ;;XooooX.;;%@$$%%.XX.:::;>$%%%&                          ",
"                       ;XXooooXX.;;&%$$%%%...:,,<;$%%%&                          ",
"                       ;XXooooXX.;;&%$$%%%...:,,<;$%%%&                          ",
"                        ;;;;XXXXX..;&$$%%%%%.:,,>;$@@@&&&                        ",
"                       ;    ;;XXX...;;;%%%%%%%,,11%@@@%&&                        ",
"                            ;;XXXXX..$$$%%%%%%%%@@@@@@$&&                        ",
"                            ;;XXXXX..$$$%%%%%%%%@@@@@@$&&                        ",
"                           ;;;XXXXX..$$$%%%%%%%%%@@@@%&                          ",
"                              ;;XXXX...$$%%%%%%%%%%%%$;                          ",
"                                ;XXX...$$$%%%%%%%%$&&;                           ",
"                                 ;;;;;;&&$$$$$$$&&;;;                            ",
"                                 ;;;;;;&&$$$$$$$&&;;;                            ",
"                                   ;222;;33333333;                               ",
"                                   ;444444556;3335                               ",
"                                 ;;478887444265565                               ",
"                                 ;;478887444265565                               ",
"                                 ;;887772222922242;                              ",
"                                ;4477442;;99489984;                              ",
"                                ;224422;;599499987;                              ",
"                                #;;;;;;&##99489988;                              ",
"                                #;;;;;;&##99489988;                              ",
"                                #&&$$$$%$#####9984;                              ",
"                                ###&&$$%$$%%%@&&8;                               ",
"                                 ##&#&&$$$@@@%&&9;                               ",
"                                 ##&#&&$$$@@@%&&9;                               ",
"                                   ;2;;##$%%%$&&4;                               ",
"                                   ;49960;$$#$;;;;                               ",
"                                   ;299569;;;;774;                               ",
"                                   ;9555097788774;                               ",
"                                   ;9555097788774;                               ",
"                                   ;9005927777442;                               ",
"                                   ;96609;2244224;                               ",
"                                   ;;;;694;;22444;;                              ",
"                                   ;;;;694;;22444;;                              ",
"                                   #&$$;;4;;24;;;&#                              ",
"                                   #$$$@$;;;;;&&&&;                              ",
"                                 ;;2444@%&   ###&44;;                            ",
"                                 ;;;2224;#    ;;422;;                            ",
"                                 ;;;2224;#    ;;422;;                            ",
"                                ;##$;;;22     ;;2;;;;                            ",
"                               ;q;;%@@@;;     ##$&#;;                            ",
"                               ;w;;;;$$#     ;;;&;;;;;                           ",
"                               ;w;;;;$$#     ;;;&;;;;;                           ",
"                               ;qqqwq;;      ;qq;wqww;                           ",
"                                ;wwqqqq;      ;;wqwqq;                           ",
"                                 ;;wqww;        ;;;;;                            ",
"                                   ;;;;                                          ",
"                                   ;;;;                                          ",
"                                                                                 "
};
