/* XPM */
static char *_77a114586774bb6ba900cdcdd434af3MlxCuhuV5xf8oTPp[] = {
/* columns rows colors chars-per-pixel */
"81 81 33 1 ",
"  c black",
". c #161419",
"X c #1F1D20",
"o c #490E07",
"O c #5B290E",
"+ c #4B2510",
"@ c #573A28",
"# c #413C40",
"$ c #49474C",
"% c #833504",
"& c #BF3F32",
"* c #954009",
"= c #964B1F",
"- c #B77E1C",
"; c #B36739",
": c #C7591A",
"> c #C95D1C",
", c #C66427",
"< c #9E7353",
"1 c #A47B67",
"2 c #C28315",
"3 c #D18D17",
"4 c #ED8232",
"5 c #F68D4B",
"6 c #EA9777",
"7 c #AFA992",
"8 c #DEAD9D",
"9 c #F4AD83",
"0 c #F9C19D",
"q c #C0D3D2",
"w c #FBDCC8",
"e c #E1E1E3",
"r c white",
/* pixels */
"333333333333333333333333333333333333333333333333333333333333333333333333333333333",
"333333333333333333333333333333333333333333333333333333333333333333333333333333333",
"333--------------------------------3333333333333333333333333333333333333333333333",
"---3333333333333333333333333333333333333333333333333333333333333-----------333333",
"333333333333333333333333333333333333333333333333333333333333333333333333333------",
"333333333333333333333333333333333333333333333333333333333333333333333333333333333",
"333333333333333333333333333333333333333333333333333333333333333333333333333333333",
"------------------------------------------------222222233333333333333333333333333",
"3333222222222222222222222222222222222OO222222222333333333333333333333333333333333",
"333333333333333333333333333333333333OOO3333333333O3333333333333333333333333333333",
"333333333333333333333333333333333333O**O333333333OO333333333333333333333333333333",
"333333333333333333333333333333333333O**O333333333OO333333333333333333333333333333",
"----------------------------OOO3333O****OOOOOOOO3O*OO3333333333333333333333333333",
"3333333333333333333333333333OO*OOOOOO**>********O**OO3333333333333333333333333333",
"333333333333333333333333333333O******>>5599955*******OOOOO33333333333333333333333",
"33333333333333333333333333O3333O5>>55995999955555*O***O33333333333333333333333333",
"33333333333333333333333333O3333O5>>55995999955555*O***O3333----------------------",
"3333333333333-------------OOOOOO>OO*99955555>*9955***>*OO333333333333333333333333",
"33333333-----33333333333333O**O5>OO*5555>*555>***59995>**O33333333333333333333333",
"3333333333333333333333333333OOO>***>95555>***5995*59955>>*O333O333333333333333333",
"3333333333333333333333333333OOO>***>95555>***5995*59955>>*O333O333333333333333333",
"3333333333333333333333333333OO>9>**O>>>*5555>********5*>>**OOOO333333333333333333",
"3333333333333333333333333333OO5>*OO>*OO>59995555555995O>>>>*OO3333333333333333333",
"333333333333333333333333333O>>>**OO*O**>55995*55>*>555O>>>O*333333333333333333333",
"333333333333333333333333333O****OwwOO**>>555>O>>>O>>>>>>>>*O333333333333333333333",
"33333-------------------333O****OwwOO**>>555>O>>>O>>>>>>>>*O----33333333333333333",
"33333333222222222333333-33OOOOOOwwwwO**O>>>>>O>>>O*>>>>>>>>*OO33--O--------------",
"33333333333333333333333333O3;;00066==OOO*>OO**>>>>O**>>>>>>>**OOOOO33333333333333",
"3333333333333333333333333333;;6006660000O*OO*O===O*OO>>OO>>>>>*OOO333333333333333",
"3333333333333333333333333333;;6006660000O*OO*O===O*OO>>OO>>>>>*OOO333333333333333",
"333333333333333333333333333333;00=======O***O=;;6o****>**O>>>>O333333333333333333",
"333333333333333333333333333333;00==  ===OO**O=66w8*OO*:>>*O>OO-------333333333333",
"333333333333333333333333333333;0066< 777O*OO0066w0 OO*>>>>* 333333333333333333333",
"333333333333333333333333333333;0066 @rr7OO0000660; OO**>>>>*  3333333333333333333",
"333333333333333333333333333333;0066 @rr7OO0000660; OO**>>>>*  3333333333333333333",
"3333333333333333333333333333;;;ww66 <rr7O0000066; O******   333333333333333333333",
"----------------------------;;0ww0011rr0000000   OO****  333  3333333333333333333",
"3333332222222222222222223333;;6wwwwww00000000666OO*****  333333333333333333333333",
"3333333333333333333333333333;;6wwwwww00000000666OO*****  333333333333333333333333",
"333333333333333333333333333333;0wwww000000000666OO*****   33333333333333333333333",
"333333333333333333333333333333 600000000000066OOO****  33333333333333333333333333",
"3333333333333333333333333333333 ;6600000006666OOO**  3333333333333333333333333333",
"33333333333333333333333333333333   ;;6666666;;     333333333333333333333333333333",
"33333333333333333333333333333333   ;;6666666;;     ------------------------------",
"33333333333333333333333333333333333 ++++++++  ... 3333333333333333333333333333333",
"33333333333333333333333333333333333%+++ 4%XXXXXXX 3333333333333333333333333333333",
"33333333333333333333333333333333333%4%%4.XXX#$$$#X 333333333333333333333333333333",
"333333---33333333333333333333333333%4%%4.XXX#$$$#X 333333333333333333333333333333",
"333333333---------3333------33333  .X...e....###$$ 333333333333333333333333333333",
"333333333333333333----33333333333  X$ee$Xe   .XX##X  3333333333333333333333333333",
"333333333333333333333333333333333  #e$$eXe%%  ..XX.  3333333333333333333333333333",
"333333333333333333333333333333333  $e$$eXe===;     ==---3333333333333333333333333",
"333333333333333333333333333333333  $e$$eXe===;     ==3333333333333333333333333333",
"333333333333333333333333333333333  Xe$$=====606666;==3333333333333333333333333333",
"33333333333333333333333333333333333 e;;w00666066;;===3333333333333333333333333333",
"33333333333333333333333333333333333 #;;0ww6666;;=;=333333333333333333333333333333",
"33-33333333333333333333333333333333 #;;0ww6666;;=;=333333333333333333333333333333",
"333--------------------------333333 X;;60066==  . 3333333333333333333333333333333",
"33333333333333333333333333333333333    6=6  ,4eeX ---------------------3333333333",
"33333333333333333333333333333333333 X##   ee4%ee. 333333333333333333333----------",
"33333333333333333333333333333------ X##$$#ee,%%%e 3333333333333333333333333333333",
"33333333333333333333333333333333333 X##$$#ee,%%%e 3333333333333333333333333333333",
"33333333333333333333333333333333333 .XX###..e%,,e 3333333333333333333333333333333",
"33333333333333333333333333333333333 X..XX.  e,44e 3333333333333333333333333333333",
"333333333333333333333333333333333   XXX.. XXe4    3333333333333333333333333333333",
"333333333333333333333333333333333   XXX.. XXe4    3333333333333333333333333333333",
"333333333333333333333333333333333==;   X. XX  66;=3333333333333333333333333333333",
"333333333333333333333333333333333  ;;;;     6w666=3333333333333333333333333333333",
"33333333333333333333333333333333 XXX;===33;;0wXXX. 333333333333333333333333333333",
"33333333333333333333333333333333 ...X  333== X...  333333333333333333333333333333",
"33333333333333333333333333333333 ...X  333== X...  333333333333333333333333333333",
"333333--33333333333----333333333    .  33333..   6=  3333333333333333333333333333",
"33333333-----------3333333333333 ==;6==33333  www0 qq -----------3333333333333333",
"3333333333333333333333333333333     ;   33333=66   && 33333333333----333333333333",
"3333333333333333333333333333333     ;   3333-=66   && 333333333333333-------33333",
"3333333333333333333333333333333 &qq& qq ----33  q&qqq 3333333333333333333333-----",
"3333333333333333333333333333333 q&&q&  333333 qqqq&  3333333333333333333333333333",
"33333333333333333333333333333333     33333333 &&q& 333333333333333333333333333333",
"--------------------33333333333333333333333333    3333333333333333333333333333333",
"33333333333333333333----3333333333333333333333    3333333333333333333333333333333",
"333333333333333333333333333333333333333333333333333333333333333333333333333333333"
};
