/* XPM */
static char *_563c35ecca44fe1c9e230d099d750445idBviPygQc9ZnRt[] = {
/* columns rows colors chars-per-pixel */
"81 81 32 1 ",
"  c None",
". c #5B290E",
"X c #954009",
"o c #C95D1C",
"O c #F68D4B",
"+ c #F4AD83",
"@ c #FBDCC8",
"# c #B36739",
"$ c #F9C19D",
"% c #EA9777",
"& c #964B1F",
"* c #490E07",
"= c black",
"- c #DEAD9D",
"; c #C7591A",
": c #9E7353",
"> c #AFA992",
", c #573A28",
"< c white",
"1 c #A47B67",
"2 c #4B2510",
"3 c #161419",
"4 c #833504",
"5 c #ED8232",
"6 c #1F1D20",
"7 c #49474C",
"8 c #413C40",
"9 c #E1E1E3",
"0 c #C66427",
"q c #201D1A",
"w c #BF3F32",
"e c #C0D3D2",
/* pixels */
"                                                                                 ",
"                                                                                 ",
"                                                                                 ",
"                                                                                 ",
"                                                                                 ",
"                                                                                 ",
"                                                                                 ",
"                                                                                 ",
"                                     ..                                          ",
"                                    ...          .                               ",
"                                    .XX.         ..                              ",
"                                    .XX.         ..                              ",
"                            ...    .XXXX........ .X..                            ",
"                            ..X......XXoXXXXXXXX.XX..                            ",
"                              .XXXXXXooOO+++OOXXXXXXX.....                       ",
"                          .    .OooOO++O++++OOOOOX.XXX.                          ",
"                          .    .OooOO++O++++OOOOOX.XXX.                          ",
"                          ......o..X+++OOOOOoX++OOXXXoX..                        ",
"                           .XX.Oo..XOOOOoXOOOoXXXO+++OoXX.                       ",
"                            ...oXXXo+OOOOoXXXO++OXO++OOooX.   .                  ",
"                            ...oXXXo+OOOOoXXXO++OXO++OOooX.   .                  ",
"                            ..o+oXX.oooXOOOOoXXXXXXXXOXooXX....                  ",
"                            ..OoX..oX..oO+++OOOOOOO++O.ooooX..                   ",
"                           .oooXX..X.XXoOO++OXOOoXoOOO.ooo.X                     ",
"                           .XXXX.@@..XXooOOOo.ooo.ooooooooX.                     ",
"                           .XXXX.@@..XXooOOOo.ooo.ooooooooX.                     ",
"                          ......@@@@.XX.ooooo.ooo.XooooooooX..    .              ",
"                          . ##$$$%%&&...Xo..XXoooo.XXoooooooXX.....              ",
"                            ##%$$%%%$$$$.X..X.&&&.X..oo..oooooX...               ",
"                            ##%$$%%%$$$$.X..X.&&&.X..oo..oooooX...               ",
"                              #$$&&&&&&&.XXX.&##%*XXXXoXX.oooo.                  ",
"                              #$$&&==&&&..XX.&%%@-X..X;ooX.o..                   ",
"                              #$$%%:=>>>.X..$$%%@$=..XooooX=                     ",
"                              #$$%%=,<<>..$$$$%%$#=..XXooooX==                   ",
"                              #$$%%=,<<>..$$$$%%$#=..XXooooX==                   ",
"                            ###@@%%=:<<>.$$$$$%%#=.XXXXXX===                     ",
"                            ##$@@$$11<<$$$$$$$===..XXXX==   ==                   ",
"                            ##%@@@@@@$$$$$$$$%%%..XXXXX==                        ",
"                            ##%@@@@@@$$$$$$$$%%%..XXXXX==                        ",
"                              #$@@@@$$$$$$$$$%%%..XXXXX===                       ",
"                              =%$$$$$$$$$$$$%%...XXXX==                          ",
"                               =#%%$$$$$$$%%%%...XX==                            ",
"                                ===##%%%%%%%##=====                              ",
"                                ===##%%%%%%%##=====                              ",
"                                   =22222222==3333=                              ",
"                                   4222=54666677863==                            ",
"                                   4544536668777866==                            ",
"                                   4544536668777866==                            ",
"                                 ==363339388387778833=                           ",
"                                 ==6799769334=66666==&                           ",
"                                 ==89779694444336==##&                           ",
"                                 ==79779694404===%%%%&                           ",
"                                 ==79779694404===%%%%&                           ",
"                                 ==69779690000&&&%%%%#&                          ",
"                                   =9779690000&&&$$%%&&                          ",
"                                &##=8997895505&&%$$$$%&                          ",
"                                &##=8997895505&&%$$$$%&                          ",
"                               &###=6887695555&&%$$$$%&                          ",
"                               &%##==========&##$@@%%q                           ",
"                               =###=366895000=##%%$%%=                           ",
"                                ====3889055596==%&%==                            ",
"                                ====3889055596==%&%==                            ",
"                                   =399444009633===                              ",
"                                   =6990049963====                               ",
"                                   =699509333=666=                               ",
"                                   =699509333=666=                               ",
"                                   &===509===666==                               ",
"                                   #$@@===  ====&&                               ",
"                                 ==3@@@$#&  =&###&&                              ",
"                                 3336666==   =3366=                              ",
"                                 3336666==   =3366=                              ",
"                                 ========    ======                              ",
"                                 &&&$@@$&     &&&&&==                            ",
"                                =====@@$==    =======                            ",
"                                =====@@$==    =======                            ",
"                                =wwee===w=   ===wew==                            ",
"                                =eewewwe=    =eewee==                            ",
"                                ===ewee=     ======                              ",
"                                   =====                                         ",
"                                   =====                                         ",
"                                                                                 "
};
