/* XPM */
static char *e61858d801454f4087db38272cde0cf1WiieDIiR0LKcQieJ[] = {
/* columns rows colors chars-per-pixel */
"81 81 33 1 ",
"  c black",
". c #161419",
"X c #201D1A",
"o c #1F1D20",
"O c #490E07",
"+ c #5B290E",
"@ c #4B2510",
"# c #573A28",
"$ c #413C40",
"% c #49474C",
"& c #833504",
"* c #BF3F32",
"= c #954009",
"- c #964B1F",
"; c #B77E1C",
": c #B36739",
"> c #C7591A",
", c #C95D1C",
"< c #9E7353",
"1 c #A47B67",
"2 c #C28315",
"3 c #D18D17",
"4 c #ED8232",
"5 c #F68D4B",
"6 c #EA9777",
"7 c #AFA992",
"8 c #DEAD9D",
"9 c #F4AD83",
"0 c #F9C19D",
"q c #C0D3D2",
"w c #FBDCC8",
"e c #E1E1E3",
"r c white",
/* pixels */
"333333333333333333333333333333333333333333333333333333333333333333333333333333333",
"333333333333333333333333333333333333333333333333333333333333333333333333333333333",
"333;;;;;;;;;;;;;;;;;;;;;;;;;;;;;;;;3333333333333333333333333333333333333333333333",
";;;3333333333333333333333333333333333333333333333333333333333333;;;;;;;;;;;333333",
"333333333333333333333333333333333333333333333333333333333333333333333333333;;;;;;",
"333333333333333333333333333333333333333333333333333333333333333333333333333333333",
"3333333333333333333333333333333333333333333333++333333333333333333333333333333333",
";;;;;;;;;;;;;;;;;;;;;;;;;;;;;;;;;;;;;;;;;;;;;;++222222233333333333333333333333333",
"33332222222222222222222222222222222+2222222222+++33333333333333333333333333333333",
"333333333333333333333333333333333+++333333333+==+33333333333333333333333333333333",
"33333333333333333333333333333333+==+3++++++++====+3333+++333333333333333333333333",
"33333333333333333333333333333333+==+3++++++++====+3333+++333333333333333333333333",
";;;;;;;;;;;;;;;;;;;;;;;;;;;;;333+===+========,==++++++=++333333333333333333333333",
"333333333333333333333333333+++++=======5599955,,======+33333333333333333333333333",
"333333333333333333333333333333+==++=55555999959955,55+3333+3333333333333333333333",
"3333333333333333333333333333++=,===5599=,55555999=+,,++++++3333333333333333333333",
"3333333333333333333333333333++=,===5599=,55555999=+,,++++++;;;;;;;;;;;;;;;;;;;;;;",
"3333333333333;;;;;;;;;;;;;;+==,59995===,55==,5555=+,,5+==+33333333333333333333333",
"33333333;;;;;333333333+333+=,,55955=5995==,,55559,===,+++333333333333333333333333",
"3333333333333333333333++++==,,=5========,5555=,,,+=,,9,++333333333333333333333333",
"3333333333333333333333++++==,,=5========,5555=,,,+=,,9,++333333333333333333333333",
"33333333333333333333333+==,,,,+59555555559995,++=,+==,5++333333333333333333333333",
"333333333333333333333333==+,,,+55,,=,55=59555,==+=+===,,,+33333333333333333333333",
"333333333333333333333333++=,,,,,,,,+,,,+,555,,==++w++====+33333333333333333333333",
"333333333333333333+3333+==,,,,,,,==+,,,+,,,,,+==+wwww++++++3333333333333333333333",
"33333;;;;;;;;;;;;;+;;;;+==,,,,,,,==+,,,+,,,,,+==+wwww++++++;;;;;33333333333333333",
"333333332222222223+++++=,,,,,,,,=++,,,,==+,,=+++--60000::3+33333;;;;;;;;;;;;;;;;;",
"3333333333333333333+++=,,,,,++,,+==+---+=+==+0000660006::333333333333333333333333",
"3333333333333333333333+,,,,+==,====O6::-+===+------000:33333333333333333333333333",
"3333333333333333333333+,,,,+==,====O6::-+===+------000:33333333333333333333333333",
"33333333333333333333333+,,+=,,>=+==8w66-+=+++---  -000:33333333333333333333333333",
"333333333333333333333333  =,,,,=+  0w6600+==+777 <6000:;;;;;;;;;;;;;;333333333333",
"33333333333333333333333 ==,,,,==+  :066000+++7rr# 6000:33333333333333333333333333",
"333333333333333333333333    =====++ :6600000+7rr< 6www:::333333333333333333333333",
"333333333333333333333333    =====++ :6600000+7rr< 6www:::333333333333333333333333",
"33333333333333333333333 3333  ===+++   0000000rr110www0::333333333333333333333333",
";;;;;;;;;;;;;;;;;;;;;;;;;;;;  =====++66600000000wwwwww6::333333333333333333333333",
"333333222222222222222222333   =====++666000000000wwww0:33333333333333333333333333",
"333333333333333333333333333   =====++666000000000wwww0:33333333333333333333333333",
"333333333333333333333333333333  ====+++660000000000006 33333333333333333333333333",
"33333333333333333333333333333333 ===+++666000000006:: 333333333333333333333333333",
"333333333333333333333333333333333      ::6666666::   3333333333333333333333333333",
"33333333333333333333333333333333333 ...  @@@@@@@@ 3333333333333333333333333333333",
"33333333333333333333333333333333333 ...  @@@@@@@@ ;;;;;;;;;;;;;;;;;;;;;;;;;;;;;;;",
"33333333333333333333333333333333333.oooooo&&4 @@@&3333333333333333333333333333333",
"333333333333333333333333333333333  o%%%%$ooo.4&&4&3333333333333333333333333333333",
"333333333333333333333333333333333  $%%%%$$..e...o. 333333333333333333333333333333",
"333333;;;333333333333333333333333  $%%%%$$..e...o. 333333333333333333333333333333",
"333333333;;;;;;;;;3333;;;;;;3333 ..o$ooo .eeo%ee%o 333333333333333333333333333333",
"333333333333333333;;;;3333333333 ..o$ooo &eeoeee%$ 333333333333333333333333333333",
"33333333333333333333333333333333 ..o$oo. &eeo%ee%% 333333333333333333333333333333",
"33333333333333333333333333333333-    .. -4eeo%ee%o ;;;;;3333333333333333333333333",
"33333333333333333333333333333333-    .. -4eeo%ee%o 333333333333333333333333333333",
"33333333333333333333333333333333-::66   -4eeo%ee% 3333333333333333333333333333333",
"333333333333333333333333333333333--6000--4ee$eeee 3333333333333333333333333333333",
"333333333333333333333333333333333--600006-eeo%$$o 3333333333333333333333333333333",
"33;333333333333333333333333333333--600006-eeo%$$o 3333333333333333333333333333333",
"333;;;;;;;;;;;;;;;;;;;;;;;;;;3333--600066-        3333333333333333333333333333333",
"33333333333333333333333333333333333X6000w:--$%%%$ ;;;;;;;;;;;;;;;;;;;;;3333333333",
"33333333333333333333333333333333333X666w0:--o$$$. 333333333333333333333;;;;;;;;;;",
"33333333333333333333333333333;;;;;; 66606:eeo$$$. 3333333333333333333333333333333",
"33333333333333333333333333333333333 66606:eeo$$$. 3333333333333333333333333333333",
"33333333333333333333333333333333333  66-6 eeo...o 3333333333333333333333333333333",
"333333333333333333333333333333333333      ee. ..o 3333333333333333333333333333333",
"333333333333333333333333333333333333              3333333333333333333333333333333",
"333333333333333333333333333333333333              3333333333333333333333333333333",
"333333333333333333333333333333333333-::66www0-::--3333333333333333333333333333333",
"333333333333333333333333333333333333-::00www0-::--3333333333333333333333333333333",
"3333333333333333333333333333333333333  ooo... oo 33333333333333333333333333333333",
"3333333333333333333333333333333333333..oo.... ...33333333333333333333333333333333",
"3333333333333333333333333333333333333..oo.... ...33333333333333333333333333333333",
"333333;;33333333333;;;;33333333333333        .   33333333333333333333333333333333",
"33333333;;;;;;;;;;;333333333333333333--:0www-:::-;;;;;;;;;;;;;;;;3333333333333333",
"3333333333333333333333333333333333333    www     3333333333333333;;;;333333333333",
"3333333333333333333333333333333333333    www     33333333333333333333;;;;;;;33333",
"3333333333333333333333333333333333333  *q    q*** 33333333333333333333333333;;;;;",
"3333333333333333333333333333333;;;;;;  q*q** *qqq 3333333333333333333333333333333",
"3333333333333333333333333333333333333  *qqqq      3333333333333333333333333333333",
";;;;;;;;;;;;;;;;;;;;3333333333333333333     3333333333333333333333333333333333333",
"33333333333333333333;;;;333333333333333     3333333333333333333333333333333333333",
"333333333333333333333333333333333333333333333333333333333333333333333333333333333"
};
