/* XPM */
static char *_7624d987f0b4395bba1193008005e31G7pwvcSyWRHjqKIn[] = {
/* columns rows colors chars-per-pixel */
"81 81 25 1 ",
"  c black",
". c #161419",
"X c #18161A",
"o c #1F1D20",
"O c #5B290E",
"+ c #413C40",
"@ c #49474C",
"# c #833504",
"$ c #BF3F32",
"% c #954009",
"& c #964B1F",
"* c #B77E1C",
"= c #B36739",
"- c #C95D1C",
"; c #C66427",
": c #C28315",
"> c #D18D17",
", c #ED8232",
"< c #F68D4B",
"1 c #EA9777",
"2 c #F4AD83",
"3 c #F9C19D",
"4 c #C0D3D2",
"5 c #FBDCC8",
"6 c #E1E1E3",
/* pixels */
">>>>>>>>>>>>>>>>>>>>>>>>>>>>>>>>>>>>>>>>>>>>>>>>>>>>>>>>>>>>>>>>>>>>>>>>>>>>>>>>>",
">>>>>>>>>>>>>>>>>>>>>>>>>>>>>>>>>>>>>>>>>>>>>>>>>>>>>>>>>>>>>>>>>>>>>>>>>>>>>>>>>",
">>>********************************>>>>>>>>>>>>>>>>>>>>>>>>>>>>>>>>>>>>>>>>>>>>>>",
"***>>>>>>>>>>>>>>>>>>>>>>>>>>>>>>>>>>>>>>>>>O>>>>>>>>>>>>>>>>>>>***********>>>>>>",
">>>>>>>>>>>>>>>>>>>>>>>>>>>>>>>>>>>>O>>>>>>>>O>>>>>>>>>>>>>>>>>>>>>>>>>>>>>******",
">>>>>>>>>>>>>>>>>>>>>>>>>>>>>>>>>>>>>OOOO>>>>>OO>>>>>>>>>>>>>>>>>>>>>>>>>>>>>>>>>",
">>>>>>>>>>>>>>>>>>>>>>>>>>>>>>>>>>>>>OO%%OOO>>OOO>>>>O>>>>>>>>>>>>>>>>>>>>>>>>>>>",
"*************************************OO%%OOO**OOO::::O:>>>>>>>>>>>>>>>>>>>>>>>>>>",
">>>>:::::::::::::::::::::::::::::::OOOOO%%%%O:OOO>>>>O>>>>>>>>>>>>>>>>>>>>>>>>>>>",
">>>>>>>>>>>>>>>>>>>>>>>O>>>>>>>OO%%%%%%%O%%%%O%%O>>OOO>>>>>>>>>>>>>>>>>>>>>>>>>>>",
">>>>>>>>>>>>>>>>>>>>>>>OOOO>OOO%%%%----%%----%%%OOO%%O>>>>>>>>>>>>>>>>>>>>>>>>>>>",
">>>>>>>>>>>>>>>>>>>>>>>OOOO>OOO%%%%----%%----%%%OOO%%O>>>>>>>>>>>>>>>>>>>>>>>>>>>",
"**********************O%%%%O%%%--OO-------------%%%%%O>>>>>>>>>>>>>>>>>>>>>>>>>>>",
">>>>>>>>>>>>>>>>>>>>>>O%---------OOO------------OO%OO%OOO>>>>>>>>>>>>>>>>>>>>>>>>",
">>>>>>>>>>>>>>>>>>>>>>>O%%%------OO%OOOOOOOO--OO<2OOO-%%%O>>>>>>>>>>>>>>>>>>>>>>>",
">>>>>>>>>>>>>>>>>>>>>>>>OOO%-------O%%%<2<--%-%%--%OO----%OO>>>>>>>>>>>>>>>>>>>>>",
">>>>>>>>>>>>>>>>>>>>>>>>OOO%-------O%%%<2<--%-%%--%OO----%OO*********************",
">>>>>>>>>>>>>**************O%%------OOO%%%%%O-OO%%O----OO%O>>>>>>>>>>>>>>>>>>>>>>",
">>>>>>>>*****>>>>>>OO>>>>>O%--<<<------OOOOO----OO-OO%-%%O>>>>>>>>>>>>>>>>>>>>>>>",
">>>>>>>>>>>>>>>>>>>OOOOOOO%-<<<2<------------------OO%<--%%O>>>>>>>>>>>>>>>>>>>>>",
">>>>>>>>>>>>>>>>>>>OOOOOOO%-<<<2<------------------OO%<--%%O>>>>>>>>>>>>>>>>>>>>>",
">>>>>>>>>>>>>>>>>>>OO%%%%%--<<<<2<<<---------------OO%2<<--%OOOO>>>>>>>>>>>>>>>>>",
">>>>>>>>>>>>>>>>>>>>>O%%------O<2<<----<--<<<-----<OO-------%%O>>>>>>>>>>>>>>>>>>",
">>>>>>>>>>>>>>>>>>>>>O%%--OO%%%<<<<--<<<--<<2---O%222<-----%OO>>>>>>>>>>>>>>>>>>>",
">>>>>>>>>>>>>>>>>>>>>>OO%%-----<----<22<<-<<2<---O<<<<---%%O>>>>>>>>>>>>>>>>>>>>>",
">>>>>*****************OO%%-----<----<22<<-<<2<---O<<<<---%%O****>>>>>>>>>>>>>>>>>",
">>>>>>>>:::::::::>>>>>>*OOO--------<<22<--<<<-OOO-<----%%OO>>>>>*****************",
">>>>>>>>>>>>>>>>>>>>>>>O%%%--------<<---O-<<<O%%%--OO----%OO>>>>>>>>>>>>>>>>>>>>>",
">>>>>>>>>>>>>>>>>>>>>>O%%%-----------OOO%---<------%%O----%O>>>>>>>>>>>>>>>>>>>>>",
">>>>>>>>>>>>>>>>>>>>>>O%%%-----------OOO%---<------%%O----%O>>>>>>>>>>>>>>>>>>>>>",
">>>>>>>>>>>>>>>>>>>>>  %%%%%---------%%%-------------%%----%  >>>>>>>>>>>>>>>>>>>",
">>>>>>>>>>>>>>>>>>>>>>> %%%%---%----------------------%  %%%   ******>>>>>>>>>>>>",
">>>>>>>>>>>>>>>>>>>>>>>>   %%%%%----------------%------%%   >>>>>>>>>>>>>>>>>>>>>",
">>>>>>>>>>>>>>>>>>>>>>>>>> %%%%----%----------%%%--%%-%%%O >>>>>>>>>>>>>>>>>>>>>>",
">>>>>>>>>>>>>>>>>>>>>>>>>> %%%%----%----------%%%--%%-%%%O >>>>>>>>>>>>>>>>>>>>>>",
">>>>>>>>>>>>>>>>>>>>>>>>  OO%%%%O%%%---------O%%%%-%%%%     >>>>>>>>>>>>>>>>>>>>>",
"************************    OOO%%%%%---------%OO%%%  O >>>>>>>>>>>>>>>>>>>>>>>>>>",
">>>>>>::::::::::::::::: >>>>  O%%%%%%---%%%%--%%O%%%% >>>>>>>>>>>>>>>>>>>>>>>>>>>",
">>>>>>>>>>>>>>>>>>>>>>> >>>>  O%%%%%%---%%%%--%%O%%%% >>>>>>>>>>>>>>>>>>>>>>>>>>>",
">>>>>>>>>>>>>>>>>>>>>>>>>>>>   O%%%%%--%% %%%---O OOOO >>>>>>>>>>>>>>>>>>>>>>>>>>",
">>>>>>>>>>>>>>>>>>>>>>>>>>> >>> OOO%%%%%%O  %%  OO       >>>>>>>>>>>>>>>>>>>>>>>>",
">>>>>>>>>>>>>>>>>>>>>>>>>>>>>> .   OO%%%%O  O%  OO    >>>>>>>>>>>>>>>>>>>>>>>>>>>",
">>>>>>>>>>>>>>>>>>>>>>>>>>>>  .+ooo O%%OO .. O   O ++. >>>>>>>>>>>>>>>>>>>>>>>>>>",
">>>>>>>>>>>>>>>>>>>>>>>>>>>>  .+ooo O%%OO .. O   O ++. **************************",
">>>>>>>>>>>>>>>>>>>>>>>>>>>>  ++ooo. OO  ....   .  +++.  >>>>>>>>>>>>>>>>>>>>>>>>",
">>>>>>>>>>>>>>>>>>>>>>>>>>> oo++....   .......66...oo+o  >>>>>>>>>>>>>>>>>>>>>>>>",
">>>>>>>>>>>>>>>>>>>>>>>>>>> oo+. ,,6 oo+....+o..6, ..++oo >>>>>>>>>>>>>>>>>>>>>>>",
">>>>>>***>>>>>>>>>>>>>>>>>> oo+. ,,6 oo+....+o..6, ..++oo >>>>>>>>>>>>>>>>>>>>>>>",
">>>>>>>>>*********>>>>**** .++. #;;6.++6+o++6+..6;#..++oo >>>>>>>>>>>>>>>>>>>>>>>",
">>>>>>>>>>>>>>>>>>****>>>>&     #;;6+666@+66@6++6;#  .+.. >>>>>>>>>>>>>>>>>>>>>>>",
">>>>>>>>>>>>>>>>>>>>>>>>==11111 #,,6.++6@@66@6@@6,#&&    &>>>>>>>>>>>>>>>>>>>>>>>",
">>>>>>>>>>>>>>>>>>>>>>>>&&11111 #,,6o@@6@@66@6@@6,#&&1111&>>>>>>>>>>>>>>>>>>>>>>>",
">>>>>>>>>>>>>>>>>>>>>>>>&&11111 #,,6o@@6@@66@6@@6,#&&1111&>>>>>>>>>>>>>>>>>>>>>>>",
">>>>>>>>>>>>>>>>>>>>>>>>&&3311 >#,,6.++6@@66@6++6,#==1=&&&>>>>>>>>>>>>>>>>>>>>>>>",
">>>>>>>>>>>>>>>>>>>>>>>=1111  >>#;;6+6666@++6+..6;#===&  >>>>>>>>>>>>>>>>>>>>>>>>",
">>>>>>>>>>>>>>>>>>>>>>>&1131  >> ;;6.++@+o..+...6; ==& >>>>>>>>>>>>>>>>>>>>>>>>>>",
">>*>>>>>>>>>>>>>>>>>>>>&1131  >> ;;6.++@+o..+...6; ==& >>>>>>>>>>>>>>>>>>>>>>>>>>",
">>>********************&1111&& >                      >>>>>>>>>>>>>>>>>>>>>>>>>>>",
">>>>>>>>>>>>>>>>>>>>>>>&&&&&11 >#;;6+++@@@@@@+++6;#********************>>>>>>>>>>",
">>>>>>>>>>>>>>>>>>>>>>>>&&&   >>#,,6+++@++++++oo6,#>>>>>>>>>>>>>>>>>>>>**********",
">>>>>>>>>>>>>>>>>>>>>>>>>>>>>***#;;6o++++oooo...6;#>>>>>>>>>>>>>>>>>>>>>>>>>>>>>>",
">>>>>>>>>>>>>>>>>>>>>>>>>>>>>>>>#;;6o++++oooo...6;#>>>>>>>>>>>>>>>>>>>>>>>>>>>>>>",
">>>>>>>>>>>>>>>>>>>>>>>>>>>>>>>>#,,6...oo....ooo6;#>>>>>>>>>>>>>>>>>>>>>>>>>>>>>>",
">>>>>>>>>>>>>>>>>>>>>>>>>>>>>>>>            .ooo6,#>>>>>>>>>>>>>>>>>>>>>>>>>>>>>>",
">>>>>>>>>>>>>>>>>>>>>>>>>>>>>>>>&1111===&>         >>>>>>>>>>>>>>>>>>>>>>>>>>>>>>",
">>>>>>>>>>>>>>>>>>>>>>>>>>>>>>>>&1111===&>         >>>>>>>>>>>>>>>>>>>>>>>>>>>>>>",
">>>>>>>>>>>>>>>>>>>>>>>>>>>>>>>> ..oo... >&&135551&>>>>>>>>>>>>>>>>>>>>>>>>>>>>>>",
">>>>>>>>>>>>>>>>>>>>>>>>>>>>>>>>         >   XoooX >>>>>>>>>>>>>>>>>>>>>>>>>>>>>>",
">>>>>>>>>>>>>>>>>>>>>>>>>>>>>>>>&===1===&>  ..ooo..>>>>>>>>>>>>>>>>>>>>>>>>>>>>>>",
">>>>>>>>>>>>>>>>>>>>>>>>>>>>>>>>>      =&>        >>>>>>>>>>>>>>>>>>>>>>>>>>>>>>>",
">>>>>>>>>>>>>>>>>>>>>>>>>>>>>>>>>      =&>        >>>>>>>>>>>>>>>>>>>>>>>>>>>>>>>",
">>>>>>**>>>>>>>>>>>****>>>>>>>>>>       >&===1===&>>>>>>>>>>>>>>>>>>>>>>>>>>>>>>>",
">>>>>>>>***********>>>>>>>>>>>>>>>>     >&11      ***************>>>>>>>>>>>>>>>>",
">>>>>>>>>>>>>>>>>>>>>>>>>>>>>>>>>>>>   >>   4444$ >>>>>>>>>>>>>>>****>>>>>>>>>>>>",
">>>>>>>>>>>>>>>>>>>>>>>>>>>>>>>>>>>>   >>   4444$ >>>>>>>>>>>>>>>>>>>*******>>>>>",
">>>>>>>>>>>>>>>>>>>>>>>>>>>>>>>>>>>>>>>** $$4$44$ >>>>>>>>>>>>>>>>>>>>>>>>>>*****",
">>>>>>>>>>>>>>>>>>>>>>>>>>>>>>>********>>         >>>>>>>>>>>>>>>>>>>>>>>>>>>>>>>",
">>>>>>>>>>>>>>>>>>>>>>>>>>>>>>>>>>>>>>>>>         >>>>>>>>>>>>>>>>>>>>>>>>>>>>>>>",
"********************>>>>>>>>>>>>>>>>>>>>>>>>>>>>>>>>>>>>>>>>>>>>>>>>>>>>>>>>>>>>>",
">>>>>>>>>>>>>>>>>>>>****>>>>>>>>>>>>>>>>>>>>>>>>>>>>>>>>>>>>>>>>>>>>>>>>>>>>>>>>>",
">>>>>>>>>>>>>>>>>>>>>>>>>>>>>>>>>>>>>>>>>>>>>>>>>>>>>>>>>>>>>>>>>>>>>>>>>>>>>>>>>"
};
