/* XPM */
static char *_de13eda3eb347a3b140da9248ad21daiXgf4db7HLEKI6Ks[] = {
/* columns rows colors chars-per-pixel */
"81 81 31 1 ",
"  c None",
". c #5B290E",
"X c #954009",
"o c #C95D1C",
"O c #F68D4B",
"+ c #F4AD83",
"@ c #FBDCC8",
"# c #F9C19D",
"$ c black",
"% c #964B1F",
"& c #EA9777",
"* c #B36739",
"= c #AFA992",
"- c #9E7353",
"; c #585549",
": c white",
"> c #573A28",
", c #A47B67",
"< c #1F1D20",
"1 c #413C40",
"2 c #161419",
"3 c #49474C",
"4 c #ED8232",
"5 c #4B2510",
"6 c #833504",
"7 c #E1E1E3",
"8 c #C66427",
"9 c #010102",
"0 c #18161A",
"q c #C0D3D2",
"w c #BF3F32",
/* pixels */
"                                                                                 ",
"                                                                                 ",
"                                                                                 ",
"                                                                                 ",
"                                       .                                         ",
"                                     ...                                         ",
"                                    .XXX.         .                              ",
"                                    .XXX.         .                              ",
"                           .        .XXXX.    ..  .                              ",
"                           ....     .ooXXX....XX..X..                            ",
"                           .XXX.....oOOOOOOOOX..o.oXX. ..                        ",
"                           .XXX.....oOOOOOOOOX..o.oXX. ..                        ",
"                            ..XoO++++OOOO++++OXX.OOooX.                          ",
"                      ..... ..o+O+++OOOXXOOO++OOO+OooX.                          ",
"                       .XXX.XXXooXXXXXXOO+OOOOOOOO+OOo.                          ",
"                       .XXXoOOoXXXXOOOO+++++OXooOOO++Oo... .                     ",
"                       .XXXoOOoXXXXOOOO+++++OXooOOO++Oo... .                     ",
"                        ..oOOO+OOXXXXXXO++OOOoXXoOO++++OOo..                     ",
"                        ...oOO++OOOooXXXOOOOOOXXXoOOOO+OOOX.                     ",
"                           .OOOo+OOOooooOO..o.XXXXoooOOOOX.                      ",
"                           .OOOo+OOOooooOO..o.XXXXoooOOOOX.                      ",
"                          .oooXoOOOoX..XoOXX.XooX.XoooOoooX.                     ",
"                        ..ooXXooOooX...XooXX.X..X.XooooooooX...                  ",
"                   .....oooXoooooXX.@@@.ooXX.X..XX.XXooooXXX..                   ",
"                     .XXoooXoooooXX.@@@.Xo..@......XX.oXX...                     ",
"                     .XXoooXoooooXX.@@@.Xo..@......XX.oXX...                     ",
"                     .XoooXooooXX..@@@@@.X..@@@@@#...XoooX$                      ",
"                      .XooooooX..%%%%&&@@...@&%%%%*...XoooX$                     ",
"                       .XX$oXX.&#####&&&#@..&&#####&&*.XXooX$$                   ",
"                       .XX$oXX.&#####&&&#@..&&#####&&*.XXooX$$                   ",
"                        $$oo...&%%%%%%%&####&%%%%%%&&*.XXoX$                     ",
"                       $XXXo..*%%$$$$%%*####*%$$$$%%%*%..X$                      ",
"                        $$XX..*==--;$$$*####*$--;$===*%..X$                      ",
"                          $X..*=:>>$>==&####&=>>$>:==*%..$                       ",
"                          $X..*=:>>$>==&####&=>>$>:==*%..$                       ",
"                           $$$*=:--$-::&@#@@&:--$-:==*$$$                        ",
"                            $$*&:,,,,::#@@@@#:,,,,:&&*$                          ",
"                              $&&###@@@@@&@@@@@@##&&&$                           ",
"                              $&&###@@@@@&@@@@@@##&&&$                           ",
"                              $*&####@@@@&@@@@####&**$                           ",
"                               $*&&##############&*$$                            ",
"                              $$$$$*&#########&&%$$$$$                           ",
"                            $$<1<22$$***&&&&**$$$2<11<$                          ",
"                            $$<1<22$$***&&&&**$$$2<11<$                          ",
"                           $3331<<<44$$555555$444<<333<$$                        ",
"                           $333<<<<224464@4464222<<3331<<$                       ",
"                          $<33322<<27222666622772<23331<<$                       ",
"                          $<33322<<27222666622772<23331<<$                       ",
"                          *$333<$4472<<122221<2274$$$<1$$$$                      ",
"                          *#$$<$688721171<117122786$$$$&&*%                      ",
"                          %###$$6887177731773711786  $&&&&&%                     ",
"                          %&&&&%6447211733773733746  $&&&&&%                     ",
"                          %&&&&%6447211733773733746  $&&&&&%                     ",
"                          %%&&##&%%7<33733773733746   $&&##%                     ",
"                           $%%&@@&&%211733773711746    $$&##%%                   ",
"                            $$&@@&&&%77773117122786    $$&##%%                   ",
"                            $$&@@&&&%77773117122786    $$&##%%                   ",
"                              $*&&&%%1131<22122278$   $&&&&&%%                   ",
"                               $$$$$$$$$$$$$$$$$$$$   $&&%#%%%                   ",
"                                68872<<133331<22786    $$$%%%%                   ",
"                                6447<<<<1311<<<<746      $$$                     ",
"                                6447<<<<1311<<<<746      $$$                     ",
"                                6887<11<2$2221<<746                              ",
"                                $$$$$$$$$$$$21<<786                              ",
"                                %&&#****% $$$$$$$$$                              ",
"                                %&&#****% $$$$$$$$$                              ",
"                               @%&&@@##*% %%&#@@@&%                              ",
"                                $22<<222$ %%&#@@@&%                              ",
"                                $$$$$$$$$ 990<<<09                               ",
"                                 %%&@@@&%$222<<<22                               ",
"                                 %%&@@@&%$222<<<22                               ",
"                                   $$$$$$$$$$$$$$$                               ",
"                                   $qqqw$%&&@@@@&%                               ",
"                                    $$$$ $$$@@@@$$                               ",
"                                    $$$$ $$$@@@@$$                               ",
"                                         $ww$$$$w$                               ",
"                                         $qqwwwwq$                               ",
"                                         $qq$$$$q$                               ",
"                                          $$$$$$$                                ",
"                                          $$$$$$$                                ",
"                                                                                 "
};
