/* XPM */
static char *_6d2faa764c64ca0a36fdd705c753a290VpyLSfHLwol7qV5[] = {
/* columns rows colors chars-per-pixel */
"81 81 33 1 ",
"  c black",
". c #161419",
"X c #1F1D20",
"o c #490E07",
"O c #5B290E",
"+ c #4B2510",
"@ c #573A28",
"# c #413C40",
"$ c #49474C",
"% c #833504",
"& c #BF3F32",
"* c #954009",
"= c #964B1F",
"- c #B77E1C",
"; c #B36739",
": c #C7591A",
"> c #C95D1C",
", c #C66427",
"< c #9E7353",
"1 c #A47B67",
"2 c #C28315",
"3 c #D18D17",
"4 c #ED8232",
"5 c #F68D4B",
"6 c #EA9777",
"7 c #AFA992",
"8 c #DEAD9D",
"9 c #F4AD83",
"0 c #F9C19D",
"q c #C0D3D2",
"w c #FBDCC8",
"e c #E1E1E3",
"r c white",
/* pixels */
"333333333333333333333333333333333333333333333333333333333333333333333333333333333",
"333333333333333333333333333333333333333333333333333333333333333333333333333333333",
"333--------------------------------3333333333333333333333333333333333333333333333",
"---3333333333333333333333333333333333333333333333333333333333333-----------333333",
"333333333333333333333333333333333333333333333333333333333333333333333333333------",
"333333333333333333333333333333333333333333333333333333333333333333333333333333333",
"333333333333333333333333333333333333333333333333333333333333333333333333333333333",
"------------------------------------------------222222233333333333333333333333333",
"3333222222222222222222222222222222222222222222OO333333333333333333333333333333333",
"33333333333333333333333333333333333O3333333333OOO33333333333333333333333333333333",
"333333333333333333333333333333333OOO333333333O**O33333333333333333333333333333333",
"333333333333333333333333333333333OOO333333333O**O33333333333333333333333333333333",
"-----------------------------333O**O3OOOOOOOO****O3333OOO333333333333333333333333",
"33333333333333333333333333333333O***O********>**OOOOOO*OO333333333333333333333333",
"333333333333333333333333333OOOOO*******5599955>>******O33333333333333333333333333",
"333333333333333333333333333333O**OO*55555999959955>55O3333O3333333333333333333333",
"333333333333333333333333333333O**OO*55555999959955>55O3333O----------------------",
"3333333333333---------------OO*>***5599*>55555999*O>>OOOOOO3333333333333333333333",
"33333333-----33333333333333O**>59995***>55**>5555*O>>5O**O33333333333333333333333",
"3333333333333333333333O333O*>>55955*5995**>>55559>***>OOO333333333333333333333333",
"3333333333333333333333O333O*>>55955*5995**>>55559>***>OOO333333333333333333333333",
"3333333333333333333333OOOO**>>*5********>5555*>>>O*>>9>OO333333333333333333333333",
"33333333333333333333333O**>>>>O59555555559995>OO*>O**>5OO333333333333333333333333",
"333333333333333333333333**O>>>O55>>*>55*59555>**O*O***>>>O33333333333333333333333",
"333333333333333333333333OO*>>>>>>>>O>>>O>555>>**OOwOO****O33333333333333333333333",
"33333-------------------OO*>>>>>>>>O>>>O>555>>**OOwOO****O------33333333333333333",
"333333332222222223O3333O**>>>>>>>**O>>>O>>>>>O**OwwwwOOOOOO33333-----------------",
"333333333333333333OOOOO*>>>>>>>>*OO>>>>**O>>*OOO==60000;;3O3333333333333333333333",
"3333333333333333333OOO*>>>>>OO>>O**O===O*O**O0000660006;;333333333333333333333333",
"3333333333333333333OOO*>>>>>OO>>O**O===O*O**O0000660006;;333333333333333333333333",
"3333333333333333333333O>>>>O**>****o6;;=O***O======000;33333333333333333333333333",
"33333333333333333333333O>>O*>>:*O**8w66=O*OOO===  =000;--------------333333333333",
"333333333333333333333333  *>>>>*O  0w6600O**O777 <6000;33333333333333333333333333",
"33333333333333333333333 **>>>>**O  ;066000OOO7rr@ 6000;33333333333333333333333333",
"33333333333333333333333 **>>>>**O  ;066000OOO7rr@ 6000;33333333333333333333333333",
"333333333333333333333333    *****OO ;6600000O7rr< 6www;;;333333333333333333333333",
"----------------------- ----  ***OOO   0000000rr110www0;;333333333333333333333333",
"3333332222222222222222223333  *****OO66600000000wwwwww6;;333333333333333333333333",
"3333333333333333333333333333  *****OO66600000000wwwwww6;;333333333333333333333333",
"333333333333333333333333333   *****OO666000000000wwww0;33333333333333333333333333",
"333333333333333333333333333333  ****OOO660000000000006 33333333333333333333333333",
"33333333333333333333333333333333 ***OOO666000000006;; 333333333333333333333333333",
"333333333333333333333333333333333      ;;6666666;;   3333333333333333333333333333",
"333333333333333333333333333333333      ;;6666666;;   ----------------------------",
"33333333333333333333333333333333333 ...  ++++++++ 3333333333333333333333333333333",
"33333333333333333333333333333333333 XXXXXX%%4 +++%3333333333333333333333333333333",
"333333333333333333333333333333333  X#$$$#XXX.4%%4%3333333333333333333333333333333",
"333333---333333333333333333333333  X#$$$#XXX.4%%4%3333333333333333333333333333333",
"333333333---------3333------33333  $$###....e...X. 333333333333333333333333333333",
"333333333333333333----3333333333 XX##XX.  eeX$ee$X 333333333333333333333333333333",
"33333333333333333333333333333333 ..XX..  %eeXeee$# 333333333333333333333333333333",
"33333333333333333333333333333333=      ;==eeX$ee$$ -----3333333333333333333333333",
"33333333333333333333333333333333=      ;==eeX$ee$$ 333333333333333333333333333333",
"33333333333333333333333333333333=;;666606=====ee$X 333333333333333333333333333333",
"33333333333333333333333333333333===;;66066000w;;$ 3333333333333333333333333333333",
"333333333333333333333333333333333==;=;;666www0;;e 3333333333333333333333333333333",
"33-333333333333333333333333333333==;=;;666www0;;e 3333333333333333333333333333333",
"333--------------------------333333 .  ==60006;;X 3333333333333333333333333333333",
"33333333333333333333333333333333333 Xee4, 66=6    ---------------------3333333333",
"33333333333333333333333333333333333 .ee%4e    ##X 333333333333333333333----------",
"33333333333333333333333333333------ e%%%,e##$$##X 3333333333333333333333333333333",
"33333333333333333333333333333333333 e%%%,e##$$##X 3333333333333333333333333333333",
"33333333333333333333333333333333333 e,,%e.####XX. 3333333333333333333333333333333",
"33333333333333333333333333333333333 e44,e ..XX..X 3333333333333333333333333333333",
"33333333333333333333333333333333333    4eX  ..XXX  333333333333333333333333333333",
"33333333333333333333333333333333333    4eX  ..XXX  333333333333333333333333333333",
"33333333333333333333333333333333333=;66  X  .X   ;=333333333333333333333333333333",
"33333333333333333333333333333333333=666w6     ;;;; 333333333333333333333333333333",
"333333333333333333333333333333333  .XXXw0;333===;XX  3333333333333333333333333333",
"333333333333333333333333333333333   ...X =3333  X..  3333333333333333333333333333",
"333333333333333333333333333333333   ...X =3333  X..  3333333333333333333333333333",
"333333--33333333333----333333333 ==6   ..33333  .    3333333333333333333333333333",
"33333333-----------333333333333 q  0www  3333-==6;=  ------------3333333333333333",
"3333333333333333333333333333333 &    66=33333   ;     33333333333----333333333333",
"3333333333333333333333333333333 &    66=3333-   ;     333333333333333-------33333",
"3333333333333333333333333333333 qqq&q  -----3 qq &q&& 3333333333333333333333-----",
"3333333333333333333333333333333- &&qqqq 333333  &q&qq 333333333333333333333333333",
"333333333333333333333333333333333  &q&& 33333333     3333333333333333333333333333",
"--------------------333333333333333    333333333333333333333333333333333333333333",
"33333333333333333333----33333333333    333333333333333333333333333333333333333333",
"333333333333333333333333333333333333333333333333333333333333333333333333333333333"
};
