/* XPM */
static char *b31638a112cf441dd53efd74ff7ebc70tWAukxEiGi99Qff4[] = {
/* columns rows colors chars-per-pixel */
"81 81 31 1 ",
"  c None",
". c #5B290E",
"X c #954009",
"o c #C95D1C",
"O c #F68D4B",
"+ c #F4AD83",
"@ c #FBDCC8",
"# c #B36739",
"$ c #F9C19D",
"% c #EA9777",
"& c #964B1F",
"* c #490E07",
"= c black",
"- c #DEAD9D",
"; c #C7591A",
": c #9E7353",
"> c #AFA992",
", c #573A28",
"< c white",
"1 c #A47B67",
"2 c #4B2510",
"3 c #161419",
"4 c #833504",
"5 c #ED8232",
"6 c #1F1D20",
"7 c #413C40",
"8 c #49474C",
"9 c #E1E1E3",
"0 c #201D1A",
"q c #BF3F32",
"w c #C0D3D2",
/* pixels */
"                                                                                 ",
"                                                                                 ",
"                                                                                 ",
"                                                                                 ",
"                                                                                 ",
"                                                                                 ",
"                                     ..                                          ",
"                                     ..                                          ",
"                                    ...          .                               ",
"                                    .XX.         ..                              ",
"                            ...    .XXXX........ .X..                            ",
"                            ...    .XXXX........ .X..                            ",
"                            ..X......XXoXXXXXXXX.XX..                            ",
"                              .XXXXXXooOO+++OOXXXXXXX.....                       ",
"                          .    .OooOO++O++++OOOOOX.XXX.                          ",
"                          ......o..X+++OOOOOoX++OOXXXoX..                        ",
"                          ......o..X+++OOOOOoX++OOXXXoX..                        ",
"                           .XX.Oo..XOOOOoXOOOoXXXO+++OoXX.                       ",
"                            ...oXXXo+OOOOoXXXO++OXO++OOooX.   .                  ",
"                            ..o+oXX.oooXOOOOoXXXXXXXXOXooXX....                  ",
"                            ..o+oXX.oooXOOOOoXXXXXXXXOXooXX....                  ",
"                            ..OoX..oX..oO+++OOOOOOO++O.ooooX..                   ",
"                           .oooXX..X.XXoOO++OXOOoXoOOO.ooo.X                     ",
"                           .XXXX.@@..XXooOOOo.ooo.ooooooooX.                     ",
"                          ......@@@@.XX.ooooo.ooo.XooooooooX..    .              ",
"                          ......@@@@.XX.ooooo.ooo.XooooooooX..    .              ",
"                          . ##$$$%%&&...Xo..XXoooo.XXoooooooXX.....              ",
"                            ##%$$%%%$$$$.X..X.&&&.X..oo..oooooX...               ",
"                              #$$&&&&&&&.XXX.&##%*XXXXoXX.oooo.                  ",
"                              #$$&&&&&&&.XXX.&##%*XXXXoXX.oooo.                  ",
"                              #$$&&==&&&..XX.&%%@-X..X;ooX.o..                   ",
"                              #$$%%:=>>>.X..$$%%@$=..XooooX=                     ",
"                              #$$%%=,<<>..$$$$%%$#=..XXooooX==                   ",
"                            ###@@%%=:<<>.$$$$$%%#=.XXXXXX===                     ",
"                            ###@@%%=:<<>.$$$$$%%#=.XXXXXX===                     ",
"                            ##$@@$$11<<$$$$$$$===..XXXX==   ==                   ",
"                            ##%@@@@@@$$$$$$$$%%%..XXXXX==                        ",
"                              #$@@@@$$$$$$$$$%%%..XXXXX===                       ",
"                              #$@@@@$$$$$$$$$%%%..XXXXX===                       ",
"                              =%$$$$$$$$$$$$%%...XXXX==                          ",
"                               =#%%$$$$$$$%%%%...XX==                            ",
"                                ===##%%%%%%%##=====                              ",
"                                   =22222222==333=                               ",
"                                   =22222222==333=                               ",
"                                   4222=5466666663                               ",
"                                   454453666788886=                              ",
"                                 ==363339377788887=                              ",
"                                 ==363339377788887=                              ",
"                                 ==689986933=666763==                            ",
"                                 ==798896944=666763==                            ",
"                                 ==898896944=366763==                            ",
"                                 ==698896955&=33===&&                            ",
"                                 ==698896955&=33===&&                            ",
"                                   =98896955&===%%#&&                            ",
"                                   =79987955&&$$$%&                              ",
"                                   =677869&&%$$$$%&                              ",
"                                   =677869&&%$$$$%&                              ",
"                                   =======&&%%$$$%&                              ",
"                                   =78887&##@$$$%0                               ",
"                                   =37776&##$@%%%0                               ",
"                                   =377769##%$%%%=                               ",
"                                   =377769##%$%%%=                               ",
"                                   =633369==%&%%==                               ",
"                                   =633=39=======                                ",
"                                   ==============                                ",
"                                   ==============                                ",
"                                   &&##&$@@@%%##&                                ",
"                                   &&##&$@@@$$##&                                ",
"                                    =66=336666==                                 ",
"                                    333=33336633                                 ",
"                                    333=33336633                                 ",
"                                    ===3========                                 ",
"                                    &###&@@@$#&&                                 ",
"                                    =====@@@====                                 ",
"                                    =====@@@====                                 ",
"                                   =qqqw====wq==                                 ",
"                                   =wwwq=qwwqw==                                 ",
"                                   ======wwwwq==                                 ",
"                                         =====                                   ",
"                                         =====                                   ",
"                                                                                 "
};
