/* XPM */
static char *_a8704321e324506d98b979fc52e6a0cIeoUS1SvcRSCCLiT[] = {
/* columns rows colors chars-per-pixel */
"81 81 25 1 ",
"  c black",
". c #161419",
"X c #18161A",
"o c #1F1D20",
"O c #5B290E",
"+ c #413C40",
"@ c #49474C",
"# c #833504",
"$ c #BF3F32",
"% c #954009",
"& c #964B1F",
"* c #B77E1C",
"= c #B36739",
"- c #C95D1C",
"; c #C66427",
": c #C28315",
"> c #D18D17",
", c #ED8232",
"< c #F68D4B",
"1 c #EA9777",
"2 c #F4AD83",
"3 c #F9C19D",
"4 c #C0D3D2",
"5 c #FBDCC8",
"6 c #E1E1E3",
/* pixels */
">>>>>>>>>>>>>>>>>>>>>>>>>>>>>>>>>>>>>>>>>>>>>>>>>>>>>>>>>>>>>>>>>>>>>>>>>>>>>>>>>",
">>>>>>>>>>>>>>>>>>>>>>>>>>>>>>>>>>>>>>>>>>>>>>>>>>>>>>>>>>>>>>>>>>>>>>>>>>>>>>>>>",
">>>********************************>>>>>>>>>>>>>>>>>>>>>>>>>>>>>>>>>>>>>>>>>>>>>>",
"***>>>>>>>>>>>>>>>>>>>>>>>>>>>>>>>>>>>>>>>>>O>>>>>>>>>>>>>>>>>>>***********>>>>>>",
">>>>>>>>>>>>>>>>>>>>>>>>>>>>>>>>>>>>O>>>>>>>>O>>>>>>>>>>>>>>>>>>>>>>>>>>>>>******",
">>>>>>>>>>>>>>>>>>>>>>>>>>>>>>>>>>>>>OOOO>>>>>OO>>>>>>>>>>>>>>>>>>>>>>>>>>>>>>>>>",
">>>>>>>>>>>>>>>>>>>>>>>>>>>>>>>>>>>>>OO%%OOO>>OOO>>>>O>>>>>>>>>>>>>>>>>>>>>>>>>>>",
"*************************************OO%%OOO**OOO::::O:>>>>>>>>>>>>>>>>>>>>>>>>>>",
">>>>:::::::::::::::::::::::::::::::OOOOO%%%%O:OOO>>>>O>>>>>>>>>>>>>>>>>>>>>>>>>>>",
">>>>>>>>>>>>>>>>>>>>>>>O>>>>>>>OO%%%%%%%O%%%%O%%O>>OOO>>>>>>>>>>>>>>>>>>>>>>>>>>>",
">>>>>>>>>>>>>>>>>>>>>>>OOOO>OOO%%%%----%%----%%%OOO%%O>>>>>>>>>>>>>>>>>>>>>>>>>>>",
">>>>>>>>>>>>>>>>>>>>>>>OOOO>OOO%%%%----%%----%%%OOO%%O>>>>>>>>>>>>>>>>>>>>>>>>>>>",
"**********************O%%%%O%%%--OO-------------%%%%%O>>>>>>>>>>>>>>>>>>>>>>>>>>>",
">>>>>>>>>>>>>>>>>>>>>>O%---------OOO------------OO%OO%OOO>>>>>>>>>>>>>>>>>>>>>>>>",
">>>>>>>>>>>>>>>>>>>>>>>O%%%------OO%OOOOOOOO--OO<2OOO-%%%O>>>>>>>>>>>>>>>>>>>>>>>",
">>>>>>>>>>>>>>>>>>>>>>>>OOO%-------O%%%<2<--%-%%--%OO----%OO>>>>>>>>>>>>>>>>>>>>>",
">>>>>>>>>>>>>>>>>>>>>>>>OOO%-------O%%%<2<--%-%%--%OO----%OO*********************",
">>>>>>>>>>>>>**************O%%------OOO%%%%%O-OO%%O----OO%O>>>>>>>>>>>>>>>>>>>>>>",
">>>>>>>>*****>>>>>>OO>>>>>O%--<<<------OOOOO----OO-OO%-%%O>>>>>>>>>>>>>>>>>>>>>>>",
">>>>>>>>>>>>>>>>>>>OOOOOOO%-<<<2<------------------OO%<--%%O>>>>>>>>>>>>>>>>>>>>>",
">>>>>>>>>>>>>>>>>>>OOOOOOO%-<<<2<------------------OO%<--%%O>>>>>>>>>>>>>>>>>>>>>",
">>>>>>>>>>>>>>>>>>>OO%%%%%--<<<<2<<<---------------OO%2<<--%OOOO>>>>>>>>>>>>>>>>>",
">>>>>>>>>>>>>>>>>>>>>O%%------O<2<<----<--<<<-----<OO-------%%O>>>>>>>>>>>>>>>>>>",
">>>>>>>>>>>>>>>>>>>>>O%%--OO%%%<<<<--<<<--<<2---O%222<-----%OO>>>>>>>>>>>>>>>>>>>",
">>>>>>>>>>>>>>>>>>>>>>OO%%-----<----<22<<-<<2<---O<<<<---%%O>>>>>>>>>>>>>>>>>>>>>",
">>>>>*****************OO%%-----<----<22<<-<<2<---O<<<<---%%O****>>>>>>>>>>>>>>>>>",
">>>>>>>>:::::::::>>>>>>*OOO--------<<22<--<<<-OOO-<----%%OO>>>>>*****************",
">>>>>>>>>>>>>>>>>>>>>>>O%%%--------<<---O-<<<O%%%--OO----%OO>>>>>>>>>>>>>>>>>>>>>",
">>>>>>>>>>>>>>>>>>>>>>O%%%-----------OOO%---<------%%O----%O>>>>>>>>>>>>>>>>>>>>>",
">>>>>>>>>>>>>>>>>>>>>>O%%%-----------OOO%---<------%%O----%O>>>>>>>>>>>>>>>>>>>>>",
">>>>>>>>>>>>>>>>>>>>>  %%%%%---------%%%-------------%%----%  >>>>>>>>>>>>>>>>>>>",
">>>>>>>>>>>>>>>>>>>>>>> %%%%---%----------------------%  %%%   ******>>>>>>>>>>>>",
">>>>>>>>>>>>>>>>>>>>>>>>   %%%%%----------------%------%%   >>>>>>>>>>>>>>>>>>>>>",
">>>>>>>>>>>>>>>>>>>>>>>>>> %%%%----%----------%%%--%%-%%%O >>>>>>>>>>>>>>>>>>>>>>",
">>>>>>>>>>>>>>>>>>>>>>>>>> %%%%----%----------%%%--%%-%%%O >>>>>>>>>>>>>>>>>>>>>>",
">>>>>>>>>>>>>>>>>>>>>>>>  OO%%%%O%%%---------O%%%%-%%%%     >>>>>>>>>>>>>>>>>>>>>",
"************************    OOO%%%%%---------%OO%%%  O >>>>>>>>>>>>>>>>>>>>>>>>>>",
">>>>>>::::::::::::::::: >>>>  O%%%%%%---%%%%--%%O%%%% >>>>>>>>>>>>>>>>>>>>>>>>>>>",
">>>>>>>>>>>>>>>>>>>>>>> >>>>  O%%%%%%---%%%%--%%O%%%% >>>>>>>>>>>>>>>>>>>>>>>>>>>",
">>>>>>>>>>>>>>>>>>>>>>>>>>>>   O%%%%%--%% %%%---O OOOO >>>>>>>>>>>>>>>>>>>>>>>>>>",
">>>>>>>>>>>>>>>>>>>>>>>>>>> >>> OOO%%%%%%O  %%  OO       >>>>>>>>>>>>>>>>>>>>>>>>",
">>>>>>>>>>>>>>>>>>>>>>>>>>>>>>     OO%%%%O  O%  OO .. >>>>>>>>>>>>>>>>>>>>>>>>>>>",
">>>>>>>>>>>>>>>>>>>>>>>>>>>>  .+ooo O%%OO .. O   O ++. >>>>>>>>>>>>>>>>>>>>>>>>>>",
">>>>>>>>>>>>>>>>>>>>>>>>>>>>  .+ooo O%%OO .. O   O ++. **************************",
">>>>>>>>>>>>>>>>>>>>>>>>>>> ..++ooo. OO  ....   .  +++ >>>>>>>>>>>>>>>>>>>>>>>>>>",
">>>>>>>>>>>>>>>>>>>>>>>>>>> oo+o....   .......66...+++o  >>>>>>>>>>>>>>>>>>>>>>>>",
">>>>>>>>>>>>>>>>>>>>>>>>>> o+++. ,,6 oo+....+o..6, ..+o  >>>>>>>>>>>>>>>>>>>>>>>>",
">>>>>>***>>>>>>>>>>>>>>>>> o+++. ,,6 oo+....+o..6, ..+o  >>>>>>>>>>>>>>>>>>>>>>>>",
">>>>>>>>>*********>>>>**** o+++.#;;6.++6+o++6+..6;#  .+.. >>>>>>>>>>>>>>>>>>>>>>>",
">>>>>>>>>>>>>>>>>>****>>>> .++. #;;6+666@+66@6++6;#      &>>>>>>>>>>>>>>>>>>>>>>>",
">>>>>>>>>>>>>>>>>>>>>>>>>>&    &#,,6.++6@@66@6@@6,#  11111&>>>>>>>>>>>>>>>>>>>>>>",
">>>>>>>>>>>>>>>>>>>>>>>>>>&1111&#,,6o@@6@@66@6@@6,#  11111&>>>>>>>>>>>>>>>>>>>>>>",
">>>>>>>>>>>>>>>>>>>>>>>>>>&1111&#,,6o@@6@@66@6@@6,#  11111&>>>>>>>>>>>>>>>>>>>>>>",
">>>>>>>>>>>>>>>>>>>>>>>>>>&&==1=#,,6.++6@@66@6++6,#>> 1333&>>>>>>>>>>>>>>>>>>>>>>",
">>>>>>>>>>>>>>>>>>>>>>>>>>> &&==#;;6+6666@++6+..6;#>>> 1111&>>>>>>>>>>>>>>>>>>>>>",
">>>>>>>>>>>>>>>>>>>>>>>>>>>>  &= ;;6.++@+o..+...6; >>> 1131&>>>>>>>>>>>>>>>>>>>>>",
">>*>>>>>>>>>>>>>>>>>>>>>>>>>  &= ;;6.++@+o..+...6; >>> 1131&>>>>>>>>>>>>>>>>>>>>>",
">>>**************************>                     >> &1111&>>>>>>>>>>>>>>>>>>>>>",
">>>>>>>>>>>>>>>>>>>>>>>>>>>>>>>>#;;6+++@@@@@@+++6;#** 1&&&&&***********>>>>>>>>>>",
">>>>>>>>>>>>>>>>>>>>>>>>>>>>>>>>#,,6o+++++++@+++6,#>>>   &&>>>>>>>>>>>>**********",
">>>>>>>>>>>>>>>>>>>>>>>>>>>>>***#;;6...ooo++++oo6;#>>>>>>>>>>>>>>>>>>>>>>>>>>>>>>",
">>>>>>>>>>>>>>>>>>>>>>>>>>>>>>>>#;;6...ooo++++oo6;#>>>>>>>>>>>>>>>>>>>>>>>>>>>>>>",
">>>>>>>>>>>>>>>>>>>>>>>>>>>>>>>>#;;6ooo...ooo...6,#>>>>>>>>>>>>>>>>>>>>>>>>>>>>>>",
">>>>>>>>>>>>>>>>>>>>>>>>>>>>>>>>#,,6ooo.           >>>>>>>>>>>>>>>>>>>>>>>>>>>>>>",
">>>>>>>>>>>>>>>>>>>>>>>>>>>>>>>>         >&&==1111&>>>>>>>>>>>>>>>>>>>>>>>>>>>>>>",
">>>>>>>>>>>>>>>>>>>>>>>>>>>>>>>>         >&&==1111&>>>>>>>>>>>>>>>>>>>>>>>>>>>>>>",
">>>>>>>>>>>>>>>>>>>>>>>>>>>>>>>>&1155331&>  ..ooo. >>>>>>>>>>>>>>>>>>>>>>>>>>>>>>",
">>>>>>>>>>>>>>>>>>>>>>>>>>>>>>>> XXooXX  >         >>>>>>>>>>>>>>>>>>>>>>>>>>>>>>",
">>>>>>>>>>>>>>>>>>>>>>>>>>>>>>>>...oo... >&&==11==&>>>>>>>>>>>>>>>>>>>>>>>>>>>>>>",
">>>>>>>>>>>>>>>>>>>>>>>>>>>>>>>>>        >&&=     >>>>>>>>>>>>>>>>>>>>>>>>>>>>>>>",
">>>>>>>>>>>>>>>>>>>>>>>>>>>>>>>>>        >&&=     >>>>>>>>>>>>>>>>>>>>>>>>>>>>>>>",
">>>>>>**>>>>>>>>>>>****>>>>>>>>>>&&==11==&>>      >>>>>>>>>>>>>>>>>>>>>>>>>>>>>>>",
">>>>>>>>***********>>>>>>>>>>>>>>       1&>>     ****************>>>>>>>>>>>>>>>>",
">>>>>>>>>>>>>>>>>>>>>>>>>>>>>>>>>  $4444  >>>   >>>>>>>>>>>>>>>>>****>>>>>>>>>>>>",
">>>>>>>>>>>>>>>>>>>>>>>>>>>>>>>>>  $4444  >>*   >>>>>>>>>>>>>>>>>>>>>*******>>>>>",
">>>>>>>>>>>>>>>>>>>>>>>>>>>>>>>>>  $4$$4$ **>>>>>>>>>>>>>>>>>>>>>>>>>>>>>>>>*****",
">>>>>>>>>>>>>>>>>>>>>>>>>>>>>>>**         >>>>>>>>>>>>>>>>>>>>>>>>>>>>>>>>>>>>>>>",
">>>>>>>>>>>>>>>>>>>>>>>>>>>>>>>>>         >>>>>>>>>>>>>>>>>>>>>>>>>>>>>>>>>>>>>>>",
"********************>>>>>>>>>>>>>>>>>>>>>>>>>>>>>>>>>>>>>>>>>>>>>>>>>>>>>>>>>>>>>",
">>>>>>>>>>>>>>>>>>>>****>>>>>>>>>>>>>>>>>>>>>>>>>>>>>>>>>>>>>>>>>>>>>>>>>>>>>>>>>",
">>>>>>>>>>>>>>>>>>>>>>>>>>>>>>>>>>>>>>>>>>>>>>>>>>>>>>>>>>>>>>>>>>>>>>>>>>>>>>>>>"
};
