/* XPM */
static char *_e3f140ca74d4129c6779f7652400e5dkTWrJgk94Gfzdh1B[] = {
/* columns rows colors chars-per-pixel */
"81 81 24 1 ",
"  c black",
". c #161419",
"X c #1F1D20",
"o c #5B290E",
"O c #413C40",
"+ c #49474C",
"@ c #833504",
"# c #BF3F32",
"$ c #954009",
"% c #964B1F",
"& c #B77E1C",
"* c #B36739",
"= c #C95D1C",
"- c #C66427",
"; c #C28315",
": c #D18D17",
"> c #ED8232",
", c #F68D4B",
"< c #EA9777",
"1 c #F4AD83",
"2 c #F9C19D",
"3 c #C0D3D2",
"4 c #FBDCC8",
"5 c #E1E1E3",
/* pixels */
":::::::::::::::::::::::::::::::::::::::::::::::::::::::::::::::::::::::::::::::::",
"::::::::::::::::::::::::::::::::::::::::::::o::::::::::::::::::::::::::::::::::::",
":::&&&&&&&&&&&&&&&&&&&&&&&&&&&&&&&&:::::::::o::::::::::::::::::::::::::::::::::::",
"&&&:::::::::::::::::::::::::::::::::o::::::::o::::::::::::::::::&&&&&&&&&&&::::::",
":::::::::::::::::::::::::::::::::::::oooo:::::oo:::::::::::::::::::::::::::&&&&&&",
":::::::::::::::::::::::::::::::::::::oo$$ooo::ooo::::o:::::::::::::::::::::::::::",
":::::::::::::::::::::::::::::::::::ooooo$$$$o:ooo::::o:::::::::::::::::::::::::::",
"&&&&&&&&&&&&&&&&&&&&&&&&&&&&&&&&&&&ooooo$$$$o&ooo;;;;o;::::::::::::::::::::::::::",
"::::;;;;;;;;;;;;;;;;;;;o;;;;;;;oo$$$$$$$o$$$$o$$o::ooo:::::::::::::::::::::::::::",
":::::::::::::::::::::::oooo:ooo$$$$====$$====$$$ooo$$o:::::::::::::::::::::::::::",
"::::::::::::::::::::::o$$$$o$$$==oo=============$$$$$o:::::::::::::::::::::::::::",
"::::::::::::::::::::::o$$$$o$$$==oo=============$$$$$o:::::::::::::::::::::::::::",
"&&&&&&&&&&&&&&&&&&&&&&o$=========ooo============oo$oo$ooo::::::::::::::::::::::::",
":::::::::::::::::::::::o$$$======oo$oooooooo==oo,1ooo=$$$o:::::::::::::::::::::::",
"::::::::::::::::::::::::ooo$=======o$$$,1,==$=$$==$oo====$oo:::::::::::::::::::::",
":::::::::::::::::::::::::::o$$======ooo$$$$$o=oo$$o====oo$o::::::::::::::::::::::",
":::::::::::::::::::::::::::o$$======ooo$$$$$o=oo$$o====oo$o&&&&&&&&&&&&&&&&&&&&&&",
":::::::::::::&&&&&&oo&&&&&o$==,,,======ooooo====oo=oo$=$$o:::::::::::::::::::::::",
"::::::::&&&&&::::::ooooooo$=,,,1,==================oo$,==$$o:::::::::::::::::::::",
":::::::::::::::::::oo$$$$$==,,,,1,,,===============oo$1,,==$oooo:::::::::::::::::",
":::::::::::::::::::oo$$$$$==,,,,1,,,===============oo$1,,==$oooo:::::::::::::::::",
":::::::::::::::::::::o$$======o,1,,====,==,,,=====,oo=======$$o::::::::::::::::::",
":::::::::::::::::::::o$$==oo$$$,,,,==,,,==,,1===o$111,=====$oo:::::::::::::::::::",
"::::::::::::::::::::::oo$$=====,====,11,,=,,1,===o,,,,===$$o:::::::::::::::::::::",
"::::::::::::::::::::::::ooo========,,11,==,,,=ooo=,====$$oo::::::::::::::::::::::",
":::::&&&&&&&&&&&&&&&&&&&ooo========,,11,==,,,=ooo=,====$$oo&&&&&:::::::::::::::::",
"::::::::;;;;;;;;;::::::o$$$========,,===o=,,,o$$$==oo====$oo::::&&&&&&&&&&&&&&&&&",
"::::::::::::::::::::::o$$$===========ooo$===,======$$o====$o:::::::::::::::::::::",
":::::::::::::::::::::  $$$$$=========$$$=============$$====$  :::::::::::::::::::",
":::::::::::::::::::::  $$$$$=========$$$=============$$====$  :::::::::::::::::::",
"::::::::::::::::::::::: $$$$===$======================$  $$$   ::::::::::::::::::",
"::::::::::::::::::::::::   $$$$$================$======$$   &&&&&&&&&::::::::::::",
":::::::::::::::::::::::::: $$$$====$==========$$$==$$=$$$o ::::::::::::::::::::::",
"::::::::::::::::::::::::  oo$$$$o$$$=========o$$$$=$$$$     :::::::::::::::::::::",
"::::::::::::::::::::::::  oo$$$$o$$$=========o$$$$=$$$$     :::::::::::::::::::::",
"::::::::::::::::::::::::    ooo$$$$$=========$oo$$$  o ::::::::::::::::::::::::::",
"&&&&&&&&&&&&&&&&&&&&&&& &&&&  o$$$$$$===$$$$==$$o$$$$ :::::::::::::::::::::::::::",
"::::::;;;;;;;;;;;;;;;;;;::::   o$$$$$==$$ $$$===o oooo ::::::::::::::::::::::::::",
"::::::::::::::::::::::::::::   o$$$$$==$$ $$$===o oooo ::::::::::::::::::::::::::",
"::::::::::::::::::::::::::: ::: ooo$$$$$$o  $$  oo       ::::::::::::::::::::::::",
":::::::::::::::::::::::::::::::    oo$$$$o  o$  oo   ::::::::::::::::::::::::::::",
":::::::::::::::::::::::::::::: OXXX o$$oo .. o   o OO :::::::::::::::::::::::::::",
"::::::::::::::::::::::::::::  OOXXX. oo  ....   .  OOO ::::::::::::::::::::::::::",
"::::::::::::::::::::::::::::  OOXXX. oo  ....   .  OOO &&&&&&&&&&&&&&&&&&&&&&&&&&",
"::::::::::::::::::::::::::: ..OO....   .......55...OOO.  ::::::::::::::::::::::::",
"::::::::::::::::::::::::::: XXOO >>5 XXO....OX..5> OOOX  ::::::::::::::::::::::::",
"::::::::::::::::::::::::::: XXO.@--5.OO5OXOO5O..5-@..OX  ::::::::::::::::::::::::",
"::::::&&&:::::::::::::::::: XXO.@--5.OO5OXOO5O..5-@..OX  ::::::::::::::::::::::::",
":::::::::&&&&&&&&&::::&&&&& XXO.@--5O555+O55+5OO5-@..OX  ::::::::::::::::::::::::",
"::::::::::::::::::&&&&:::::%   .@>>5.OO5++55+5++5>@..  %%::::::::::::::::::::::::",
"::::::::::::::::::::::::::%*<<< @>>5X++5++55+5++5>@  <<**%:::::::::::::::::::::::",
"::::::::::::::::::::::::::%*<<< @>>5.OO5++55+5OO5>@  <<**%:::::::::::::::::::::::",
"::::::::::::::::::::::::::%*<<< @>>5.OO5++55+5OO5>@  <<**%:::::::::::::::::::::::",
"::::::::::::::::::::::::::%<22< @--5O5555+OO5O..5-@  <2<<%:::::::::::::::::::::::",
"::::::::::::::::::::::::::%<22<  --5.OO+OX..O...5-   <2<<%:::::::::::::::::::::::",
"::::::::::::::::::::::::::%222<                      <222%:::::::::::::::::::::::",
"::&:::::::::::::::::::::::%222<                      <222%:::::::::::::::::::::::",
":::&&&&&&&&&&&&&&&&&&&&&&&%222< @--5OOO++++++OOO5-@  <222%:::::::::::::::::::::::",
"::::::::::::::::::::::::::%<444<@>>5OOOO++++OOOO5>@<<44<<%&&&&&&&&&&&&&::::::::::",
"::::::::::::::::::::::::::%<444<@--5XOOOOXOOOOXX5-@<<44<<%:::::::::::::&&&&&&&&&&",
"::::::::::::::::::::::::::%<22%<@--5...XXXXXX...5-@<<%2<<%:::::::::::::::::::::::",
"::::::::::::::::::::::::::%<22%<@--5...XXXXXX...5-@<<%2<<%:::::::::::::::::::::::",
"::::::::::::::::::::::::::%<<<  @>>5XXX.. ...XXX5>@   <<<%:::::::::::::::::::::::",
":::::::::::::::::::::::::::    :@>>5XXX. :  .XXX5>@::    ::::::::::::::::::::::::",
"::::::::::::::::::::::::::::::::         :         ::::::::::::::::::::::::::::::",
"::::::::::::::::::::::::::::::::         :         ::::::::::::::::::::::::::::::",
"::::::::::::::::::::::::::::::::%<<4422<%:%%<2444<%::::::::::::::::::::::::::::::",
"::::::::::::::::::::::::::::::::%<<4422<%:%%<2444<%::::::::::::::::::::::::::::::",
":::::::::::::::::::::::::::::::: ..XXXXX :  XXXXX. ::::::::::::::::::::::::::::::",
"::::::::::::::::::::::::::::::::...XXXXX.:..XXXXX..::::::::::::::::::::::::::::::",
"::::::::::::::::::::::::::::::::...XXXXX.:..XXXXX..::::::::::::::::::::::::::::::",
"::::::&&:::::::::::&&&&:::::::::         :         ::::::::::::::::::::::::::::::",
"::::::::&&&&&&&&&&&:::::::::::::%<<2422<%:%%<2442<%&&&&&&&&&&&&&&::::::::::::::::",
"::::::::::::::::::::::::::::::::%<<4444<%:%%<4444<%::::::::::::::&&&&::::::::::::",
"::::::::::::::::::::::::::::::::%<<4444<%:%%<4444<%::::::::::::::::::&&&&&&&:::::",
"::::::::::::::::::::::::::::::::         &         :::::::::::::::::::::::::&&&&&",
":::::::::::::::::::::::::::::::& ##3333# :  #3333# ::::::::::::::::::::::::::::::",
":::::::::::::::::::::::::::::::: ##3#33# :  #3##3# ::::::::::::::::::::::::::::::",
"&&&&&&&&&&&&&&&&&&&&:::::::::::::       ::::      :::::::::::::::::::::::::::::::",
"::::::::::::::::::::&&&&:::::::::       ::::      :::::::::::::::::::::::::::::::",
":::::::::::::::::::::::::::::::::::::::::::::::::::::::::::::::::::::::::::::::::"
};
