/* XPM */
static char *_d6b67ae9e6b4349d505bc3da7debaf9Xfac0OG32WKoyWqU[] = {
/* columns rows colors chars-per-pixel */
"81 81 31 1 ",
"  c None",
". c #5B290E",
"X c #954009",
"o c #C95D1C",
"O c #F68D4B",
"+ c #F4AD83",
"@ c #FBDCC8",
"# c #964B1F",
"$ c #EA9777",
"% c #F9C19D",
"& c #B36739",
"* c #490E07",
"= c #C7591A",
"- c #DEAD9D",
"; c black",
": c #AFA992",
"> c #9E7353",
", c white",
"< c #573A28",
"1 c #A47B67",
"2 c #161419",
"3 c #4B2510",
"4 c #1F1D20",
"5 c #833504",
"6 c #ED8232",
"7 c #49474C",
"8 c #413C40",
"9 c #E1E1E3",
"0 c #201D1A",
"q c #BF3F32",
"w c #C0D3D2",
/* pixels */
"                                                                                 ",
"                                                                                 ",
"                                                                                 ",
"                                                                                 ",
"                                                                                 ",
"                                                                                 ",
"                                              ..                                 ",
"                                              ..                                 ",
"                                   .          ...                                ",
"                                 ...         .XX.                                ",
"                                .XX. ........XXXX.    ...                        ",
"                                .XX. ........XXXX.    ...                        ",
"                                .XXX.XXXXXXXXoXX......X..                        ",
"                           .....XXXXXXXOO+++OOooXXXXXX.                          ",
"                              .XX..XOOOOO++++O++OOoOO.    .                      ",
"                            ..XoXXXOO++XoOOOOO+++X.oo......                      ",
"                            ..XoXXXOO++XoOOOOO+++X.oo......                      ",
"                           .XXoO+++OXXXoOOXXoOOOOX.ooO.XX.                       ",
"                      .   .XooOO+OOXO++OXXooOOOO+oXXXo...                        ",
"                      ....XXooXOXXXXXXXXoOOOOXooo.Xoo+o..                        ",
"                      ....XXooXOXXXXXXXXoOOOOXooo.Xoo+o..                        ",
"                       .XXoooo.O+OOOOOOOO+++Oo..Xo.XXoO..                        ",
"                        XX.ooo.OOooXoOOXO+OOOoXX.X.XXXooo.                       ",
"                        ..Xoooooooo.ooo.oOOOooXX..@..XXXX.                       ",
"                  .    .XXoooooooXX.ooo.ooooo.XX.@@@@......                      ",
"                  .    .XXoooooooXX.ooo.ooooo.XX.@@@@......                      ",
"                  .....XooooooooX..ooooXX.ooX...##$%%%%&& .                      ",
"                   ...Xooooo..oo.XX.###.X.XX.%%%%$$%%%$&&                        ",
"                      .oooo.XXoXXXX*$&&#.XXX.######%%%&                          ",
"                      .oooo.XXoXXXX*$&&#.XXX.######%%%&                          ",
"                       .oo.Xoo=X.XX-@$$#.X...###;;#%%%&                          ",
"                        ;;XooooX.;;%@$$%%.XX.:::;>$%%%&                          ",
"                       ;XXooooXX.;;&%$$%%%...:,,<;$%%%&                          ",
"                        ;;;;XXXXX..;&$$%%%%%.:,,>;$@@@&&&                        ",
"                        ;;;;XXXXX..;&$$%%%%%.:,,>;$@@@&&&                        ",
"                       ;    ;;XXX...;;;%%%%%%%,,11%@@@%&&                        ",
"                            ;;XXXXX..$$$%%%%%%%%@@@@@@$&&                        ",
"                           ;;;XXXXX..$$$%%%%%%%%%@@@@%&                          ",
"                           ;;;XXXXX..$$$%%%%%%%%%@@@@%&                          ",
"                              ;;XXXX...$$%%%%%%%%%%%%$;                          ",
"                                ;XXX...$$$%%%%%%%%$&&;                           ",
"                                 ;;;;;;&&$$$$$$$&&;;;                            ",
"                                   ;222;;33333333;                               ",
"                                   ;222;;33333333;                               ",
"                                   2444444556;3335                               ",
"                                 ;;477778444265565                               ",
"                                 ;;877778822922242;                              ",
"                                 ;;877778822922242;                              ",
"                                ;2248444;299479974;                              ",
"                                ;2248444;599499978;                              ",
"                                ;2248442;599479977;                              ",
"                                #;;;;22;#699479974;                              ",
"                                #;;;;22;#699479974;                              ",
"                                #&&$$;;;#69947997;                               ",
"                                 ##$%%%##69989999;                               ",
"                                 ##$%%%%$#9947884;                               ",
"                                 ##$%%%%$#9947884;                               ",
"                                 ##$%%%$$#;;;;;;;;                               ",
"                                   0$%%%@&##87778;                               ",
"                                   0$$$@%&##48882;                               ",
"                                   ;$$$%$&9948882;                               ",
"                                   ;$$$%$&9948882;                               ",
"                                   ;;$$#$;9942224;                               ",
"                                    ;;;;;;992;224;                               ",
"                                    ;;;;;;;;;;;;;;                               ",
"                                    ;;;;;;;;;;;;;;                               ",
"                                    #&&$$@@@%#&&##                               ",
"                                    #&&%%@@@%#&&##                               ",
"                                     ;;444222;44;                                ",
"                                     22442222;222                                ",
"                                     22442222;222                                ",
"                                     ;;;;;;;;2;;;                                ",
"                                     ##&%@@@#&&&#                                ",
"                                     ;;;;@@@;;;;;                                ",
"                                     ;;;;@@@;;;;;                                ",
"                                     ;;qw;;;;wqqq;                               ",
"                                     ;;wqwqq;qwww;                               ",
"                                     ;;qwwww;;;;;;                               ",
"                                       ;;;;;                                     ",
"                                       ;;;;;                                     ",
"                                                                                 "
};
