/* XPM */
static char *f671e6fb67cb4ea8ed0e4988281c38e28wP2hNRS6umxu6zT[] = {
/* columns rows colors chars-per-pixel */
"81 81 32 1 ",
"  c black",
". c #161419",
"X c #18161A",
"o c #1F1D20",
"O c #5B290E",
"+ c #4B2510",
"@ c #573A28",
"# c #413C40",
"$ c #49474C",
"% c #585549",
"& c #833504",
"* c #BF3F32",
"= c #954009",
"- c #964B1F",
"; c #B77E1C",
": c #B36739",
"> c #C95D1C",
", c #C66427",
"< c #9E7353",
"1 c #A47B67",
"2 c #C28315",
"3 c #D18D17",
"4 c #ED8232",
"5 c #F68D4B",
"6 c #EA9777",
"7 c #AFA992",
"8 c #F4AD83",
"9 c #F9C19D",
"0 c #C0D3D2",
"q c #FBDCC8",
"w c #E1E1E3",
"e c white",
/* pixels */
"333333333333333333333333333333333333333333333333333333333333333333333333333333333",
"333333333333333333333333333333333333333333333333333333333333333333333333333333333",
"333;;;;;;;;;;;;;;;;;;;;;;;;;;;;;;;;3333333333333333333333333333333333333333333333",
";;;3333333333333333333333333333333333333333333333333333333333333;;;;;;;;;;;333333",
"333333333333333333333333333333333333333O33333333333333333333333333333333333;;;;;;",
"3333333333333333333333333333333333333OOO33333333333333333333333333333333333333333",
"333333333333333333333333333333333333O===O333333333O333333333333333333333333333333",
";;;;;;;;;;;;;;;;;;;;;;;;;;;;;;;;;;;;O===O;;;;;;;22O222233333333333333333333333333",
"333322222222222222222222222O22222222O====O2222OO33O333333333333333333333333333333",
"333333333333333333333333333OOOO33333O>>===OOOO==OO=OO3333333333333333333333333333",
"333333333333333333333333333O===OOOOO>55555555=OO>O>==O3OO333333333333333333333333",
"333333333333333333333333333O===OOOOO>55555555=OO>O>==O3OO333333333333333333333333",
";;;;;;;;;;;;;;;;;;;;;;;;;;;;OO=>58888555588885==O55>>=O33333333333333333333333333",
"3333333333333333333333OOOOO3OO>85888555==5558855585>>=O33333333333333333333333333",
"33333333333333333333333O===O===>>======55855555555855>O33333333333333333333333333",
"33333333333333333333333O===>55>====5555888885=>>555885>OOO3O333333333333333333333",
"33333333333333333333333O===>55>====5555888885=>>555885>OOO3O;;;;;;;;;;;;;;;;;;;;;",
"3333333333333;;;;;;;;;;;OO>555855======588555>==>55888855>OO333333333333333333333",
"33333333;;;;;33333333333OOO>5588555>>===555555===>55558555=O333333333333333333333",
"333333333333333333333333333O555>8555>>>>55OO>O====>>>5555=O3333333333333333333333",
"333333333333333333333333333O555>8555>>>>55OO>O====>>>5555=O3333333333333333333333",
"33333333333333333333333333O>>>=>555>=OO=>5==O=>>=O=>>>5>>>=O333333333333333333333",
"333333333333333333333333OO>>==>>5>>=OOO=>>==O=OO=O=>>>>>>>>=OOO333333333333333333",
"3333333333333333333OOOOO>>>=>>>>>==OqqqO>>==O=OO==O==>>>>===OO3333333333333333333",
"333333333333333333333O==>>>=>>>>>==OqqqO=>OOqOOOOOO==O>==OOO333333333333333333333",
"33333;;;;;;;;;;;;;;;;O==>>>=>>>>>==OqqqO=>OOqOOOOOO==O>==OOO;;;;33333333333333333",
"333333332222222223333O=>>>=>>>>==OOqqqqqO=OOqqqqq9OOO=>>>= 33333;;;;;;;;;;;;;;;;;",
"3333333333333333333333O=>>>>>>=OO----66qqOOOq6----:OOO=>>>= 333333333333333333333",
"33333333333333333333333O== >==O6999996669qOO669999966:O==>>=  3333333333333333333",
"33333333333333333333333O== >==O6999996669qOO669999966:O==>>=  3333333333333333333",
"333333333333333333333333  >>OOO6-------699996------66:O==>= 333333333333333333333",
"33333333333333333333333 ===>OO:--    --:9999:-    ---:-OO= ;;;;;;;;;;333333333333",
"333333333333333333333333  ==OO:77<<%   :9999: <<% 777:-OO= 3333333333333333333333",
"33333333333333333333333333 =OO:7e@@ @776999967@@ @e77:-OO 33333333333333333333333",
"33333333333333333333333333 =OO:7e@@ @776999967@@ @e77:-OO 33333333333333333333333",
"333333333333333333333333333   :7e<< <ee6q9qq6e<< <e77:   333333333333333333333333",
";;;;;;;;;;;;;;;;;;;;;;;;;;;;  :6e1111ee9qqqq9e1111e66: 33333333333333333333333333",
"333333222222222222222222333333 66999qqqqq6qqqqqq99666 333333333333333333333333333",
"333333333333333333333333333333 66999qqqqq6qqqqqq99666 333333333333333333333333333",
"333333333333333333333333333333 :69999qqqq6qqqq99996:: 333333333333333333333333333",
"3333333333333333333333333333333 :66999999999999996:  3333333333333333333333333333",
"333333333333333333333333333333     :699999999966-     333333333333333333333333333",
"3333333333333333333333333333  o#o..  :::6666::   .o##o 33333333333333333333333333",
"3333333333333333333333333333  o#o..  :::6666::   .o##o ;;;;;;;;;;;;;;;;;;;;;;;;;;",
"333333333333333333333333333 oo$$ooo44  ++++++ 444oo##$$  333333333333333333333333",
"33333333333333333333333333 o##$$ooo..44&4q44&4...oooo$$  333333333333333333333333",
"33333333333333333333333333 o##$$.oo.w...&&&&..ww.o...$$oo 33333333333333333333333",
"333333;;;33333333333333333 o##$$.oo.w...&&&&..ww.o...$$oo 33333333333333333333333",
"333333333;;;;;;;;;3333;;    ##o  44w.oo#....#o..w4 oo$$  -33333333333333333333333",
"333333333333333333;;;;33--:6    &,,w.##w#o##w#..w,&  o 99-33333333333333333333333",
"33333333333333333333333:666666 3&,,w#www$#ww$w##w,&   999-33333333333333333333333",
"33333333333333333333333-666666 3&44w.##w$$ww$w$$w4&--6666-33333333333333333333333",
"33333333333333333333333-666666 3&44w.##w$$ww$w$$w4&--6666-33333333333333333333333",
"33333333333333333333333-9996  33&44wo$$w$$ww$w$$w-69996---33333333333333333333333",
"3333333333333333333333:9996 3333&44w.##w$$ww$w##-6qqq6-  333333333333333333333333",
"3333333333333333333333-9996 3333&,,w#wwww$##w#--66qqq6 33333333333333333333333333",
"33;3333333333333333333-9996 3333&,,w#wwww$##w#--66qqq6 33333333333333333333333333",
"333;;;;;;;;;;;;;;;;;;;-66666  33 ,,w.##$#o..#.---66:: 333333333333333333333333333",
"3333333333333333333333--99-6  33                     ;;;;;;;;;;;;;;;;;;3333333333",
"3333333333333333333333----  3333&,,w.oo#$$$$#o..w,&33333333333333333333;;;;;;;;;;",
"33333333333333333333333    33;;;&44woooo#$##oooow4&333333333333333333333333333333",
"33333333333333333333333    33333&44woooo#$##oooow4&333333333333333333333333333333",
"33333333333333333333333333333333&44wo##.. ..o#oow,&333333333333333333333333333333",
"33333333333333333333333333333333&,,wo##.           333333333333333333333333333333",
"33333333333333333333333333333333         3--::::96-333333333333333333333333333333",
"33333333333333333333333333333333         3--::::96-333333333333333333333333333333",
"33333333333333333333333333333333-66qq996-3--:9qqq6-333333333333333333333333333333",
"33333333333333333333333333333333-66qq996-3  ..ooo. 333333333333333333333333333333",
"333333333333333333333333333333333  XoooX 3         333333333333333333333333333333",
"333333333333333333333333333333333...ooo.. --6qqq6-3333333333333333333333333333333",
"333333333333333333333333333333333...ooo.. --6qqq6-3333333333333333333333333333333",
"333333;;33333333333;;;;3333333333                33333333333333333333333333333333",
"33333333;;;;;;;;;;;33333333333333--6qqqq6-  *000 ;;;;;;;;;;;;;;;;3333333333333333",
"333333333333333333333333333333333   qqqq  33    33333333333333333;;;;333333333333",
"333333333333333333333333333333333   qqqq  33    333333333333333333333;;;;;;;33333",
"333333333333333333333333333333333  *    * ;;33333333333333333333333333333333;;;;;",
"3333333333333333333333333333333;;  0****0 333333333333333333333333333333333333333",
"333333333333333333333333333333333  0    0 333333333333333333333333333333333333333",
";;;;;;;;;;;;;;;;;;;;333333333333333      3333333333333333333333333333333333333333",
"33333333333333333333;;;;33333333333      3333333333333333333333333333333333333333",
"333333333333333333333333333333333333333333333333333333333333333333333333333333333"
};
