/* XPM */
static char *_805f3db14fd4f15eacdf9eca35aab44rZ1asOnUtdBV4CPz[] = {
/* columns rows colors chars-per-pixel */
"81 81 32 1 ",
"  c None",
". c #5B290E",
"X c #954009",
"o c #C95D1C",
"O c #F68D4B",
"+ c #F4AD83",
"@ c #FBDCC8",
"# c #964B1F",
"$ c #EA9777",
"% c #F9C19D",
"& c #B36739",
"* c #490E07",
"= c #C7591A",
"- c #DEAD9D",
"; c black",
": c #AFA992",
"> c #9E7353",
", c white",
"< c #573A28",
"1 c #A47B67",
"2 c #161419",
"3 c #4B2510",
"4 c #1F1D20",
"5 c #413C40",
"6 c #49474C",
"7 c #833504",
"8 c #ED8232",
"9 c #E1E1E3",
"0 c #C66427",
"q c #201D1A",
"w c #BF3F32",
"e c #C0D3D2",
/* pixels */
"                                                                                 ",
"                                                                                 ",
"                                                                                 ",
"                                                                                 ",
"                                                                                 ",
"                                                                                 ",
"                                                                                 ",
"                                                                                 ",
"                                              ..                                 ",
"                                   .          ...                                ",
"                                 ...         .XX.                                ",
"                                 ...         .XX.                                ",
"                                .XX. ........XXXX.    ...                        ",
"                                .XXX.XXXXXXXXoXX......X..                        ",
"                           .....XXXXXXXOO+++OOooXXXXXX.                          ",
"                              .XX..XOOOOO++++O++OOoOO.    .                      ",
"                              .XX..XOOOOO++++O++OOoOO.    .                      ",
"                            ..XoXXXOO++XoOOOOO+++X.oo......                      ",
"                           .XXoO+++OXXXoOOXXoOOOOX.ooO.XX.                       ",
"                      .   .XooOO+OOXO++OXXooOOOO+oXXXo...                        ",
"                      .   .XooOO+OOXO++OXXooOOOO+oXXXo...                        ",
"                      ....XXooXOXXXXXXXXoOOOOXooo.Xoo+o..                        ",
"                       .XXoooo.O+OOOOOOOO+++Oo..Xo.XXoO..                        ",
"                        XX.ooo.OOooXoOOXO+OOOoXX.X.XXXooo.                       ",
"                        ..Xoooooooo.ooo.oOOOooXX..@..XXXX.                       ",
"                        ..Xoooooooo.ooo.oOOOooXX..@..XXXX.                       ",
"                  .    .XXoooooooXX.ooo.ooooo.XX.@@@@......                      ",
"                  .....XooooooooX..ooooXX.ooX...##$%%%%&& .                      ",
"                   ...Xooooo..oo.XX.###.X.XX.%%%%$$%%%$&&                        ",
"                   ...Xooooo..oo.XX.###.X.XX.%%%%$$%%%$&&                        ",
"                      .oooo.XXoXXXX*$&&#.XXX.######%%%&                          ",
"                       .oo.Xoo=X.XX-@$$#.X...###;;#%%%&                          ",
"                        ;;XooooX.;;%@$$%%.XX.:::;>$%%%&                          ",
"                       ;XXooooXX.;;&%$$%%%...:,,<;$%%%&                          ",
"                       ;XXooooXX.;;&%$$%%%...:,,<;$%%%&                          ",
"                        ;;;;XXXXX..;&$$%%%%%.:,,>;$@@@&&&                        ",
"                       ;    ;;XXX...;;;%%%%%%%,,11%@@@%&&                        ",
"                            ;;XXXXX..$$$%%%%%%%%@@@@@@$&&                        ",
"                            ;;XXXXX..$$$%%%%%%%%@@@@@@$&&                        ",
"                           ;;;XXXXX..$$$%%%%%%%%%@@@@%&                          ",
"                              ;;XXXX...$$%%%%%%%%%%%%$;                          ",
"                                ;XXX...$$$%%%%%%%%$&&;                           ",
"                                 ;;;;;;&&$$$$$$$&&;;;                            ",
"                                 ;;;;;;&&$$$$$$$&&;;;                            ",
"                                 ;;2222;;33333333;                               ",
"                                ;224566444778;3337                               ",
"                                ;44456665444287787                               ",
"                                ;44456665444287787                               ",
"                               ;255566652522922242;                              ",
"                               #;444444;7299469964;                              ",
"                               #&;;;42277799499965;                              ",
"                               #$$$$;;;70799469966;                              ",
"                               #$$$$;;;70799469966;                              ",
"                              #&$$$$###00099469964;                              ",
"                              ##$%%%###0009946996;                               ",
"                              #$%%%%$##8089959999;&##                            ",
"                              #$%%%%$##8089959999;&##                            ",
"                              #$%%%%$##8889946554;&&&#                           ",
"                               q$@@@%&&#;;;;;;;;;;&$$#                           ",
"                               ;$%%$$&&;008895442;&&&;                           ",
"                                ;$$#$;;4988809552;;;;                            ",
"                                ;$$#$;;4988809552;;;;                            ",
"                                 ;;;;224907777992;                               ",
"                                   ;;;;2497700994;                               ",
"                                   ;444;229908994;                               ",
"                                   ;444;229908994;                               ",
"                                   ;;444;;9908;;;#                               ",
"                                   ##;;;; ;;;;@@%&                               ",
"                                 ###&&&#; ##&%@@@2;                              ",
"                                 ;;4422;  ;;;444422                              ",
"                                 ;;4422;  ;;;444422                              ",
"                                 ;;;;;;;    ;;;;;;;                              ",
"                                ;######     #%@@%##                              ",
"                                ;;;;;;;   ;;;%@@;;;;;                            ",
"                                ;;;;;;;   ;;;%@@;;;;;                            ",
"                                ;wwew;;;  ;;w;;;eew;;                            ",
"                                ;eeewee;    ;ewwewe;;                            ",
"                                 ;;;;;;;     ;eewe;;;                            ",
"                                             ;;;;;                               ",
"                                             ;;;;;                               ",
"                                                                                 "
};
