/* XPM */
static char *f8a1000455a348e2a509a41d8b996579Rubr2rOkMbXYuSzP[] = {
/* columns rows colors chars-per-pixel */
"81 81 31 1 ",
"  c None",
". c #5B290E",
"X c #954009",
"o c #C95D1C",
"O c #F68D4B",
"+ c #F4AD83",
"@ c #FBDCC8",
"# c #B36739",
"$ c #F9C19D",
"% c #EA9777",
"& c #964B1F",
"* c #490E07",
"= c black",
"- c #DEAD9D",
"; c #C7591A",
": c #9E7353",
"> c #AFA992",
", c #573A28",
"< c white",
"1 c #A47B67",
"2 c #4B2510",
"3 c #161419",
"4 c #833504",
"5 c #ED8232",
"6 c #1F1D20",
"7 c #413C40",
"8 c #49474C",
"9 c #E1E1E3",
"0 c #C66427",
"q c #C0D3D2",
"w c #BF3F32",
/* pixels */
"                                                                                 ",
"                                                                                 ",
"                                                                                 ",
"                                                                                 ",
"                                                                                 ",
"                                                                                 ",
"                                                                                 ",
"                                                                                 ",
"                                     ..                                          ",
"                                    ...          .                               ",
"                                    .XX.         ..                              ",
"                                    .XX.         ..                              ",
"                            ...    .XXXX........ .X..                            ",
"                            ..X......XXoXXXXXXXX.XX..                            ",
"                              .XXXXXXooOO+++OOXXXXXXX.....                       ",
"                          .    .OooOO++O++++OOOOOX.XXX.                          ",
"                          .    .OooOO++O++++OOOOOX.XXX.                          ",
"                          ......o..X+++OOOOOoX++OOXXXoX..                        ",
"                           .XX.Oo..XOOOOoXOOOoXXXO+++OoXX.                       ",
"                            ...oXXXo+OOOOoXXXO++OXO++OOooX.   .                  ",
"                            ...oXXXo+OOOOoXXXO++OXO++OOooX.   .                  ",
"                            ..o+oXX.oooXOOOOoXXXXXXXXOXooXX....                  ",
"                            ..OoX..oX..oO+++OOOOOOO++O.ooooX..                   ",
"                           .oooXX..X.XXoOO++OXOOoXoOOO.ooo.X                     ",
"                           .XXXX.@@..XXooOOOo.ooo.ooooooooX.                     ",
"                           .XXXX.@@..XXooOOOo.ooo.ooooooooX.                     ",
"                          ......@@@@.XX.ooooo.ooo.XooooooooX..    .              ",
"                          . ##$$$%%&&...Xo..XXoooo.XXoooooooXX.....              ",
"                            ##%$$%%%$$$$.X..X.&&&.X..oo..oooooX...               ",
"                            ##%$$%%%$$$$.X..X.&&&.X..oo..oooooX...               ",
"                              #$$&&&&&&&.XXX.&##%*XXXXoXX.oooo.                  ",
"                              #$$&&==&&&..XX.&%%@-X..X;ooX.o..                   ",
"                              #$$%%:=>>>.X..$$%%@$=..XooooX=                     ",
"                              #$$%%=,<<>..$$$$%%$#=..XXooooX==                   ",
"                              #$$%%=,<<>..$$$$%%$#=..XXooooX==                   ",
"                            ###@@%%=:<<>.$$$$$%%#=.XXXXXX===                     ",
"                            ##$@@$$11<<$$$$$$$===..XXXX==   ==                   ",
"                            ##%@@@@@@$$$$$$$$%%%..XXXXX==                        ",
"                            ##%@@@@@@$$$$$$$$%%%..XXXXX==                        ",
"                              #$@@@@$$$$$$$$$%%%..XXXXX===                       ",
"                              =%$$$$$$$$$$$$%%...XXXX==                          ",
"                               =#%%$$$$$$$%%%%...XX==                            ",
"                                ===##%%%%%%%##=====                              ",
"                                ===##%%%%%%%##=====                              ",
"                                   =22222222==333=                               ",
"                                   4222=546666666=                               ",
"                                   454453666788876=                              ",
"                                   454453666788876=                              ",
"                                 ==363339333377788=                              ",
"                                 ==6899869===366776==                            ",
"                                 ==798896944==33663==                            ",
"                                 ==8988969&&&#=====&&                            ",
"                                 ==8988969&&&#=====&&                            ",
"                                 ==6988&&&&&%$%%%%#&&                            ",
"                                   =9##@$$%%%$%%##&&&                            ",
"                                   =7##$@@%%%%##&#&                              ",
"                                   =7##$@@%%%%##&#&                              ",
"                                   =6##%$$%%&&==3=                               ",
"                                   ====%&%==05996=                               ",
"                                   =677===9954993=                               ",
"                                   =6778879904449=                               ",
"                                   =6778879904449=                               ",
"                                   =3667773394009=                               ",
"                                   =633663==90559=                               ",
"                                 ===66633=6695====                               ",
"                                 ===66633=6695====                               ",
"                                 &&#===63=66==%%#&                               ",
"                                 ==####=====%@%%%&                               ",
"                                =666#&&&  ##$@6663=                              ",
"                                =3336==   &&=6333==                              ",
"                                =3336==   &&=6333==                              ",
"                                ====3==     33===%&==                            ",
"                                =&&#%&&     ==@@@$=qq=                           ",
"                               =====#===     &%%===ww=                           ",
"                               =====#===     &%%===ww=                           ",
"                               =wqqw=qq=      ==qwqqq=                           ",
"                               =qwwqw==      =qqqqw==                            ",
"                                =====        =wwqw=                              ",
"                                              ====                               ",
"                                              ====                               ",
"                                                                                 "
};
