/* XPM */
static char *a1680959324d4c4ad6d001209a70bc36LSZQhrKTNzhpviMg[] = {
/* columns rows colors chars-per-pixel */
"81 81 29 1 ",
"  c None",
". c #5B290E",
"X c #954009",
"o c #C95D1C",
"O c #F68D4B",
"+ c #F4AD83",
"@ c #FBDCC8",
"# c #F9C19D",
"$ c black",
"% c #964B1F",
"& c #EA9777",
"* c #B36739",
"= c #AFA992",
"- c #9E7353",
"; c #585549",
": c white",
"> c #573A28",
", c #A47B67",
"< c #413C40",
"1 c #1F1D20",
"2 c #161419",
"3 c #49474C",
"4 c #ED8232",
"5 c #4B2510",
"6 c #833504",
"7 c #E1E1E3",
"8 c #C66427",
"9 c #BF3F32",
"0 c #C0D3D2",
/* pixels */
"                                                                                 ",
"                                     ..                                          ",
"                                     ..                                          ",
"                                    ...                                          ",
"                                   .XXX.         .                               ",
"                          .        .XXXX.    .   .                               ",
"                          ....     .oXXXX....X...X.                              ",
"                          ....     .oXXXX....X...X.                              ",
"                          .XXX.....oOOOOOOOOX.oo.oX.. .                          ",
"                           .XXoO++++OOOO++++OX..OOoXX.                           ",
"                     ..... .oo+O+++OOXXXOO+++OOO+OoXX.                           ",
"                     ..... .oo+O+++OOXXXOO+++OOO+OoXX.                           ",
"                      .XXX.XXXooXXXXXOOO+OOOOOOOO+Ooo.                           ",
"                      .XXXoOooXXXOOOO+++++OOXoOOOO+OOo... .                      ",
"                       .ooOO++OOXXXXXOO++OOOoXooOO++++Ooo..                      ",
"                       ...oO+++OOoooXXXOOOOOOXXXoOOOO+OOOX.                      ",
"                       ...oO+++OOoooXXXOOOOOOXXXoOOOO+OOOX.                      ",
"                          .OOOo+OOOooooOO.oo.XXXXooOOOOXX.                       ",
"                        ..ooXXoOOooX.XXoOX..XoXX.XoooOoooX.                      ",
"                       .oooXoooOoXX..XXooX..X.XX.XooooooooX...                   ",
"                       .oooXoooOoXX..XXooX..X.XX.XooooooooX...                   ",
"                  .....oooXoooooX..@@..ooX..X.XXX.XooooXXXX.                     ",
"                   ..XXoooXoooooX..@@..Xo.@@......X..oX....                      ",
"                   ..XooXXooooXX.@@@@@@.X.@@@@@@#..XXooXX$                       ",
"                     .XoooooXX..%%%%&@@@..@@&%%%%*...XoooX$                      ",
"                     .XoooooXX..%%%%&@@@..@@&%%%%*...XoooX$                      ",
"                      .X$$oX..&#####&&&#@.&&&#####&**.XoooX$                     ",
"                       $ooo...&%%%%%%&&###&&%%%%%%&**.XooX$                      ",
"                      $XXXo.**%%$$$$%**###**%$$$$%%**%.XX$                       ",
"                      $XXXo.**%%$$$$%**###**%$$$$%%**%.XX$                       ",
"                       $XXX.**==-;;$$**###**$-;;$==**%.XX$                       ",
"                        $$X.**=:>$$>=&&###&&=>$$>:=**%.$$                        ",
"                          $$**=:-$$-:&&@#@&&:-$$-:=**$$                          ",
"                           $**&:,,,,:##@@@##:,,,,:&**$                           ",
"                           $**&:,,,,:##@@@##:,,,,:&**$                           ",
"                            $$&&###@@@@@&@@@@@###&&$$                            ",
"                            $$*&####@@@@&@@@@####&*$$                            ",
"                              $*&###############&*$                              ",
"                              $*&###############&*$                              ",
"                            $$$$$**&#########&%%$$$$$                            ",
"                           $<<<12$$$***&&&***$$$21<<<$                           ",
"                          $<33311444$5555555$44411333<$                          ",
"                          $<333112224664@466422211333<$                          ",
"                          $<333112224664@466422211333<$                          ",
"                        $$1<3332222722266622272222333<1$$                        ",
"                        $$1<<<1$47721<<222<<12774$1<<<1$$                        ",
"                        $$1<<<168772<77<1<77<277861<<<1$$                        ",
"                        $$1<<<168772<77<1<77<277861<<<1$$                        ",
"                        %%$11126877<7773<7337<77862111$%%                        ",
"                        **&$$$$64772<7733733737746$$$$&**                        ",
"                       %&&&&&&$6477137733733737746$&&&&&&%                       ",
"                       %###&$$ 64772<77337337<7746 $$&###%                       ",
"                       %###&$$ 64772<77337337<7746 $$&###%                       ",
"                       %###&$$ 6877<77773<77<27786 $$&###%                       ",
"                       %###&$$ $8772<33<12<<22778$ $$&###%                       ",
"                       %###&$$ $$$$$$$$$$$$$$$$$$$ $$&###%                       ",
"                       %###&$$ $$$$$$$$$$$$$$$$$$$ $$&###%                       ",
"                       %&&@@&&$647721<<<<<<<127746$&&@@&&%                       ",
"                       %&&@@&&$687711<<333<<117786$&&@@&&%                       ",
"                       %&&#%&&$68771111<3<11117786$&&%#&&%                       ",
"                       %&&&$$$ 68771<112$211<17786 $$$&&&%                       ",
"                       %&&&$$$ 68771<112$211<17786 $$$&&&%                       ",
"                        $$$$   64771<22$ $22<17746   $$$$                        ",
"                               $$$$$$$$$ $$$$$$$$$                               ",
"                               %&@@@#&&% %&&#@@@&%                               ",
"                               %&@@@#&&% %&&#@@@&%                               ",
"                               %&@@@#&&% %&&#@@@&%                               ",
"                               $2111111$ $1111112$                               ",
"                               221111112 211111122                               ",
"                               $$$$$$$$$ $$$$$$$$$                               ",
"                               $$$$$$$$$ $$$$$$$$$                               ",
"                               %&@@@@&&% %&&@@@@&%                               ",
"                               $$@@@@$$$ $$$@@@@$$                               ",
"                               $9$$$$99$ $99$$$$9$                               ",
"                               $9$$$$99$ $99$$$$9$                               ",
"                               $0999900$ $0099990$                               ",
"                               $0$$$$00$ $00$$$$0$                               ",
"                                $$$$$$$   $$$$$$$                                ",
"                                                                                 ",
"                                                                                 ",
"                                                                                 "
};
