/* XPM */
static char *_0760301e8b948489d87a6996b042cfcwtqi7I1HAebhVvJm[] = {
/* columns rows colors chars-per-pixel */
"81 81 25 1 ",
"  c None",
". c #5B290E",
"X c #954009",
"o c #C95D1C",
"O c #F68D4B",
"+ c #F4AD83",
"@ c black",
"# c #161419",
"$ c #413C40",
"% c #1F1D20",
"& c #E1E1E3",
"* c #ED8232",
"= c #833504",
"- c #C66427",
"; c #964B1F",
": c #49474C",
"> c #B36739",
", c #EA9777",
"< c #F9C19D",
"1 c #FBDCC8",
"2 c #010102",
"3 c #18161A",
"4 c #C0D3D2",
"5 c #BF3F32",
"6 c white",
/* pixels */
"                                                                                 ",
"                                                                                 ",
"                                                                                 ",
"                                            .                                    ",
"                                    .        .                                   ",
"                                     ....     ..                                 ",
"                                     ..XX...  ...    .                           ",
"                                     ..XX...  ...    .                           ",
"                                   .....XXXX. ...    .                           ",
"                       .       ..XXXXXXX.XXXX.XX.  ...                           ",
"                       .... ...XXXXooooXXooooXXX...XX.                           ",
"                       .... ...XXXXooooXXooooXXX...XX.                           ",
"                      .XXXX.XXXoo..oooooooooooooXXXXX.                           ",
"                      .Xooooooooo...oooooooooooo..X..X...                        ",
"                       .XXXoooooo..X........oo..O+...oXXX.                       ",
"                        ...Xooooooo.XXXO+OooXoXXooX..ooooX..                     ",
"                        ...Xooooooo.XXXO+OooXoXXooX..ooooX..                     ",
"                           .XXoooooo...XXXXX.o..XX.oooo..X.                      ",
"                   ..     .XooOOOoooooo.....oooo..o..XoXX.                       ",
"                   .......XoOOO+Ooooooooooooooooooo..XOooXX.                     ",
"                   .......XoOOO+Ooooooooooooooooooo..XOooXX.                     ",
"                   ..XXXXXooOOOO+OOOooooooooooooooo..X+OOooX....                 ",
"                     .XXoooooo.O+OOooooOooOOOoooooO..oooooooXX.                  ",
"                     .XXoo..XXXOOOOooOOOooOO+ooo.X+++OoooooX..                   ",
"                      ..XXoooooOooooO++OOoOO+Oooo.OOOOoooXX.                     ",
"                      ..XXoooooOooooO++OOoOO+Oooo.OOOOoooXX.                     ",
"                        ...ooooooooOO++OooOOOo...oOooooXX..                      ",
"                       .XXXooooooooOOooo.oOOO.XXXoo..ooooX..                     ",
"                      .XXXooooooooooo...XoooOooooooXX.ooooX.                     ",
"                      .XXXooooooooooo...XoooOooooooXX.ooooX.                     ",
"                     @@XXXXXoooooooooXXXoooooooooooooXXooooX@@                   ",
"                       @XXXXoooXooooooooooooooooooooooX@@XXX@@@                  ",
"                        @@@XXXXXooooooooooooooooXooooooXX@@@                     ",
"                          @XXXXooooXooooooooooXXXooXXoXXX.@                      ",
"                          @XXXXooooXooooooooooXXXooXXoXXX.@                      ",
"                        @@..XXXX.XXXooooooooo.XXXXoXXXX@@@@@                     ",
"                        @@@@...XXXXXoooooooooX..XXX@@.@                          ",
"                       @    @@.XXXXXXoooXXXXooXX.XXXX@                           ",
"                       @    @@.XXXXXXoooXXXXooXX.XXXX@                           ",
"                            @@@.XXXXXooXX@XXXooo.@....@                          ",
"                           @   @...XXXXXX.@@XX@@..@@@@@@@                        ",
"                              @#@@@..XXXX.@@.X@@..@@@@                           ",
"                            @@#$%%%@.XX..@##@.@@@.@$$#@                          ",
"                            @@#$%%%@.XX..@##@.@@@.@$$#@                          ",
"                            @@$$%%%#@..@@####@@@#@@$$$#@@                        ",
"                           @%%$$####@@@#######&&###%%$%@@                        ",
"                           @%%$#@**&@%%$####$%##&*@##$$%%@                       ",
"                           @%%$#@**&@%%$####$%##&*@##$$%%@                       ",
"                          @#$$#@=--&#$$&$%$$&$##&-=##$$%%@                       ",
"                          ;@@@@@=--&$&&&:$&&:&$$&-=@@#$##@                       ",
"                        >>,,,,,@=**&#$$&::&&:&::&*=;;@@@@;                       ",
"                        ;;,,,,,@=**&%::&::&&:&::&*=;;,,,,;                       ",
"                        ;;,,,,,@=**&%::&::&&:&::&*=;;,,,,;                       ",
"                        ;;<<,,@ =**&#$$&::&&:&$$&*=>>,>;;;                       ",
"                       >,,,,@@  =--&$&&&&:$$&$##&-=>>>;@@                        ",
"                       ;,,<,@@  @--&#$$:$%##$###&-@>>;@                          ",
"                       ;,,<,@@  @--&#$$:$%##$###&-@>>;@                          ",
"                       ;,,,,;;@ @@@@@@@@@@@@@@@@@@@@@@                           ",
"                       ;;;;;,,@ =--&$$$::::::$$$&-=                              ",
"                        ;;;@@@  =**&$$$:$$$$$$%%&*=                              ",
"                                =--&%$$$$%%%%###&-=                              ",
"                                =--&%$$$$%%%%###&-=                              ",
"                                =**&###%%####%%%&-=                              ",
"                                @@@@@@@@@@@@#%%%&*=                              ",
"                                ;,,,,>>>; @@@@@@@@@                              ",
"                                ;,,,,>>>; @@@@@@@@@                              ",
"                                @##%%###@ ;;,<111,;                              ",
"                                @@@@@@@@@ 2223%%%32                              ",
"                                ;>>>,>>>; @@##%%%##                              ",
"                                 @@@@@@>; @@@@@@@@                               ",
"                                 @@@@@@>; @@@@@@@@                               ",
"                                 @@@@@@@ ;>>>,>>>;                               ",
"                                   @@@@@ ;,,@@@@@@                               ",
"                                    @@@  @@@44445@                               ",
"                                    @@@  @@@44445@                               ",
"                                         @5545445@                               ",
"                                         @@@@@@@@@                               ",
"                                         @@@@@@@@@                               ",
"                                                                                 ",
"                                                                                 ",
"                                                                                 "
};
