/* XPM */
static char *_dadb90bb1c14dedbf0ce8b7651f2938vw8HOVroMjBdLWqy[] = {
/* columns rows colors chars-per-pixel */
"81 81 23 1 ",
"  c None",
". c #5B290E",
"X c #954009",
"o c #C95D1C",
"O c #F68D4B",
"+ c #F4AD83",
"@ c black",
"# c #413C40",
"$ c #1F1D20",
"% c #161419",
"& c #E1E1E3",
"* c #ED8232",
"= c #833504",
"- c #C66427",
"; c #49474C",
": c #964B1F",
"> c #B36739",
", c #EA9777",
"< c #F9C19D",
"1 c #FBDCC8",
"2 c #BF3F32",
"3 c #C0D3D2",
"4 c white",
/* pixels */
"                                                                                 ",
"                                            .                                    ",
"                                            .                                    ",
"                                    .        .                                   ",
"                                     ....     ..                                 ",
"                                     ..XX...  ...    .                           ",
"                                   .....XXXX. ...    .                           ",
"                                   .....XXXX. ...    .                           ",
"                       .       ..XXXXXXX.XXXX.XX.  ...                           ",
"                       .... ...XXXXooooXXooooXXX...XX.                           ",
"                      .XXXX.XXXoo..oooooooooooooXXXXX.                           ",
"                      .XXXX.XXXoo..oooooooooooooXXXXX.                           ",
"                      .Xooooooooo...oooooooooooo..X..X...                        ",
"                       .XXXoooooo..X........oo..O+...oXXX.                       ",
"                        ...Xooooooo.XXXO+OooXoXXooX..ooooX..                     ",
"                           .XXoooooo...XXXXX.o..XX.oooo..X.                      ",
"                           .XXoooooo...XXXXX.o..XX.oooo..X.                      ",
"                   ..     .XooOOOoooooo.....oooo..o..XoXX.                       ",
"                   .......XoOOO+Ooooooooooooooooooo..XOooXX.                     ",
"                   ..XXXXXooOOOO+OOOooooooooooooooo..X+OOooX....                 ",
"                   ..XXXXXooOOOO+OOOooooooooooooooo..X+OOooX....                 ",
"                     .XXoooooo.O+OOooooOooOOOoooooO..oooooooXX.                  ",
"                     .XXoo..XXXOOOOooOOOooOO+ooo.X+++OoooooX..                   ",
"                      ..XXoooooOooooO++OOoOO+Oooo.OOOOoooXX.                     ",
"                        ...ooooooooOO++OooOOOo...oOooooXX..                      ",
"                        ...ooooooooOO++OooOOOo...oOooooXX..                      ",
"                       .XXXooooooooOOooo.oOOO.XXXoo..ooooX..                     ",
"                      .XXXooooooooooo...XoooOooooooXX.ooooX.                     ",
"                     @@XXXXXoooooooooXXXoooooooooooooXXooooX@@                   ",
"                     @@XXXXXoooooooooXXXoooooooooooooXXooooX@@                   ",
"                       @XXXXoooXooooooooooooooooooooooX@@XXX@@@                  ",
"                        @@@XXXXXooooooooooooooooXooooooXX@@@                     ",
"                          @XXXXooooXooooooooooXXXooXXoXXX.@                      ",
"                        @@..XXXX.XXXooooooooo.XXXXoXXXX@@@@@                     ",
"                        @@..XXXX.XXXooooooooo.XXXXoXXXX@@@@@                     ",
"                        @@@@...XXXXXoooooooooX..XXX@@.@                          ",
"                       @    @@.XXXXXXoooXXXXooXX.XXXX@                           ",
"                            @@@.XXXXXooXX@XXXooo.@....@                          ",
"                            @@@.XXXXXooXX@XXXooo.@....@                          ",
"                           @   @...XXXXXX.@@XX@@..@@@@@@@                        ",
"                               @@@@..XXXX.@@.X@@..@@@                            ",
"                              @#$$$@.XX..@%%@.@@@.@##@                           ",
"                            @@##$$$%@..@@%%%%@@@%@@###@                          ",
"                            @@##$$$%@..@@%%%%@@@%@@###@                          ",
"                           @%%##%%%%@@@%%%%%%%&&%%%###%@@                        ",
"                           @$$##@**&@$$#%%%%#$%%&*@###$@@                        ",
"                           @$$#%=--&%##&#$##&#%%&-=%%#$@@                        ",
"                           @$$#%=--&%##&#$##&#%%&-=%%#$@@                        ",
"                           @$$#%=--&#&&&;#&&;&##&-=%%#$@@                        ",
"                           :@@@%=**&%##&;;&&;&;;&*=%%@@::                        ",
"                          :>,,,@=**&$;;&;;&&;&;;&*=@@,,>>:                       ",
"                          :>,,,@=**&%##&;;&&;&##&*=@@,,>>:                       ",
"                          :>,,,@=**&%##&;;&&;&##&*=@@,,>>:                       ",
"                          :,<<,@=--&#&&&&;##&#%%&-=@@,<,,:                       ",
"                          :,<<,@@--&%##;#$%%#%%%&-@@@,<,,:                       ",
"                          :<<<,@@@@@@@@@@@@@@@@@@@@@@,<<<:                       ",
"                          :<<<,@@@@@@@@@@@@@@@@@@@@@@,<<<:                       ",
"                          :<<<,@=--&###;;;;;;###&-=@@,<<<:                       ",
"                          :,111,=**&####;;;;####&*=,,11,,:                       ",
"                          :,111,=--&$####$####$$&-=,,11,,:                       ",
"                          :,<<:,=--&%%%$$$$$$%%%&-=,,:<,,:                       ",
"                          :,<<:,=--&%%%$$$$$$%%%&-=,,:<,,:                       ",
"                          :,,,@@=**&$$$%%@%%%$$$&*=@@@,,,:                       ",
"                           @@@@ =**&$$$%@ @@%$$$&*=  @@@@                        ",
"                                @@@@@@@@@ @@@@@@@@@                              ",
"                                @@@@@@@@@ @@@@@@@@@                              ",
"                                :,,11<<,: ::,<111,:                              ",
"                                :,,11<<,: ::,<111,:                              ",
"                                @%%$$$$$@ @@$$$$$%@                              ",
"                                %%%$$$$$% %%$$$$$%%                              ",
"                                %%%$$$$$% %%$$$$$%%                              ",
"                                @@@@@@@@@ @@@@@@@@@                              ",
"                                :,,<1<<,: ::,<11<,:                              ",
"                                :,,1111,: ::,1111,:                              ",
"                                :,,1111,: ::,1111,:                              ",
"                                @@@@@@@@@ @@@@@@@@@                              ",
"                                @2233332@ @@233332@                              ",
"                                @2232332@ @@232232@                              ",
"                                 @@@@@@@    @@@@@@                               ",
"                                 @@@@@@@    @@@@@@                               ",
"                                                                                 "
};
