/* XPM */
static char *b2c8cb9daa404e0e969f8c452945d672YyN3R5rOAKJZZvci[] = {
/* columns rows colors chars-per-pixel */
"81 81 133 2 ",
"   c #040301",
".  c #0C0501",
"X  c #050C00",
"o  c #0D0901",
"O  c #06050A",
"+  c #0D050C",
"@  c #030A0A",
"#  c #0B0A0A",
"$  c #110602",
"%  c #1B0204",
"&  c #120902",
"*  c #1A0C06",
"=  c #14030A",
"-  c #1B030E",
";  c #130B0A",
":  c #021200",
">  c #0B1000",
",  c #001D00",
"<  c #001009",
"1  c #0A170E",
"2  c #161000",
"3  c #12120D",
"4  c #1C1409",
"5  c #130212",
"6  c #151312",
"7  c #1E1B16",
"8  c #230000",
"9  c #2B0001",
"0  c #350000",
"q  c #211200",
"w  c #232220",
"e  c #1D761C",
"r  c #286917",
"t  c #2F6D1C",
"y  c #31671C",
"u  c #3E631E",
"i  c #336C1E",
"p  c #2E7019",
"a  c #3B4E2E",
"s  c #3E5924",
"d  c #3F552F",
"f  c #3B5C2B",
"g  c #395F30",
"h  c #2F6325",
"j  c #2F6C22",
"k  c #22672E",
"l  c #326623",
"z  c #3B6626",
"x  c #356A25",
"c  c #386925",
"v  c #37672A",
"b  c #3A652A",
"n  c #36692A",
"m  c #3F6929",
"M  c #227326",
"N  c #2B7826",
"B  c #257129",
"V  c #367026",
"C  c #3E702B",
"Z  c #3E6431",
"A  c #34643D",
"S  c #485915",
"D  c #415230",
"F  c #445D34",
"G  c #41622C",
"H  c #426232",
"J  c #50673B",
"K  c #EE1D19",
"L  c #FC1516",
"P  c #FE1C15",
"I  c #FF151E",
"U  c #F51E19",
"Y  c #FD1C1C",
"T  c #F3260B",
"R  c #E92010",
"E  c #E92A17",
"W  c #E6251C",
"Q  c #EC251B",
"!  c #F42315",
"~  c #FC2014",
"^  c #F3221D",
"/  c #F9211C",
"(  c #FF1523",
")  c #F61825",
"_  c #F91F20",
"`  c #FC1D21",
"'  c #FF1924",
"]  c #FF152A",
"[  c #FF132E",
"{  c #FF172C",
"}  c #FF152E",
"|  c #F31F2A",
" . c #FE192A",
".. c #FF182B",
"X. c #FB1732",
"o. c #FF1137",
"O. c #FF1434",
"+. c #DD2639",
"@. c #DA3136",
"#. c #E92622",
"$. c #EF2324",
"%. c #EB232D",
"&. c #F22222",
"*. c #F22124",
"=. c #FF2720",
"-. c #FF2131",
";. c #B77E1C",
":. c #FF1140",
">. c #DA3E42",
",. c #E92042",
"<. c #C28315",
"1. c #D18D17",
"2. c #ECEFE4",
"3. c #F5F7EA",
"4. c #FFFDEF",
"5. c #E1FFFD",
"6. c #EEFFFE",
"7. c #F8F7F5",
"8. c #FBF7F4",
"9. c #FDF7F7",
"0. c #FDFBF5",
"q. c #FCFFF6",
"w. c #FEFFF6",
"e. c #FFF5FF",
"r. c #F2FFFF",
"t. c #F8F9FB",
"y. c #FFFBF8",
"u. c #FBFFF8",
"i. c #FFFDFA",
"p. c #FFFEFB",
"a. c #FBF9FE",
"s. c #FFFFFD",
"d. c #FCFFFF",
/* pixels */
"1.1.1.1.1.1.1.1.1.1.1.1.1.1.1.1.1.1.1.1.1.1.1.1.1.1.1.1.1.1.1.1.1.1.1.1.1.1.1.1.1.1.1.1.1.1.1.1.1.1.1.1.1.1.1.1.1.1.1.1.1.1.1.1.1.1.1.1.1.1.1.1.1.1.1.1.1.1.1.1.1.",
"1.1.1.1.1.1.1.1.1.1.1.1.1.1.1.1.1.1.1.1.1.1.1.1.1.1.1.1.1.1.1.1.1.1.1.1.1.1.1.1.1.1.1.1.1.1.1.1.1.1.1.1.1.1.1.1.1.1.1.1.1.1.1.1.1.1.1.1.1.1.1.1.1.1.1.1.1.1.1.1.1.",
"1.1.1.;.;.;.;.;.;.;.;.;.;.;.;.;.;.;.;.;.;.;.;.;.;.;.;.;.;.;.;.;.;.;.;.1.1.1.1.1.1.1.1.1.1.1.1.1.1.1.1.1.1.1.1.1.1.1.1.1.1.1.1.1.1.1.1.1.1.1.1.1.1.1.1.1.1.1.1.1.1.",
";.;.;.1.1.1.1.1.1.1.1.1.1.1.1.1.1.1.1.1.1.1.1.1.1.1.1.1.1.1.1.1.1.1.1.1.1.1.1.1.1.1.1.1.1.1.1.1.1.1.1.1.1.1.1.1.1.1.1.1.1.1.1.1.;.;.;.;.;.;.;.;.;.;.;.1.1.1.1.1.1.",
"1.1.1.1.1.1.1.1.1.1.1.1.1.1.1.1.1.1.1.1.1.1.1.1.1.1.1.1.1.1.1.1.1.1.1.1.1.1.1.1.1.1.1.1.1.1.1.1.1.1.1.1.1.1.1.1.1.1.1.1.1.1.1.1.1.1.1.1.1.1.1.1.1.1.1.;.;.;.;.;.;.",
"1.1.1.1.1.1.1.1.1.1.1.1.1.1.1.1.1.1.1.1.1.1.1.1.1.1.1.1.1.1.1.1.1.1.1.1.1.1.1.1.1.1.1.1.1.1.1.1.1.1.1.1.1.1.1.1.1.1.1.1.1.1.1.1.1.1.1.1.1.1.1.1.1.1.1.1.1.1.1.1.1.",
"1.1.1.1.1.1.1.1.1.1.1.1.1.1.1.1.1.1.1.1.1.1.1.1.1.1.1.1.1.1.1.1.1.1.1.1.1.1.1.1.1.1.1.1.1.1.1.1.1.1.1.1.1.1.1.1.1.1.1.1.1.1.1.1.1.1.1.1.1.1.1.1.1.1.1.1.1.1.1.1.1.",
";.;.;.;.;.;.;.;.;.;.;.;.;.;.;.;.;.;.;.;.;.;.;.;.;.;.;.;.;.;.;.;.;.;.;.;.;.;.;.;.;.;.;.;.;.;.;.;.<.<.<.<.<.<.<.1.1.1.1.1.1.1.1.1.1.1.1.1.1.1.1.1.1.1.1.1.1.1.1.1.1.",
"1.1.1.1.<.<.<.<.<.<.<.<.<.<.<.<.<.<.<.<.<.<.<.<.<.<.<.<.<.<.<.<.<.<.<.<.<.<.<.<.<.<.<.<.<.<.<.<.1.1.1.1.1.1.1.1.1.1.1.1.1.1.1.1.1.1.1.1.1.1.1.1.1.1.1.1.1.1.1.1.1.",
"1.1.1.1.1.1.1.1.1.1.1.1.1.1.1.1.1.1.1.1.1.1.1.1.1.1.1.1.1.1.1.1.1.1.1.1.1.1.1.1.1.1.1.1.1.1.1.1.1.1.1.1.1.1.1.1.1.1.1.1.1.1.1.1.1.1.1.1.1.1.1.1.1.1.1.1.1.1.1.1.1.",
"1.1.1.1.1.1.1.1.1.1.1.1.1.1.1.1.1.1.1.1.1.1.1.1.1.1.1.1.1.1.1.1.1.1.1.1.1.1.1.1.1.1.1.1.1.1.1.1.1.1.1.1.1.1.1.1.1.1.1.1.1.1.1.1.1.1.1.1.1.1.1.1.1.1.1.1.1.1.1.1.1.",
"1.1.1.1.1.1.1.1.1.1.1.1.1.1.1.1.1.1.1.1.1.1.1.1.1.1.1.1.1.1.1.1.1.1.1.1.1.1.1.1.1.1.1.1.1.1.1.1.1.1.1.1.1.1.1.1.1.1.1.1.1.1.1.1.1.1.1.1.1.1.1.1.1.1.1.1.1.1.1.1.1.",
";.;.;.;.;.;.;.;.;.;.;.;.;.;.;.;.;.;.;.;.;.;.;.;.;.;.;.;.;.1.; o o o o o o o o o o o o o o o $ $ o 1.1.1.1.1.1.1.1.1.1.1.1.1.1.1.1.1.1.1.1.1.1.1.1.1.1.1.1.1.1.1.1.",
"1.1.1.1.1.1.1.1.1.1.1.1.1.1.1.1.1.1.1.1.1.1.1.1.1.1.1.1.1.1.< $ $ $ $ $ $ $ $ $ $ o o $ O O # # % 1.1.1.1.1.1.1.1.1.1.1.1.1.1.1.1.1.1.1.1.1.1.1.1.1.1.1.1.1.1.1.1.",
"1.1.1.1.1.1.1.1.1.1.1.1.1.1.1.1.1.1.1.1.1.1.1.1.1.o % o o % o.P P P P P Y Y Y Y Y $.$.! K K 8 8 $ $ $ X X 1.1.1.1.1.1.1.1.1.1.1.1.1.1.1.1.1.1.1.1.1.1.1.1.1.1.1.1.",
"1.1.1.1.1.1.1.1.1.1.1.1.1.1.1.1.1.1.1.1.1.1.1.1.1.o % o o % o.P P P P P Y Y Y Y Y $.$.! K K 8 8 $ $ $ X X 1.1.1.1.1.1.1.1.1.1.1.1.1.1.1.1.1.1.1.1.1.1.1.1.1.1.1.1.",
"1.1.1.1.1.1.1.1.1.1.1.1.1.1.1.1.1.1.1.1.1.1.1.1.. . : 8 8 9 -./ / / / / _ _ _ _ _ %.%.~ Q Q = = O $ $ ; ; * $ $ 1.1.1.;.;.;.;.;.;.;.;.;.;.;.;.;.;.;.;.;.;.;.;.;.;.",
"1.1.1.1.1.1.1.1.1.1.1.1.1.;.;.;.;.;.;.;.;.;.;.;.o o % o o ; ,.P P P P P ..........O.O.*.} [ > > 8 o o     > : : 1.1.1.1.1.1.1.1.1.1.1.1.1.1.1.1.1.1.1.1.1.1.1.1.1.",
"1.1.1.1.1.1.1.1.;.;.;.;.;.1.1.1.1.1.1.1.1.1.o o s.s.s.s.s.p.. o o o o o ' ' Y ! P ` ` / ( ( ] ] ! o o . . x j j $ $ 1.1.1.1.1.1.1.1.1.1.1.1.1.1.1.1.1.1.1.1.1.1.1.",
"1.1.1.1.1.1.1.1.1.1.1.1.1.1.1.1.1.1.1.1.1.1.o o s.s.s.s.s.p.. o o o o o ' ' Y ! P ` ` / ( ( ] ] ! o o . . x j j $ $ 1.1.1.1.1.1.1.1.1.1.1.1.1.1.1.1.1.1.1.1.1.1.1.",
"1.1.1.1.1.1.1.1.1.1.1.1.1.1.1.1.1.1.1.1.1.o o o s.s.s.s.s.p.. o o o o o ! ! Y Y Y Y Y Y ^ ^ ! ! P & & . . x j j o o o 1.1.1.1.1.1.1.1.1.1.1.1.1.1.1.1.1.1.1.1.1.1.",
"1.1.1.1.1.1.1.1.1.1.1.1.1.1.1.1.1.# # o o s.s.s.s.s.s.s.s.s.s.p.p.p.p.p.o o & 9 ^ P P &.P P o o & : : . . x j j o o o o o 1.1.1.1.1.1.1.1.1.1.1.1.1.1.1.1.1.1.1.1.",
"1.1.1.1.1.1.1.1.1.1.1.1.1.1.1.1.1.. . $ o s.s.s.s.s.s.s.s.s.s.s.s.s.s.s.o o # o W P P $.~ ~ o o + $ $ . . x j j o o o o o 1.1.1.1.1.1.1.1.1.1.1.1.1.1.1.1.1.1.1.1.",
"1.1.1.1.1.1.1.1.1.1.1.1.1.1.1.1.1.. . 6 6 s.s.s.s.s.s.s.s.p.p.s.s.s.s.s.$ $ : & P E E ] } } o o o o o , , b i i       o o 1.1.1.1.1.1.1.1.1.1.1.1.1.1.1.1.1.1.1.1.",
"1.1.1.1.1.1.1.1.1.1.1.1.1.1.1.1.1.. . 6 6 s.s.s.s.s.s.s.s.p.p.s.s.s.s.s.$ $ : & P E E ] } } o o o o o , , b i i       o o 1.1.1.1.1.1.1.1.1.1.1.1.1.1.1.1.1.1.1.1.",
"1.1.1.1.1.;.;.;.;.;.;.;.;.;.;.; ; p.p.s.s.s.s.s.s.s.s.s.s.s.s.s.s.s.s.s.= = . X P Y Y 2 : : i i i i i C C x t t . . . p.p.. . o 1.1.1.1.1.1.1.1.1.1.1.1.1.1.1.1.1.",
"1.1.1.1.1.1.1.1.<.<.<.<.<.<.<.o $ p.p.s.8.s.s.s.s.s.s.s.s.s.t.s.s.s.s.s.X X % q L R R , + + b b b b b i i l n n . .   s.s.$ $ o o o ;.;.;.;.;.;.;.;.;.;.;.;.;.;.;.",
"1.1.1.1.1.1.1.1.1.1.1.1.1.1.1.o $ s.s.s.p.o o o o o o o o ; 9.s.s.s.s.s.e.e.p.5.> ; ; N m m i i i i i Z g X o o p.p.p.s.s.$ $ $ o o 1.1.1.1.1.1.1.1.1.1.1.1.1.1.1.",
"1.1.1.1.1.1.1.1.1.1.1.1.1.1.1.. . u.u.s.a.o o o o o ; - - . s.s.s.s.s.s.u.u.s.8.% $ $ g x x v v j l l s s o . . s.s.s.s.s.$ $ o . . 1.1.1.1.1.1.1.1.1.1.1.1.1.1.1.",
"1.1.1.1.1.1.1.1.1.1.1.1.1.1.1.. . u.u.s.a.o o o o o ; - - . s.s.s.s.s.s.u.u.s.8.% $ $ g x x v v j l l s s o . . s.s.s.s.s.$ $ o . . 1.1.1.1.1.1.1.1.1.1.1.1.1.1.1.",
"1.1.1.1.1.1.1.1.1.1.1.1.1.1.1.& . w.w.s.3.o o o o o : X X : w.w.w.w.p.p.y.y.p.2.: > > b x x b b x H H a a # . . s.s.s.s.s.$ $ o 7 7 1.1.1.1.1.1.1.1.1.1.1.1.1.1.1.",
"1.1.1.1.1.1.1.1.1.1.1.1.o o o o $ o o . X p p p p p x b b c X $ $ $ $ $ $ $ $ X b c c c x x c c c X X o o s.s.s.s.s.s.s.s.$ $ o o o o ;.;.1.1.1.1.1.1.1.1.1.1.1.1.",
"1.1.1.1.1.1.1.1.1.1.1.1.o o o o . o o . X p p p p p x b b c X $ $ $ $ $ $ $ $ X b c c c x x c c c X X o o s.s.s.s.s.s.s.s.$ $ o o o o 1.1.1.1.1.1.1.1.1.1.1.1.1.1.",
"1.1.1.1.1.1.1.1.1.1.1.1.o o X t c c c c c b x x c c x x x x x i i H o $ x x x x x x x x x x z z j o o # # s.s.s.s.s.s.s.s.$ $ $ # # o & 1.1.1.1.1.1.1.1.1.1.1.1.1.",
"1.1.1.1.1.1.1.1.1.1.1.1.o o   t c c c c c b x x c c x x x x x i i H o $ x x x x x x x x x x z z j o o # # s.s.s.s.s.s.s.s.$ $ $ # # o o 1.1.1.1.1.1.1.1.1.1.1.1.1.",
"1.1.1.1.1.1.1.1.1.1.1.1.o o   t c c c c c b x x v c c c c c c i i H o $ c c c c c c c c c c x c j o o # # s.s.s.s.s.s.s.s.$ $ o $ $ $ o 1.1.1.1.1.1.1.1.1.1.1.1.1.",
";.;.;.;.;.;.;.;.;.;.;.;.o o   t c c c c c n x x b g b b b b b G H D o . b b b c b c b b b b Z Z b > o w w y.s.s.s.s.s.p.p.X X o 9 9 ; o 1.1.1.1.1.1.1.1.1.1.1.1.1.",
"1.1.1.1.1.1.<.<.<.<.<.<.o o   t c c c c c n x x b g b b b b c G H D o . b b c c c b b b b b Z Z b > o w w y.s.s.s.s.s.p.p.X X o 9 9 ; o 1.1.1.1.1.1.1.1.1.1.1.1.1.",
"1.1.1.1.1.1.1.1.1.1.1.1.o o X t t B B u y j M M $ # $ $ $ & ; o & & o . o o o o o = = X $ $ = = o s.s.8.8.s.s.s.4.4.4.o o P P P Y Y o o 1.1.1.1.1.1.1.1.1.1.1.1.1.",
"1.1.1.1.1.1.1.1.1.1.1.1.o o X t t B B u y j M M $ # $ $ $ & ; o & & o o o o o o . = = X $ $ $ $ o s.s.8.8.s.s.s.4.4.4.o o P P P Y Y o o 1.1.1.1.1.1.1.1.1.1.1.1.1.",
"1.1.1.1.1.1.1.1.1.1.1.1.o o X t B G G x k o 8 8 & : $ o o o p.p.p.p.p.p.p.p.p.p.p.w.w.X $ $ H H G o o 3 3 8.s.s.6.6.p.% % P P P Y Y o o 1.1.1.1.1.1.1.1.1.1.1.1.1.",
"1.1.1.1.1.1.1.1.1.1.1.1.o o X t u V V S f 5 . . + $ ; & ; o 8.s.s.s.s.s.s.s.s.t.t.a.a.+ = = j j x X X . . y.s.s.0.0.w.o o P P P Y Y o o 1.1.1.1.1.1.1.1.1.1.1.1.1.",
"1.1.1.1.1.1.1.1.1.1.1.1.o o X t u V V S f 5 . . + $ ; ; ; o 8.s.s.s.s.s.s.s.s.t.t.a.a.+ = = x x x X X . . y.s.s.0.0.w.o o P P P Y Y o o 1.1.1.1.1.1.1.1.1.1.1.1.1.",
"1.1.1.1.1.1.1.1.1.1.1.1.% % X c A o o : o P ` ` $ o ; s.s.s.s.s.s.s.s.s.y.y.s.u.u.= = H i i c c j & & X X % $ $ o o : Y Y P P P Y Y o o ;.;.;.;.;.;.;.;.;.;.;.;.;.",
"1.1.1.1.1.1.1.1.1.1.1.1.% % X c A o o : o P ` ` $ o ; s.s.s.s.s.s.s.s.s.p.p.s.u.u.= = H i i c c j o o X X % $ $ o o : Y Y P P P Y Y o o 1.1.1.1.1.1.1.1.1.1.1.1.1.",
"1.1.1.1.1.1.1.1.1.1.1.1.o o X c e o o + > P ` ` $ o ; s.s.s.s.s.s.s.s.s.s.s.s.p.p.o o Z x x c c j o o 8 8 X $ $ @ @ % ] ] P P P Y Y o o 1.1.1.1.1.1.1.1.1.1.1.1.1.",
"1.1.1.1.1.1.1.1.1.1.1.1.$ $ o X o X.X...#.P ` ` $ o ; s.s.s.s.s.s.s.s.s.$ $ $ X X F F n x c c c x & o 0 0 P P P } } *.I I P P P Y Y o o 1.1.1.1.1.1.1.1.1.1.1.1.1.",
"1.1.1.1.1.1.;.;.;.1.1.1.$ $ o X o X.X...#.Y ` ` $ o ; s.s.s.s.s.s.s.s.s.$ $ $ X X F F n x c c c x & & 0 0 P P P } } *.I I P P P Y Y o o 1.1.1.1.1.1.1.1.1.1.1.1.1.",
"1.1.1.1.1.1.1.1.1.;.;.;.O O   4 . U U _ ..Y T T . o & r.r.p.r.s.s.s.s.s.$ $ o X X c c c c c c c c X X > > P Q Q Y Y Y Y Y Y Y ` >.>.* 1.1.1.1.1.1.1.1.1.1.1.1.1.1.",
"1.1.1.1.1.1.1.1.1.1.1.1.O O   4 . U Y _ ..Y T T . o & r.r.p.r.s.s.s.s.s.$ $ o X X c c c c c c z c X X > > P Q Q Y Y Y Y Y Y Y ` >.>.* 1.1.1.1.1.1.1.1.1.1.1.1.1.1.",
"1.1.1.1.1.1.1.1.1.1.1.1.1.1.1.  . U Y _ ..` P P o 8 o e.e.s.s.s.s.s.s.s.$ $ o X X c c c c c j x x : : : : U Y Y Y Y Y Y Y = = O 1 1 1.1.1.1.1.1.1.1.1.1.1.1.1.1.1.",
"1.1.1.1.1.1.1.1.1.1.1.1.1.1.1.o . U Y _ ..P Y Y $ % . s.s.6.e.s.s.s.s.s.$ $ o X X c c c c c c c c X X 2 2 L I I Y Y Y Y Y : : o & & 1.1.1.1.1.1.1.1.1.1.1.1.1.1.1.",
"1.1.1.1.1.1.1.1.1.1.1.1.1.1.1.o $ Y Y _ ..P Y Y $ % . s.s.6.e.s.s.s.s.s.$ $ o X X c c c c c c c c X X 2 2 L I I Y Y Y Y Y X X o & & 1.1.1.1.1.1.1.1.1.1.1.1.1.1.1.",
"1.1.1.1.1.1.1.1.1.1.1.1.1.1.1.o $ Y Y _ ..~ Y Y O.( +.X X ; y.s.s.s.s.s.$ $ o X X c c c c c b b x G G d d % X X Y Y Y Y Y : : X # # 1.1.1.1.1.1.1.1.1.1.1.1.1.1.1.",
"1.1.1.1.1.1.1.1.1.1.1.1.1.1.1.* = | | =.:.Y Y Y Y Y P & & $ s.s.s.s.s.s.$ $ $ X X c c r n n c c c c c J J = = = Y Y U U Y $ $ o     1.1.1.1.1.1.1.1.1.1.1.1.1.1.1.",
"1.1.1.1.1.1.1.1.1.1.1.1.1.1.1.. 2 ) ) ( @.Y Y Y Y Y P & & $ s.s.s.s.s.s.    .     F F l v v c c c c c h h & 8 8 Y Y P P P . . . 1.1.1.1.1.1.1.1.1.1.1.1.1.1.1.1.1.",
"1.1.;.1.1.1.1.1.1.1.1.1.1.1.1.1.1.= = + # Y Y Y Y Y P & & $ s.s.s.s.s.s.s.p.s.y.y.$ $ Z c c c c c c c x x z x x $ $ $ $ $ 1.1.1.1.1.1.1.1.1.1.1.1.1.1.1.1.1.1.1.1.",
"1.1.1.;.;.;.;.;.;.;.;.;.;.;.;.;.;.= = + # Y Y Y Y Y P & & $ s.s.s.s.s.s.p.p.s.y.y.$ $ Z c c c c c c c x x z x x $ $ $ $ $ 1.1.1.1.1.1.1.1.1.1.1.1.1.1.1.1.1.1.1.1.",
"1.1.1.1.1.1.1.1.1.1.1.1.1.1.1.1.1.o o o : Y Y Y Y Y P & & $ s.s.s.s.s.s.s.s.s.p.p.= = b x x c c c c c c c x z z $ $ $ $ $ ;.;.;.;.;.;.;.;.;.;.1.1.1.1.1.1.1.1.1.1.",
"1.1.1.1.1.1.1.1.1.1.1.1.1.1.1.1.1.1.1.1.1.o - - ' P ^ ! ! P , $ $ # s.s.s.s.s.s.s.s.s.o $ $ x x x x x c c c i i $ $ & 1.1.1.1.1.1.1.1.1.1.1.1.;.;.;.;.;.;.;.;.;.;.",
"1.1.1.1.1.1.1.1.1.1.1.1.1.1.1.1.1.1.1.1.1.$ # # ' P ( Y Y Q : $ $ # s.s.s.s.s.s.s.s.s.o $ $ c c c c c x x c x x o o o 1.1.1.1.1.1.1.1.1.1.1.1.1.1.1.1.1.1.1.1.1.1.",
"1.1.1.1.1.1.1.1.1.1.1.1.1.1.1.1.1.1.1.1.1.$ @ @ +...` } ] | 8 $ $ # s.s.s.s.s.s.s.p.p.3 . . b b b b b v b H f f 3 3   1.1.1.1.1.1.1.1.1.1.1.1.1.1.1.1.1.1.1.1.1.1.",
"1.1.1.1.1.1.1.1.1.1.1.1.1.1.1.1.1.1.1.1.1.$ @ @ +...` ] ] | 8 $ $ # s.s.s.s.s.s.s.p.p.3 . . b b b b b v b H f f 3 3   1.1.1.1.1.1.1.1.1.1.1.1.1.1.1.1.1.1.1.1.1.1.",
"1.1.1.1.1.1.1.1.1.1.1.1.1.1.1.1.1.1.1.1.1.1.1.1.$ 8   O O X ; $ $ # s.s.s.s.s.s.s.e.e.u.s.s.= = = = = o o ; > > 1.1.1.1.1.1.1.1.1.1.1.1.1.1.1.1.1.1.1.1.1.1.1.1.1.",
"1.1.1.1.1.1.1.1.1.1.1.1.1.1.1.1.1.1.1.1.1.1.1.1.o $ o o o . . o o . s.s.s.s.s.s.s.s.s.s.p.p.o o o o o o o o . . 1.1.1.1.1.1.1.1.1.1.1.1.1.1.1.1.1.1.1.1.1.1.1.1.1.",
"1.1.1.1.1.1.1.1.1.1.1.1.1.1.1.1.1.1.1.1.1.1.1.1.1.1.1.1.1.1.o o o   o o o o o o o . o o . . o o $ 1.1.1.1.1.1.1.1.1.1.1.1.1.1.1.1.1.1.1.1.1.1.1.1.1.1.1.1.1.1.1.1.",
"1.1.1.1.1.1.1.1.1.1.1.1.1.1.1.1.1.1.1.1.1.1.1.1.1.1.1.1.1.1.o o o   o o o o o o o o o o . . & & $ 1.1.1.1.1.1.1.1.1.1.1.1.1.1.1.1.1.1.1.1.1.1.1.1.1.1.1.1.1.1.1.1.",
"1.1.1.1.1.1.1.1.1.1.1.1.1.1.1.1.1.1.1.1.1.1.1.1.1.1.1.1.1.1.; o o o o $ & & & & & o o o o o $ $ o 1.1.1.1.1.1.1.1.1.1.1.1.1.1.1.1.1.1.1.1.1.1.1.1.1.1.1.1.1.1.1.1.",
"1.1.1.1.1.1.1.1.1.1.1.1.1.1.1.1.1.1.1.1.1.1.1.1.1.1.1.1.1.1.1.      . . . . . . . . . . . . . . 1.1.1.1.1.1.1.1.1.1.1.1.1.1.1.1.1.1.1.1.1.1.1.1.1.1.1.1.1.1.1.1.1.",
"1.1.1.1.1.1.1.1.1.1.1.1.1.1.1.1.1.1.1.1.1.1.1.1.1.1.1.1.1.1.1.1.1.1.1.1.1.1.1.1.1.1.1.1.1.1.1.1.1.1.1.1.1.1.1.1.1.1.1.1.1.1.1.1.1.1.1.1.1.1.1.1.1.1.1.1.1.1.1.1.1.",
"1.1.1.1.1.1.1.1.1.1.1.1.1.1.1.1.1.1.1.1.1.1.1.1.1.1.1.1.1.1.1.1.1.1.1.1.1.1.1.1.1.1.1.1.1.1.1.1.1.1.1.1.1.1.1.1.1.1.1.1.1.1.1.1.1.1.1.1.1.1.1.1.1.1.1.1.1.1.1.1.1.",
"1.1.1.1.1.1.;.;.1.1.1.1.1.1.1.1.1.1.1.;.;.;.;.1.1.1.1.1.1.1.1.1.1.1.1.1.1.1.1.1.1.1.1.1.1.1.1.1.1.1.1.1.1.1.1.1.1.1.1.1.1.1.1.1.1.1.1.1.1.1.1.1.1.1.1.1.1.1.1.1.1.",
"1.1.1.1.1.1.1.1.;.;.;.;.;.;.;.;.;.;.;.1.1.1.1.1.1.1.1.1.1.1.1.1.1.1.1.1.1.1.1.1.1.1.1.1.1.;.;.;.;.;.;.;.;.;.;.;.;.;.;.;.;.;.;.;.;.1.1.1.1.1.1.1.1.1.1.1.1.1.1.1.1.",
"1.1.1.1.1.1.1.1.1.1.1.1.1.1.1.1.1.1.1.1.1.1.1.1.1.1.1.1.1.1.1.1.1.1.1.1.1.1.1.1.1.1.1.1.1.1.1.1.1.1.1.1.1.1.1.1.1.1.1.1.1.1.1.1.1.;.;.;.;.1.1.1.1.1.1.1.1.1.1.1.1.",
"1.1.1.1.1.1.1.1.1.1.1.1.1.1.1.1.1.1.1.1.1.1.1.1.1.1.1.1.1.1.1.1.1.1.1.1.1.1.1.1.1.1.1.1.;.;.;.1.1.1.1.1.1.1.1.1.1.1.1.1.1.1.1.1.1.1.1.1.1.;.;.;.;.;.;.;.1.1.1.1.1.",
"1.1.1.1.1.1.1.1.1.1.1.1.1.1.1.1.1.1.1.1.1.1.1.1.1.1.1.1.1.1.1.1.1.1.1.1.1.1.1.;.;.;.;.;.1.1.1.1.1.1.1.1.1.1.1.1.1.1.1.1.1.1.1.1.1.1.1.1.1.1.1.1.1.1.1.1.;.;.;.;.;.",
"1.1.1.1.1.1.1.1.1.1.1.1.1.1.1.1.1.1.1.1.1.1.1.1.1.1.1.1.1.1.1.;.;.;.;.;.;.;.;.1.1.1.1.1.1.1.1.1.1.1.1.1.1.1.1.1.1.1.1.1.1.1.1.1.1.1.1.1.1.1.1.1.1.1.1.1.1.1.1.1.1.",
"1.1.1.1.1.1.1.1.1.1.1.1.1.1.1.1.1.1.1.1.1.1.1.1.1.1.1.1.1.1.1.1.1.1.1.1.1.1.1.1.1.1.1.1.1.1.1.1.1.1.1.1.1.1.1.1.1.1.1.1.1.1.1.1.1.1.1.1.1.1.1.1.1.1.1.1.1.1.1.1.1.",
";.;.;.;.;.;.;.;.;.;.;.;.;.;.;.;.;.;.;.;.1.1.1.1.1.1.1.1.1.1.1.1.1.1.1.1.1.1.1.1.1.1.1.1.1.1.1.1.1.1.1.1.1.1.1.1.1.1.1.1.1.1.1.1.1.1.1.1.1.1.1.1.1.1.1.1.1.1.1.1.1.",
"1.1.1.1.1.1.1.1.1.1.1.1.1.1.1.1.1.1.1.1.;.;.;.;.1.1.1.1.1.1.1.1.1.1.1.1.1.1.1.1.1.1.1.1.1.1.1.1.1.1.1.1.1.1.1.1.1.1.1.1.1.1.1.1.1.1.1.1.1.1.1.1.1.1.1.1.1.1.1.1.1.",
"1.1.1.1.1.1.1.1.1.1.1.1.1.1.1.1.1.1.1.1.1.1.1.1.1.1.1.1.1.1.1.1.1.1.1.1.1.1.1.1.1.1.1.1.1.1.1.1.1.1.1.1.1.1.1.1.1.1.1.1.1.1.1.1.1.1.1.1.1.1.1.1.1.1.1.1.1.1.1.1.1."
};
