/* XPM */
static char *b18327b318d3466191c074692b2750ebvwoE9AKKmzUFNqLJ[] = {
/* columns rows colors chars-per-pixel */
"81 81 36 1 ",
"  c None",
". c black",
"X c #010102",
"o c #161419",
"O c #1F1D20",
"+ c #252425",
"@ c gray16",
"# c #363436",
"$ c #393939",
"% c #4B2510",
"& c #573A28",
"* c #413C40",
"= c #572260",
"- c #49474C",
"; c #4A4949",
": c #585549",
"> c #565656",
", c gray35",
"< c #5B585C",
"1 c gray42",
"2 c #767676",
"3 c #964B1F",
"4 c #B36739",
"5 c #807D7D",
"6 c #EA9777",
"7 c #7C2E89",
"8 c #A734B3",
"9 c #9C9999",
"0 c #9B989C",
"q c #AFA992",
"w c #F9C19D",
"e c #C0C0C0",
"r c #C8C6C9",
"t c #FBDCC8",
"y c #E1E1E3",
"u c white",
/* pixels */
"                                                                                 ",
"                                                                                 ",
"                                                                                 ",
"                                                                                 ",
"                                     ++                                          ",
"                                    +++                                          ",
"                                   +<<<+                                         ",
"                                   +<<<<+    +                                   ",
"                                   +<<<<+    +                                   ",
"                                   +2<<<<++++<++++                               ",
"                              +++++200000000<+2++2;+                             ",
"                              20rrrr0000rrrr0<+0002<++                           ",
"                           ++2r0rrr00<<<00rrr00rr02<++                           ",
"                           ++2r0rrr00<<<00rrr00rr02<++                           ",
"                          +<<<22<<<<<000r00000000r02;;                           ",
"                          2002<<00000rrrr000,rr000r022++                         ",
"                         #000r0r000rrrrr00rrrrrrrrrrrr02+                        ",
"                         +200rrrrrr0000r00000r0rrr00rr002##                      ",
"                         +200rrrrrr0000r00000r0rrr00rr002##                      ",
"                          +000rrrrww0000000000wrrrr0000<+                        ",
"                         +rrr<rrwwww666ww6ww6wwwwrrr009e+                        ",
"                        #rr<<rrrwwwwwwwwwwwwwwwwwrrr0009e++                      ",
"                        *r<rr00wwwwtt66w6666wwwwwwrr0000222                      ",
"                        *r<rr00wwwwtt66w6666wwwwwwrr0000222                      ",
"                      <<r2<000<wwwwttwwwwwttwwwwwwrr22<++                        ",
"                      ##r<0000<wwwwwwttwwwtttwwwwwwr222<.OO                      ",
"                     ###rr000+<wwwwwwtttwwttwwwwwwwr<<22222O                     ",
"                      ###.0<<&6w;;;;;66wtw66;;;;;w6&++<22##                      ",
"                      ###.0<<&6w;;;;;66wtw66;;;;;w6&++<22##                      ",
"                        .00&&36;<<<<>66www66><<<<;64&&<2<##                      ",
"                      ..<<&334;<....<44www44<....<;433&<.                        ",
"                        .<&334qq00:..44www44.0:..qq433&<.                        ",
"                         .&334qu22.2q66www66q2.22uq433&.                         ",
"                         .&334qu22.2q66www66q2.22uq433&.                         ",
"                          .&&4qu00-0u66twt66u0-00uq4&&.                          ",
"                           ..46uuuuuuwwtttwwuuuuuu6&..                           ",
"                             .66wwwttttt6tttttwww66.                             ",
"                             .46wwwwtttt6ttttwwww64.                             ",
"                             .46wwwwtttt6ttttwwww64.                             ",
"                              .466wwwwwwwwwwwww664.                              ",
"                             .....46wwwwwwwww63.....                             ",
"                           ..O9===..444666444..===9O..                           ",
"                          .9995O====.%%%%%%%.====O9999.                          ",
"                          .9995O====.%%%%%%%.====O9999.                          ",
"                          .ee5OOOO77=..wtw..=77OOOO5ee.                          ",
"                         .Oee5ooOOey7==.w.==7yeOOoo9eeO.                         ",
"                         @.ee5O.11yee==...77euu99.O9ee.@                         ",
"                         @5eeO..99y@eee=.=eeeey55..@995@                         ",
"                         @5eeO..99y@eee=.=eeeey55..@995@                         ",
"                         @599...55y@eeee1eeeeey55..@995@                         ",
"                         @9ee9@.55yeeeee1eeeeey11..1ee5@                         ",
"                         @@99e9.11yeeeee1eeeeee11.1e99.@                         ",
"                          .@@9e.55yeueee1eeeuee11.e911.                          ",
"                          .@@9e.55yeueee1eeeuee11.e911.                          ",
"                           ..59.11yeueee1eeeuee55.99..                           ",
"                             .5.11y99999199999911.@.                             ",
"                              .@.................@.                              ",
"                               ...y111111,11115...                               ",
"                               ...y111111,11115...                               ",
"                                ..y55555,155555..                                ",
"                                ..y99995@155995..                                ",
"                                ..yee991.@119e5..                                ",
"                                ..9e9@@...@@9e9..                                ",
"                                ..9e9@@...@@9e9..                                ",
"                                ..99999. .55959..                                ",
"                                @@19999. .55951@@                                ",
"                                ..@1911@ .1191@..                                ",
"                                ..@1911. o1191@..                                ",
"                                ..@1911. o1191@..                                ",
"                                ..$1911. .1191$..                                ",
"                                ..@1911@ @1191@..                                ",
"                                ...1111. .1111...                                ",
"                                ..7....7.7....7..                                ",
"                                ..7....7.7....7..                                ",
"                                ..877778.877778..                                ",
"                                ..8....8.8....8..                                ",
"                                  ...... ......                                  ",
"                                                                                 ",
"                                                                                 ",
"                                                                                 ",
"                                                                                 "
};
