/* XPM */
static char *dbae44ddedee41db9714be78408bb7d0vFh8CXh1UWztfKIX[] = {
/* columns rows colors chars-per-pixel */
"81 81 37 1 ",
"  c black",
". c #161419",
"X c #1F1D20",
"o c #252425",
"O c gray16",
"+ c #363436",
"@ c #393939",
"# c #4B2510",
"$ c #573A28",
"% c #413C40",
"& c #572260",
"* c #49474C",
"= c #4A4949",
"- c #585549",
"; c #565656",
": c gray35",
"> c #5B585C",
", c gray42",
"< c #767676",
"1 c #964B1F",
"2 c #B77E1C",
"3 c #B36739",
"4 c #807D7D",
"5 c #C28315",
"6 c #D18D17",
"7 c #EA9777",
"8 c #7C2E89",
"9 c #A734B3",
"0 c #9C9999",
"q c #9B989C",
"w c #AFA992",
"e c #F9C19D",
"r c #C0C0C0",
"t c #C8C6C9",
"y c #FBDCC8",
"u c #E1E1E3",
"i c white",
/* pixels */
"666666666666666666666666666666666666666666666666666666666666666666666666666666666",
"666666666666666666666666666666666666666666666666666666666666666666666666666666666",
"666222222222222222222222222222222226666666666666666666666666666666666666666666666",
"222666666666666666666666666666666666666666666666666666666666666622222222222666666",
"6666666666666666666666666666666666666oo666666666666666666666666666666666666222222",
"666666666666666666666666666666666666ooo666666666666666666666666666666666666666666",
"66666666666666666666666666666666666o>>>o66666666666666666666666666666666666666666",
"22222222222222222222222222222222222o>>>>o2222o22555555566666666666666666666666666",
"66665555555555555555555555555555555o>>>>o5555o55666666666666666666666666666666666",
"66666666666666666666666666666666666o<>>>>oooo>oooo6666666666666666666666666666666",
"666666666666666666666666666666ooooo<qqqqqqqq>o<oo<=o66666666666666666666666666666",
"666666666666666666666666666666<qttttqqqqttttq>oqqq<>oo666666666666666666666666666",
"222222222222222222222222222oo<tqtttqq>>>qqtttqqttq<>oo666666666666666666666666666",
"666666666666666666666666666oo<tqtttqq>>>qqtttqqttq<>oo666666666666666666666666666",
"66666666666666666666666666o>>><<>>>>>qqqtqqqqqqqqtq<==666666666666666666666666666",
"66666666666666666666666666<qq<>>qqqqqttttqqq:ttqqqtq<<oo6666666666666666666666666",
"6666666666666666666666666+qqqtqtqqqtttttqqttttttttttttq<o662222222222222222222222",
"6666666666666222222222222o<qqttttttqqqqtqqqqqtqtttqqttqq<++6666666666666666666666",
"6666666622222666666666666o<qqttttttqqqqtqqqqqtqtttqqttqq<++6666666666666666666666",
"66666666666666666666666666oqqqtttteeqqqqqqqqqqettttqqqq>o666666666666666666666666",
"6666666666666666666666666ottt>tteeee777ee7ee7eeeetttqq0ro666666666666666666666666",
"666666666666666666666666+tt>>ttteeeeeeeeeeeeeeeeetttqqq0roo6666666666666666666666",
"666666666666666666666666%t>ttqqeeeeyy77e7777eeeeeettqqqq<<<6666666666666666666666",
"666666666666666666666666%t>ttqqeeeeyy77e7777eeeeeettqqqq<<<6666666666666666666666",
"6666666666666666666666>>t<>qqq>eeeeyyeeeeeyyeeeeeett<<>oo666666666666666666666666",
"6666622222222222222222++t>qqqq>eeeeeeyyeeeyyyeeeeeet<<<> XX2222266666666666666666",
"666666665555555556666+++ttqqqo>eeeeeeyyyeeyyeeeeeeet>><<<<<X666622222222222222222",
"6666666666666666666666+++ q>>$7e=====77eye77=====e7$oo><<++6666666666666666666666",
"6666666666666666666666+++ q>>$7e=====77eye77=====e7$oo><<++6666666666666666666666",
"666666666666666666666666 qq$$17=>>>>;77eee77;>>>>=73$$><>++6666666666666666666666",
"6666666666666666666666  >>$113=>    >33eee33>    >=311$> 666666666666666666666666",
"666666666666666666666666 >$113wwqq-  33eee33 q-  ww311$> 222222222222666666666666",
"6666666666666666666666666 $113wi<< <w77eee77w< <<iw311$ 6666666666666666666666666",
"6666666666666666666666666 $113wi<< <w77eee77w< <<iw311$ 6666666666666666666666666",
"66666666666666666666666666 $$3wiqq*qi77yey77iq*qqiw3$$ 66666666666666666666666666",
"666666666666666666666666666  37iiiiiieeyyyeeiiiiii7$  666666666666666666666666666",
"22222222222222222222222222222 77eeeyyyyy7yyyyyeee77 66666666666666666666666666666",
"66666655555555555555555566666 37eeeeyyyy7yyyyeeee73 66666666666666666666666666666",
"66666666666666666666666666666 37eeeeyyyy7yyyyeeee73 66666666666666666666666666666",
"666666666666666666666666666666 377eeeeeeeeeeeee773 666666666666666666666666666666",
"66666666666666666666666666666     37eeeeeeeee71     66666666666666666666666666666",
"666666666666666666666666666  X0&&&  333777333  &&&0X  666666666666666666666666666",
"66666666666666666666666666 0004X&&&& ####### &&&&X0000 66666666666666666666666666",
"66666666666666666666666666 0004X&&&& ####### &&&&X0000 22222222222222222222222222",
"66666666666666666666666666 rr4XXXX88&  eye  &88XXXX4rr 66666666666666666666666666",
"6666666666666666666666666 Xrr4..XXru8&& e &&8urXX..0rrX 6666666666666666666666666",
"6666666666666666666666666O rr4X ,,urr&&   88rii00 X0rr O6666666666666666666666666",
"6666662226666666666666666O4rrX  00uOrrr& &rrrru44  O004O6666666666666666666666666",
"6666666662222222226666222O4rrX  00uOrrr& &rrrru44  O004O6666666666666666666666666",
"6666666666666666662222666O400   44uOrrrr,rrrrru44  O004O6666666666666666666666666",
"6666666666666666666666666O0rr0O 44urrrrr,rrrrru,,  ,rr4O6666666666666666666666666",
"6666666666666666666666666OO00r0 ,,urrrrr,rrrrrr,, ,r00 O6666666666666666666666666",
"66666666666666666666666666 OO0r 44urirrr,rrrirr,, r0,, 66666666666666666666666666",
"66666666666666666666666666 OO0r 44urirrr,rrrirr,, r0,, 66666666666666666666666666",
"666666666666666666666666666  40 ,,urirrr,rrrirr44 00  666666666666666666666666666",
"66666666666666666666666666666 4 ,,u00000,000000,, O 66666666666666666666666666666",
"662666666666666666666666666666 O                 O 666666666666666666666666666666",
"6662222222222222222222222222266   u,,,,,,:,,,,4   6666666666666666666666666666666",
"6666666666666666666666666666666   u,,,,,,:,,,,4   2222222222222222222226666666666",
"66666666666666666666666666666666  u44444:,44444  66666666666666666666662222222222",
"66666666666666666666666666666222  u00004O,44004  66666666666666666666666666666666",
"66666666666666666666666666666666  urr00, O,,0r4  66666666666666666666666666666666",
"66666666666666666666666666666666  0r0OO   OO0r0  66666666666666666666666666666666",
"66666666666666666666666666666666  0r0OO   OO0r0  66666666666666666666666666666666",
"66666666666666666666666666666666  00000 6 44040  66666666666666666666666666666666",
"66666666666666666666666666666666OO,0000 6 4404,OO66666666666666666666666666666666",
"66666666666666666666666666666666  O,0,,O6 ,,0,O  66666666666666666666666666666666",
"66666666666666666666666666666666  O,0,, 6.,,0,O  66666666666666666666666666666666",
"66666666666666666666666666666666  O,0,, 6.,,0,O  66666666666666666666666666666666",
"66666666666666666666666666666666  @,0,, 6 ,,0,@  66666666666666666666666666666666",
"66666666666666666666666666666666  O,0,,O6O,,0,O  66666666666666666666666666666666",
"66666622666666666662222666666666   ,,,, 6 ,,,,   66666666666666666666666666666666",
"66666666222222222226666666666666  8    8 8    8  22222222222222226666666666666666",
"66666666666666666666666666666666  8    8 8    8  66666666666666662222666666666666",
"66666666666666666666666666666666  988889 988889  66666666666666666666222222266666",
"66666666666666666666666666666666  9    9 9    9  66666666666666666666666666622222",
"6666666666666666666666666666666222      6      6666666666666666666666666666666666",
"666666666666666666666666666666666666666666666666666666666666666666666666666666666",
"222222222222222222226666666666666666666666666666666666666666666666666666666666666",
"666666666666666666662222666666666666666666666666666666666666666666666666666666666",
"666666666666666666666666666666666666666666666666666666666666666666666666666666666"
};
