/* XPM */
static char *_e59d45c4b4c4405b0206589753715c7gq8mbTqHW3piAgUZ[] = {
/* columns rows colors chars-per-pixel */
"81 81 165 2 ",
"   c #660000",
".  c #6D0000",
"X  c #740202",
"o  c #7C0202",
"O  c #710802",
"+  c #7F0C03",
"@  c #760808",
"#  c #7E0A0A",
"$  c #6E1C0B",
"%  c #781407",
"&  c #7F100A",
"*  c #72260F",
"=  c #7E2A11",
"-  c #79351A",
";  c #4A0476",
":  c #840000",
">  c #8C0000",
",  c #830904",
"<  c #8D0B05",
"1  c #830C0C",
"2  c #8B0C0C",
"3  c #930101",
"4  c #980303",
"5  c #930C04",
"6  c #990B04",
"7  c #950B0B",
"8  c #9B0C0B",
"9  c #8B1104",
"0  c #8E1907",
"q  c #8E1A09",
"w  c #951306",
"e  c #9A1507",
"r  c #9E1807",
"t  c #9F1708",
"y  c #971808",
"u  c #9B1D0A",
"i  c #861111",
"p  c #8D1313",
"a  c #8D1A16",
"s  c #941313",
"d  c #9C1313",
"f  c #9E1A12",
"g  c #941A1A",
"h  c #9B1B1B",
"j  c #A00E04",
"k  c #A31E0B",
"l  c #A21414",
"z  c #AA1515",
"x  c #A41C1C",
"c  c #A81C1C",
"v  c #8E270B",
"b  c #96230B",
"n  c #99260B",
"m  c #952C0D",
"M  c #9F2B0D",
"N  c #95320D",
"B  c #9D330F",
"V  c #972317",
"C  c #992819",
"Z  c #843A1D",
"A  c #943810",
"S  c #A2270D",
"D  c #A52A0E",
"F  c #A02017",
"G  c #A52E10",
"H  c #A82E10",
"J  c #A0261F",
"K  c #A23410",
"L  c #A53A12",
"P  c #AB3A16",
"I  c #B03111",
"U  c #B73D15",
"Y  c #9E2120",
"T  c #8A3321",
"R  c #973520",
"E  c #9D3C28",
"W  c #A42323",
"Q  c #AA2525",
"!  c #A12C27",
"~  c #A72929",
"^  c #AC2929",
"/  c #B02525",
"(  c #B22D2D",
")  c #B92B2B",
"_  c #A9392A",
"`  c #AE3631",
"'  c #B63232",
"]  c #BA3535",
"[  c #B73D34",
"{  c #BD3A3A",
"}  c #C13E3E",
"|  c #A94515",
" . c #A04813",
".. c #AD4B17",
"X. c #A34218",
"o. c #AD4A18",
"O. c #B44015",
"+. c #B14E18",
"@. c #AC5117",
"#. c #A55916",
"$. c #AD5319",
"%. c #AC5C1A",
"&. c #B1541C",
"*. c #B35C1D",
"=. c #AB661A",
"-. c #AF6D1B",
";. c #B3661E",
":. c #B16A1D",
">. c #B4751F",
",. c #B77E1C",
"<. c #984F27",
"1. c #90462A",
"2. c #9B5031",
"3. c #AF4924",
"4. c #AC5120",
"5. c #B9592C",
"6. c #A04030",
"7. c #A84734",
"8. c #A94F3B",
"9. c #BA4933",
"0. c #B8463A",
"q. c #B9483F",
"w. c #A25A32",
"e. c #AD543C",
"r. c #BF5735",
"t. c #BE5A31",
"y. c #B56520",
"u. c #B96C22",
"i. c #BB7425",
"p. c #BB7A24",
"a. c #BE7E28",
"s. c #C6563F",
"d. c #C07E28",
"f. c #C36736",
"g. c #C57B33",
"h. c #C8703B",
"j. c #CC7C3D",
"k. c #AF4040",
"l. c #BE4742",
"z. c #BF4F44",
"x. c #C44343",
"c. c #C84747",
"v. c #C14944",
"b. c #C94949",
"n. c #CB4B4B",
"m. c #CB4D4D",
"M. c #CC4E4E",
"N. c #CE5151",
"B. c #D25252",
"V. c #CB6344",
"C. c #CB6A43",
"Z. c #E56060",
"A. c #BE8127",
"S. c #C28315",
"D. c #D18D17",
"F. c #C2852A",
"G. c #C2892A",
"H. c #C8932F",
"J. c #CA8536",
"K. c #6606A0",
"L. c #7E08C4",
"P. c #6723C0",
"I. c #890BD3",
"U. c #8E0AE1",
"Y. c #9E19EB",
/* pixels */
"D.D.D.D.D.D.D.D.D.D.D.D.D.D.D.D.D.D.D.D.D.D.D.D.D.D.D.D.D.D.D.D.D.D.D.D.D.D.D.D.D.D.D.D.D.D.D.D.D.D.D.D.D.D.D.D.D.D.D.D.D.D.D.D.D.D.D.D.D.D.D.D.D.D.D.D.D.D.D.D.D.",
"D.D.D.D.D.D.D.D.D.D.D.D.D.D.D.D.D.D.D.D.D.D.D.D.D.D.D.D.D.D.D.D.D.D.D.D.D.D.D.D.D.D.D.D.D.D.D.D.D.D.D.D.D.D.D.D.D.D.D.D.D.D.D.D.D.D.D.D.D.D.D.D.D.D.D.D.D.D.D.D.D.",
"D.D.D.,.,.,.,.,.,.,.,.,.,.,.,.,.,.,.,.,.,.,.,.,.,.,.,.,.,.,.,.,.,.,.,.D.D.D.D.D.D.D.D.D.D.D.D.D.D.D.D.D.D.D.D.D.D.D.D.D.D.D.D.D.D.D.D.D.D.D.D.D.D.D.D.D.D.D.D.D.D.",
",.,.,.D.D.D.D.D.D.D.D.D.D.D.D.D.D.D.D.D.D.D.D.D.D.D.D.D.D.D.D.D.D.D.D.D.D.D.D.D.D.D.D.D.D.D.D.D.D.D.D.D.D.D.D.D.D.D.D.D.D.D.D.D.,.,.,.,.,.,.,.,.,.,.,.D.D.D.D.D.D.",
"D.D.D.D.D.D.D.D.D.D.D.D.D.D.D.D.D.D.D.D.D.D.D.D.D.D.D.D.D.D.D.D.D.D.D.D.D.D.D.D.D.D.D.D.D.D.D.D.D.D.D.D.D.D.D.D.D.D.D.D.D.D.D.D.D.D.D.D.D.D.D.D.D.D.D.,.,.,.,.,.,.",
"D.D.D.D.D.D.D.D.D.D.D.D.D.D.D.D.D.D.D.D.D.D.D.D.D.D.D.D.D.D.D.D.D.D.D.D.D.D.D.D.D.D.D.D.D.D.D.D.D.D.D.D.D.D.D.D.D.D.D.D.D.D.D.D.D.D.D.D.D.D.D.D.D.D.D.D.D.D.D.D.D.",
"D.D.D.D.D.D.D.D.D.D.D.D.D.D.D.D.D.D.D.D.D.D.D.D.D.D.D.D.D.D.D.D.D.D.D.D.D.D.D.D.D.D.D.D.D.D.D.D.D.D.D.D.D.D.D.D.D.D.D.D.D.D.D.D.D.D.D.D.D.D.D.D.D.D.D.D.D.D.D.D.D.",
",.,.,.,.,.,.,.,.,.,.,.,.,.,.,.,.,.,.,.,.,.,.,.,.,.,.,.,.,.,.,.,.,.,.,.,.,.,.,.,.,.,.,.,.,.,.,.,.S.S.S.S.S.S.S.D.D.D.D.D.D.D.D.D.D.D.D.D.D.D.D.D.D.D.D.D.D.D.D.D.D.",
"D.D.D.D.S.S.S.S.S.S.S.S.S.S.S.S.S.S.S.S.S.S.S.S.S.S.S.S.S.S.S.S.S.S.S.S.S.S.S.S.S.S.S.S.S.S.S.S.D.D.D.D.D.D.D.D.D.D.D.D.D.D.D.D.D.D.D.D.D.D.D.D.D.D.D.D.D.D.D.D.D.",
"D.D.D.D.D.D.D.D.D.D.D.D.D.D.D.D.D.D.D.D.D.D.D.D.D.D.D.D.D.D.D.D.D.D.D.D.D.D.D.D.D.D.D.D.D.D.D.D.D.D.D.D.D.D.D.D.D.D.D.D.D.D.D.D.D.D.D.D.D.D.D.D.D.D.D.D.D.D.D.D.D.",
"D.D.D.D.D.D.D.D.D.D.D.D.D.D.D.D.D.D.D.D.D.D.D.D.D.D.D.D.D.D.D.D.D.D.D.D.D.D.D.D.D.D.D.D.D.D.D.D.D.D.D.D.D.D.D.D.D.D.D.D.D.D.D.D.D.L.D.D.D.D.D.D.D.D.D.D.D.D.D.D.D.",
"D.D.D.D.D.D.D.D.D.D.D.D.D.D.D.D.D.D.D.D.D.D.D.D.D.D.D.D.D.D.D.D.D.D.D.D.D.D.D.D.D.D.D.D.D.D.D.D.D.D.D.D.D.D.D.D.D.D.D.D.D.D.D.D.L.K.D.D.D.D.D.D.D.D.D.D.D.D.D.D.D.",
",.,.,.,.,.,.,.,.,.,.,.,.,.,.,.,.,.,.,.,.,.,.,.,.,.,.,.,.,.D.D.D.D.D.D.D.D.D.D.D.D.D.D.D.D.D.D.D.D.D.D.D.D.D.D.L.L.L.U.L.K.D.D.U.L.D.D.D.D.D.D.D.D.D.D.D.D.D.D.D.D.",
"D.D.D.D.D.D.D.D.D.D.D.D.D.D.D.D.D.D.D.D.D.D.D.D.D.D.D.D.D.D.D.D.D.D.D.D.D.D.D.D.D.D.D.D.D.D.D.D.D.D.D.D.D.L.L.L.D.D.L.U.K.K.; U.L.L.K.D.D.D.D.D.D.D.D.D.D.D.D.D.D.",
"D.D.D.D.D.D.D.D.D.D.D.D.D.D.D.D.D.D.D.D.D.D.D.D.D.D.D.D.D.D.D.D.D.D.D.D.D.D.D.D.D.D.D.D.D.D.D.D.D.D.D.L.K.D.D.D.D.L.L.D.D.D.D.D.D.D.D.D.D.D.D.D.D.D.D.D.D.D.D.D.D.",
"D.D.D.D.D.D.D.D.D.D.D.D.D.D.D.D.D.D.D.D.D.D.D.D.D.D.D.D.D.D.D.D.D.D.D.D.D.D.D.D.D.D.D.D.D.D.D.D.D.D.D.U.D.D.D.L.L.K.D.D.D.D.D.D.D.D.D.D.D.D.D.D.D.D.D.D.D.D.D.D.D.",
"D.D.D.D.D.D.D.D.D.D.D.D.D.D.D.D.D.D.D.D.D.D.D.D.D.D.D.D.D.D.D.D.D.D.D.D.D.D.,.,.,.,.,.,.,.D.D.D.D.D.D.K.D.D.D.L.K.D.D.,.,.,.,.,.,.,.,.,.,.,.,.,.,.,.,.,.,.,.,.,.,.",
"D.D.D.D.D.D.D.D.D.D.D.D.D.,.,.,.,.,.,.,.,.,.,.,.,.,.,.,.,.,.,.,.,.,.,.,.,.,.D.D.D.D.D.D.D.D.D.D.D.L.L.D.D.D.L.D.D.D.D.D.D.D.D.D.D.D.D.D.D.D.D.D.D.D.D.D.D.D.D.D.D.",
"D.D.D.D.D.D.D.D.,.,.,.,.,.D.D.D.D.D.D.D.D.D.D.D.D.D.D.D.D.D.D.D.D.D.D.D.D.D.D.D.D.D.D.D.D.D.D.D.D.L.K.D.D.L.K.D.D.D.D.D.D.D.D.D.D.D.D.D.D.D.D.D.D.D.D.D.D.D.D.D.D.",
"D.D.D.D.D.D.D.D.D.D.D.D.D.D.D.D.D.D.D.D.D.D.D.D.D.D.D.D.D.D.D.D.D.D.D.D.D.D.D.D.D.D.D.D.D.D.D.D.U.U.D.D.L.U.D.D.D.D.D.D.D.D.D.D.D.D.D.D.D.D.D.D.D.D.D.D.D.D.D.D.D.",
"D.D.D.D.D.D.D.D.D.D.D.D.D.D.D.D.D.D.D.D.D.D.D.D.D.D.D.D.D.D.D.D.D.D.D.D.} } > D.D.D.D.D.D.D.D.D.U.K.D.D.L.K.D.D.D.D.D.D.D.D.D.D.D.D.D.D.D.D.D.D.D.D.D.D.D.D.D.D.D.",
"D.D.D.D.D.D.D.D.D.D.D.D.D.D.D.D.D.D.D.D.D.D.D.D.D.D.D.D.D.D.D.D.^ { ] ' K.K.K.K.< < D.D.D.D.D.D.U.D.D.L.D.D.D.D.D.D.D.D.D.D.D.D.D.D.D.D.D.D.D.D.D.D.D.D.D.D.D.D.D.",
"D.D.D.D.D.D.D.D.D.D.D.D.D.D.D.D.D.D.D.D.D.D.D.D.D.D.D.D.D.D.D.D.^ c.x.l.L.I.Y.Y.K.K.J 7 D.D.D.D.P.D.D.K.D.D.D.D.D.D.D.D.D.D.D.D.D.D.D.D.D.D.D.D.D.D.D.D.D.D.D.D.D.",
"D.D.D.D.D.D.D.D.D.D.D.D.D.D.D.D.D.D.D.D.D.D.D.D.D.D.D.D.D.D.] { ^ Q c.R I.L.K.K.Y.L.; 7 l D.D.L.D.D.L.D.D.D.D.D.D.D.D.D.D.D.D.D.D.D.D.D.D.D.D.D.D.D.D.D.D.D.D.D.D.",
"D.D.D.D.D.D.D.D.D.D.D.D.D.D.D.D.D.D.D.D.D.D.D.D.D.D.D.D.D.{ { ] d ] f ; K.q.0.V L.Y.L.; x.h 9 L.L.L.L.D.D.D.D.D.D.D.D.D.D.D.D.D.D.D.D.D.D.D.D.D.D.D.D.D.D.D.D.D.D.",
"D.D.D.D.D.,.,.,.,.,.,.,.,.,.,.,.,.,.,.,.,.,.,.,.D.D.D.D.] > 3 x 4 3 F U.K.b.} d 7 q.Y.L.b./ ( s p X D.D.D.D.D.D.D.,.,.,.,.,.,.,.D.D.D.D.D.D.D.D.D.D.D.D.D.D.D.D.D.",
"D.D.D.D.D.D.D.D.S.S.S.S.S.S.S.S.S.D.D.D.D.D.D.,.D.D.D.g s > / m.l 3 [ L.L.e.{ 8 8 b.2.L._ W C 7.= * * D.D.D.D.D.D.D.D.D.D.D.D.D.,.,.,.,.,.,.,.,.,.,.,.,.,.,.,.,.,.",
"D.D.D.D.D.D.D.D.D.D.D.D.D.D.D.D.D.D.D.D.D.D.D.D.D.D.D.1 ' 4 b.M.c > l 8.Y.Y.e.} > C K.Y.L.K.Y.Y.Y.Y.Y.; D.D.D.D.D.D.D.D.D.D.D.D.D.D.D.D.D.D.D.D.D.D.D.D.D.D.D.D.D.",
"D.D.D.D.D.D.D.D.D.D.D.D.D.D.D.D.D.D.D.D.D.D.D.D.D.D.o : d b.< m.l > 7 ] Y.Y.Y.K.K.L.Y.L.Y.Y.Y.Y.L.K.Y.L.; D.D.D.D.D.D.D.D.D.D.D.D.D.D.D.D.D.D.D.D.D.D.D.D.D.D.D.D.",
"D.D.D.D.D.D.D.D.D.D.D.D.D.D.D.D.D.D.D.D.D.D.D.D.D.x.d > / ] c } ' > d { ~ o $ Z L.L.K.L.L.K.l.x s { ' L.L.K.x D.D.D.D.D.D.D.D.D.D.D.D.D.D.D.D.D.D.D.D.D.D.D.D.D.D.",
"D.D.D.D.D.D.D.D.D.D.D.D.D.D.D.D.D.D.D.D.D.D.D.D.D.} s 3 l ] Q b.~ ( ^ c : o 1 T Y.<.1.Y.L.K.v.> ^ c.x.L.Y.L.W D.D.D.D.D.D.D.D.D.D.D.D.D.D.D.D.D.D.D.D.D.D.D.D.D.D.",
"D.D.D.D.D.D.D.D.D.D.D.D.D.D.D.D.D.D.D.D.D.D.D.D.D.W > : b.c.M.b.c.7 ] 3 3 7 6.L.K.< W K.L.L.K.{ W } ] L.K.; Q s ,.,.,.,.,.,.,.,.,.,.,.,.,.D.D.D.D.D.D.D.D.D.D.D.D.",
"D.D.D.D.D.D.D.D.D.D.D.D.D.D.D.D.D.D.D.D.D.D.D.D.D.m.] x c ] > 5 &.*.@.L C.c.V L.Y.L.E L.; - L.Y.L.Y.Y.; - ] ] ' s D.D.D.D.D.D.D.D.D.D.D.D.D.D.D.D.D.D.D.D.D.D.D.D.",
"D.D.D.D.D.D.D.D.D.D.D.D.D.D.D.D.D.D.D.D.D.D.D.D.^ M.c x ] 7 > y.w 3 3 y y.j.5.7.Y.Y.Y.Y.Z 2 % K.L.L.L.T a ' ] z s D.D.D.D.D.D.D.D.D.D.D.D.D.D.D.D.D.D.D.D.D.D.D.D.",
"D.D.D.D.D.D.D.D.D.D.D.D.D.D.D.D.D.D.D.D.D.D.D.x.c.7 3 { 3 ' t.a.> > 3 3 6 S F.V.z.w.L.L.< : > ` & ! ` Y # 2 h ' s D.D.D.D.D.D.D.D.D.D.D.D.D.D.D.D.D.D.D.D.D.D.D.D.",
"D.D.D.D.D.D.D.D.D.D.D.D.D.D.D.D.D.D.D.D.D.D.] ] 3 3 { 4 ' x.G.u.3 3 > 3 3 3 3 &.K 8 7 { 3 3 x.b.x : ] ] 2 o ] z s D.D.D.D.D.D.D.D.D.D.D.D.D.D.D.D.D.D.D.D.D.D.D.D.",
",.,.,.,.,.,.,.,.,.,.,.,.,.,.,.,.,.,.,.,.,.,.> x ( b.b.M.7 p.y 3 3 > k.k.3 3 3 3 > e P ..m.' d ' 2 : 2 ^ p ] / z D.D.D.D.D.D.D.D.D.D.D.D.D.D.D.D.D.D.D.D.D.D.D.D.D.",
"D.D.D.D.D.D.S.S.S.S.S.S.S.S.S.S.S.S.S.S.S.s x } M.( x M.3 *.3 3 k.B.Z.k.3 3 3 3 3 3 3 r h.{ l 7 s : ~ ] ( # # s D.D.D.D.D.D.D.D.D.D.D.D.D.D.D.D.D.D.D.D.D.D.D.D.D.",
"D.D.D.D.D.D.D.D.D.D.D.D.D.D.D.D.D.D.D.D.D.d ^ b.M.l { M.b S > 3 ) Z.Z.k.Z.k.3 3 > > 3 > M G.q { ] 1 ~ ( 1 . . D.D.D.D.D.D.D.D.D.D.D.D.D.D.D.D.D.D.D.D.D.D.D.D.D.D.",
"D.D.D.D.D.D.D.D.D.D.D.D.D.D.D.D.D.D.D.D.D.d > ] x.x x.c.g.> 3 > t I U k.Z.H 6 3 3 > > > > @.3.x.h X ~ s X X X D.D.D.D.D.D.D.D.D.D.D.D.D.D.D.D.D.D.D.D.D.D.D.D.D.D.",
"D.D.D.D.D.D.D.D.D.D.D.D.D.D.D.D.D.D.D.D.^ > > ] m.^ d G.u.> 3 B.Z.Z.O.k.Z.I k.B.Z.k.> > b p.V : h 1 # g ( D.D.D.D.D.D.D.D.D.D.D.D.D.D.D.D.D.D.D.D.D.D.D.D.D.D.D.D.",
"D.D.D.D.D.D.D.D.D.D.D.D.D.D.D.D.D.D.D.x.m.' > ] b.Q $.G.> > > D Z.w 6 k.Z.k.k.Z.Z.k.3 > m G.0 o ] 2 , ' ( D.D.D.D.D.D.D.D.D.D.D.D.D.D.D.D.D.D.D.D.D.D.D.D.D.D.D.D.",
"D.D.D.D.D.D.D.D.D.D.D.D.D.D.D.D.D.D.D.s x.{ Q 4 ( 3 i.i.3 3 > G B.Z.k.) k.B.Z.k.Z.k.> : *.X.2 B.' ' s s 1 D.D.D.D.D.D.D.D.D.D.D.D.D.D.D.D.D.D.D.D.D.D.D.D.D.D.D.D.",
"D.D.D.D.D.D.D.D.D.D.D.D.D.D.D.D.D.D.{ ^ ^ > d 6 x P G.3 3 3 3 k.k.Z.k.Z.5 k.Z.k.Z.S > : i.9.{ { ~ ^ X 1 ,.,.,.,.,.,.,.,.,.,.,.,.,.,.,.,.,.,.,.,.,.,.,.,.,.,.,.,.,.",
"D.D.D.D.D.D.D.D.D.D.D.D.D.D.D.D.D.] d > : ] / d c.G.n 3 3 3 j Z.Z.Z.Z.) B.Z.B.B.> > > ;., Q x.h ] ' 1 D.D.D.D.D.D.D.D.D.D.D.D.D.D.D.D.D.D.D.D.D.D.D.D.D.D.D.D.D.D.",
"D.D.D.D.D.D.D.D.D.D.D.D.D.D.D.D.D.7 7 4 8 c.b.l > o.> 3 3 3 3 3 k.B.B.B.B.k.k.Z.> 3 < a.o s { h ] ' ^ D.D.D.D.D.D.D.D.D.D.D.D.D.D.D.D.D.D.D.D.D.D.D.D.D.D.D.D.D.D.",
"D.D.D.D.D.D.D.D.D.D.D.D.D.D.D.D.D.( b.} b.c.{ 8 L M 3 4 3 3 3 > 3 3 3 6 Z.k.Z.k.> 3 $.g.o Y { ' ^ ' 1 D.D.D.D.D.D.D.D.D.D.D.D.D.D.D.D.D.D.D.D.D.D.D.D.D.D.D.D.D.D.",
"D.D.D.D.D.D.,.,.,.D.D.D.D.D.D.D.D.( b.b.b./ Q 3 H.3 3 3 3 > > > 3 3 3 e k.k.k.u > u i.s.o h ] ] # i D.D.D.D.D.D.D.D.D.D.D.D.D.D.D.D.D.D.D.D.D.D.D.D.D.D.D.D.D.D.D.",
"D.D.D.D.D.D.D.D.D.,.,.,.,.,.,.,.{ 3 x Q 7 M.b.J.d.> > > Z.Z.Z.u ) 3 > 3 > 3 > > w G.r.x.o o @ o o @ D.D.D.D.D.D.D.D.D.D.D.D.D.D.D.D.D.D.D.D.D.D.D.D.D.D.D.D.D.D.D.",
"D.D.D.D.D.D.D.D.D.D.D.D.D.D.D.} x 3 x.m.N.c.h.G.3 3 3 3 B.) B.Z.Z.5 3 3 > 3 3 : K %.d W ~ i 1 ~ h D.D.D.D.D.D.D.D.D.D.D.D.D.D.D.D.D.D.D.D.D.D.D.D.D.D.D.D.D.D.D.D.",
"D.D.D.D.D.D.D.D.D.D.D.D.D.D.D.~ ] 4 N.M.m._ g.o.3 3 k.k.k.3 k ) Z.) ) > > 3 3 > p.n > : s 1 p ' ~ D.D.D.D.D.D.D.D.D.D.D.D.D.D.D.D.D.D.D.D.D.D.D.D.D.D.D.D.D.D.D.D.",
"D.D.D.D.D.D.D.D.D.D.D.D.D.D.{ c.Q > 8 l > +.| 3 3 > 3 3 ) Z.Z.3 Z.6 B.Z.3 > > *.( ' ' ] ( i   X ,.,.,.,.,.,.,.,.D.D.D.D.D.D.D.D.D.D.D.D.D.D.D.D.D.D.D.D.D.D.D.D.D.",
"D.D.D.D.D.D.D.D.D.D.D.D.D.D.' ' { s d 8 l A.B > 3 3 > Z.B.B.Z.Z.Z.5 B.B.3 3 6 ;.{ { ( ' ( 1 . Y D.D.D.D.D.D.D.D.D.D.D.D.D.D.D.D.D.D.D.D.D.D.D.D.D.D.D.D.D.D.D.D.D.",
"D.D.D.D.D.D.D.D.D.D.D.D.D.D.h > 3 > 7 ] M.*.3 > 3 > > Z.Z.> k.Z.Z.) k.k.> 3 L A.} { ~ h W o X ( D.D.D.D.D.D.D.D.D.D.D.D.D.D.D.D.D.D.D.D.D.D.D.D.D.D.D.D.D.D.D.D.D.",
"D.D.D.D.D.D.D.D.D.D.D.D.D.D.: s ' ( 4 ' V.t 3 3 3 > 3 k.Z.3 k.Z.Z.Z.B.: > < i.| s ~ 1 ~ ( p X D.D.D.D.D.D.D.D.D.D.D.D.D.D.D.D.D.D.D.D.D.D.D.D.D.D.D.D.D.D.D.D.D.D.",
"D.D.D.D.D.D.D.D.D.D.D.D.D.g c.~ Q x.> : 9.e 3 > : 3 > 3 Z.) Z.Z.3 > > > : G.k.o ( ' g W W i D.D.D.D.D.D.D.D.D.D.D.D.D.D.D.D.D.D.D.D.D.D.D.D.D.D.D.D.D.D.D.D.D.D.D.",
"D.D.,.D.D.D.D.D.D.D.D.D.D.D.x.h s { : : ] i.u > > > 3 3 ) Z.Z.) > > > : B p.9.p ( W ^ @ . D.D.D.D.D.D.D.D.D.D.D.D.D.D.D.D.D.D.D.D.D.D.D.D.D.D.D.D.D.D.D.D.D.D.D.D.",
"D.D.D.,.,.,.,.,.,.,.,.,.,.,.] h ~ } h : ] f.u.B > 3 > > 5 ) ) > > > > o >.t.] W i s 1 X . D.D.D.D.D.D.D.D.D.D.D.D.D.D.D.D.D.D.D.D.D.D.D.D.D.D.D.D.D.D.D.D.D.D.D.D.",
"D.D.D.D.D.D.D.D.D.D.D.D.D.D.D.o h ] ^ 2 2 < 5 @.F.: : 3 > > : > : > : o >.] ' s W X X   ^ D.D.D.,.,.,.,.,.,.,.,.,.,.,.,.,.,.,.,.,.,.,.,.,.,.,.D.D.D.D.D.D.D.D.D.D.",
"D.D.D.D.D.D.D.D.D.D.D.D.D.D.D.D.D.. o g s { ^ ] } 5.@.N o > > : o o o N X o # ~ X s Y ^ ,.,.,.,.D.D.D.D.D.D.D.D.D.D.D.D.D.D.D.D.D.D.D.D.D.D.D.,.,.,.,.,.,.,.,.,.,.",
"D.D.D.D.D.D.D.D.D.D.D.D.D.D.D.D.D.D.D.s s ' ' h ] h v A  .o : o o o + #.X @ ~ ( . # Q Q D.D.D.D.D.D.D.D.D.D.D.D.D.D.D.D.D.D.D.D.D.D.D.D.D.D.D.D.D.D.D.D.D.D.D.D.D.",
"D.D.D.D.D.D.D.D.D.D.D.D.D.D.D.D.D.D.D.D.D.( ' ~ ~ ~ # o [ =.v o X X %.:.W W W ^     i D.D.D.D.D.D.D.D.D.D.D.D.D.D.D.D.D.D.D.D.D.D.D.D.D.D.D.D.D.D.D.D.D.D.D.D.D.D.",
"D.D.D.D.D.D.D.D.D.D.D.D.D.D.D.D.D.D.D.D.D.D.g . ' ' s o ~ 2 =.-.o O -.4.( h Q ^ X @ W D.D.D.D.D.D.D.D.D.D.D.D.D.D.D.D.D.D.D.D.D.D.D.D.D.D.D.D.D.D.D.D.D.D.D.D.D.D.",
"D.D.D.D.D.D.D.D.D.D.D.D.D.D.D.D.D.D.D.D.D.D.D.D.D.h o . 1 g g ~ ] ' X . @ Y g ^ p o D.D.D.D.D.D.D.D.D.D.D.D.D.D.D.D.D.D.D.D.D.D.D.D.D.D.D.D.D.D.D.D.D.D.D.D.D.D.D.",
"D.D.D.D.D.D.D.D.D.D.D.D.D.D.D.D.D.D.D.D.D.D.D.D.D.D.D.X o ' ' ~ ( ( X   ~ Q W / @ X D.D.D.D.D.D.D.D.D.D.D.D.D.D.D.D.D.D.D.D.D.D.D.D.D.D.D.D.D.D.D.D.D.D.D.D.D.D.D.",
"D.D.D.D.D.D.D.D.D.D.D.D.D.D.D.D.D.D.D.D.D.D.D.D.D.D.D.D.D.( ( ~ Y Q   i ( ^ g s 1 D.D.D.D.D.D.D.D.D.D.D.D.D.D.D.D.D.D.D.D.D.D.D.D.D.D.D.D.D.D.D.D.D.D.D.D.D.D.D.D.",
"D.D.D.D.D.D.D.D.D.D.D.D.D.D.D.D.D.D.D.D.D.D.D.D.D.D.D.D.D.D.D.X ( / i # s i X 1 D.D.D.D.D.D.D.D.D.D.D.D.D.D.D.D.D.D.D.D.D.D.D.D.D.D.D.D.D.D.D.D.D.D.D.D.D.D.D.D.D.",
"D.D.D.D.D.D.D.D.D.D.D.D.D.D.D.D.D.D.D.D.D.D.D.D.D.D.D.D.D.D.D.D.W ( h p h g X W D.D.D.D.D.D.D.D.D.D.D.D.D.D.D.D.D.D.D.D.D.D.D.D.D.D.D.D.D.D.D.D.D.D.D.D.D.D.D.D.D.",
"D.D.D.D.D.D.D.D.D.D.D.D.D.D.D.D.D.D.D.D.D.D.D.D.D.D.D.D.D.D.D.D.D.D.D.o @ ] ( D.D.D.D.D.D.D.D.D.D.D.D.D.D.D.D.D.D.D.D.D.D.D.D.D.D.D.D.D.D.D.D.D.D.D.D.D.D.D.D.D.D.",
"D.D.D.D.D.D.D.D.D.D.D.D.D.D.D.D.D.D.D.D.D.D.D.D.D.D.D.D.D.D.D.D.D.D.D.D.' ] ~ D.D.D.D.D.D.D.D.D.D.D.D.D.D.D.D.D.D.D.D.D.D.D.D.D.D.D.D.D.D.D.D.D.D.D.D.D.D.D.D.D.D.",
"D.D.D.D.D.D.D.D.D.D.D.D.D.D.D.D.D.D.D.D.D.D.D.D.D.D.D.D.D.D.D.D.D.D.D.D.D.D.D.D.D.D.D.D.D.D.D.D.D.D.D.D.D.D.D.D.D.D.D.D.D.D.D.D.D.D.D.D.D.D.D.D.D.D.D.D.D.D.D.D.D.",
"D.D.D.D.D.D.,.,.D.D.D.D.D.D.D.D.D.D.D.,.,.,.,.D.D.D.D.D.D.D.D.D.D.D.D.D.D.D.D.D.D.D.D.D.D.D.D.D.D.D.D.D.D.D.D.D.D.D.D.D.D.D.D.D.D.D.D.D.D.D.D.D.D.D.D.D.D.D.D.D.D.",
"D.D.D.D.D.D.D.D.,.,.,.,.,.,.,.,.,.,.,.D.D.D.D.D.D.D.D.D.D.D.D.D.D.D.D.D.D.D.D.D.D.D.D.D.D.,.,.,.,.,.,.,.,.,.,.,.,.,.,.,.,.,.,.,.,.D.D.D.D.D.D.D.D.D.D.D.D.D.D.D.D.",
"D.D.D.D.D.D.D.D.D.D.D.D.D.D.D.D.D.D.D.D.D.D.D.D.D.D.D.D.D.D.D.D.D.D.D.D.D.D.D.D.D.D.D.D.D.D.D.D.D.D.D.D.D.D.D.D.D.D.D.D.D.D.D.D.D.,.,.,.,.D.D.D.D.D.D.D.D.D.D.D.D.",
"D.D.D.D.D.D.D.D.D.D.D.D.D.D.D.D.D.D.D.D.D.D.D.D.D.D.D.D.D.D.D.D.D.D.D.D.D.D.D.D.D.D.D.D.,.,.,.D.D.D.D.D.D.D.D.D.D.D.D.D.D.D.D.D.D.D.D.D.D.,.,.,.,.,.,.,.D.D.D.D.D.",
"D.D.D.D.D.D.D.D.D.D.D.D.D.D.D.D.D.D.D.D.D.D.D.D.D.D.D.D.D.D.D.D.D.D.D.D.D.D.D.,.,.,.,.,.D.D.D.D.D.D.D.D.D.D.D.D.D.D.D.D.D.D.D.D.D.D.D.D.D.D.D.D.D.D.D.D.,.,.,.,.,.",
"D.D.D.D.D.D.D.D.D.D.D.D.D.D.D.D.D.D.D.D.D.D.D.D.D.D.D.D.D.D.D.,.,.,.,.,.,.,.,.D.D.D.D.D.D.D.D.D.D.D.D.D.D.D.D.D.D.D.D.D.D.D.D.D.D.D.D.D.D.D.D.D.D.D.D.D.D.D.D.D.D.",
"D.D.D.D.D.D.D.D.D.D.D.D.D.D.D.D.D.D.D.D.D.D.D.D.D.D.D.D.D.D.D.D.D.D.D.D.D.D.D.D.D.D.D.D.D.D.D.D.D.D.D.D.D.D.D.D.D.D.D.D.D.D.D.D.D.D.D.D.D.D.D.D.D.D.D.D.D.D.D.D.D.",
",.,.,.,.,.,.,.,.,.,.,.,.,.,.,.,.,.,.,.,.D.D.D.D.D.D.D.D.D.D.D.D.D.D.D.D.D.D.D.D.D.D.D.D.D.D.D.D.D.D.D.D.D.D.D.D.D.D.D.D.D.D.D.D.D.D.D.D.D.D.D.D.D.D.D.D.D.D.D.D.D.",
"D.D.D.D.D.D.D.D.D.D.D.D.D.D.D.D.D.D.D.D.,.,.,.,.D.D.D.D.D.D.D.D.D.D.D.D.D.D.D.D.D.D.D.D.D.D.D.D.D.D.D.D.D.D.D.D.D.D.D.D.D.D.D.D.D.D.D.D.D.D.D.D.D.D.D.D.D.D.D.D.D.",
"D.D.D.D.D.D.D.D.D.D.D.D.D.D.D.D.D.D.D.D.D.D.D.D.D.D.D.D.D.D.D.D.D.D.D.D.D.D.D.D.D.D.D.D.D.D.D.D.D.D.D.D.D.D.D.D.D.D.D.D.D.D.D.D.D.D.D.D.D.D.D.D.D.D.D.D.D.D.D.D.D."
};
