/* XPM */
static char *d56a8f7239c04632b8a95079dcff0451nbzSLQ62eKXZS23i[] = {
/* columns rows colors chars-per-pixel */
"81 81 92 1 ",
"  c #301F2F",
". c #2D212B",
"X c #2F262B",
"o c #2F222C",
"O c #2E242C",
"+ c #2D282E",
"@ c #32212B",
"# c #34202B",
"$ c #32222C",
"% c #31252F",
"& c #302B32",
"* c #352933",
"= c #3F333D",
"- c #334063",
"; c #554A72",
": c #726A7F",
"> c #74687E",
", c #B77E1C",
"< c #C28315",
"1 c #D18D17",
"2 c #375A9C",
"3 c #365C9D",
"4 c #395F9E",
"5 c #3B7BB9",
"6 c #387CBD",
"7 c #656682",
"8 c #746C83",
"9 c #7D70B8",
"0 c #80738D",
"q c #8B7C99",
"w c #8A7F9D",
"e c #619DBF",
"r c #4C8BC1",
"t c #5F9DC4",
"y c #609BC3",
"u c #619DC2",
"i c #649CC2",
"p c #629DC5",
"a c #66A6C9",
"s c #70B0CC",
"d c #76B6D2",
"f c #8C9EB6",
"g c #ABA8AF",
"h c #8585C3",
"j c #9AA1D5",
"k c #9DA3D5",
"l c #B6BCE0",
"z c #8ED2DB",
"x c #8FD4D9",
"c c #8CD3DD",
"v c #8ED6DC",
"b c #90D3DB",
"n c #95D2DA",
"m c #91D3DF",
"M c #90D5DC",
"N c #9CD1E3",
"B c #AADFE3",
"V c #A8E3E7",
"C c #A6E3EB",
"Z c #A8E3E9",
"A c #ADE2EA",
"S c #A9E4EA",
"D c #A9E3EE",
"F c #BCE2EB",
"G c #BBEBEF",
"H c #BDEDEF",
"J c #BEEEF0",
"K c #BFEEF4",
"L c #C6C7E3",
"P c #C6E3E9",
"I c #C2E2ED",
"U c #CBE1EE",
"Y c #C1ECEB",
"T c #C0EEEE",
"R c #C4EFED",
"E c #C8E8EA",
"W c #DFEBEF",
"Q c #C0EDF0",
"! c #DCEEF0",
"~ c #E4E9ED",
"^ c #E6EEEF",
"/ c #EBEBE9",
"( c #EBEAEE",
") c #EDEBEC",
"_ c #E9EDEE",
"` c gray93",
"' c #F1EDEC",
"] c #EAEEF0",
"[ c #EDEEF0",
"{ c #F1ECF0",
"} c #EEF1F6",
"| c #F0F0F2",
/* pixels */
"111111111111111111111111111111111111111111111111111111111111111111111111111111111",
"111111111111111111111111111111111111111111111111111111111111111111111111111111111",
"111,,,,,,,,,,,,,,,,,,,,,,,,,,,,,,,,1111111111111111111111111111111111111111111111",
",,,1111111111111111111111111111111111111111111111111111111111111,,,,,,,,,,,111111",
"111111111111111111111111111111111111111111111111111111111111111111111111111,,,,,,",
"111111111111111111111111111111111111111111111111111111111111111111111111111111111",
"111111111111111111111111111111111111111111111111111111111111111111111111111111111",
",,,,,,,,,,,,,,,,,,,,,,,,,,,,,,,,,,,,,,,,,,,,,,,,<<<<<<<11111111111111111111111111",
"1111<<<<<<<<<<<<<<<<<<<<<<<<<<<<<<<<<<<<<<<<<<<<111111111111111111111111111111111",
"111111111111111111111111111111111111111111111111111111111111111111111111111111111",
"111111111111111111111111111111111111111111111111111111111111111111111111111111111",
"111111111111111111111111111111111111111111111111111111111111111111111111111111111",
",,,,,,,,,,,,,,,,,,,,,,,,,,,,,1111111111111111111111111111111111111111111111111111",
"1111111111111111111111111111111111111 $*$%$$1111111111111111111111111111111111111",
"111111111111111111111111111111111111.iuszzzu$111111111111111111111111111111111111",
"111111111111111111111111111111111111.iuszzzu$111111111111111111111111111111111111",
"111111111111111111111111111111111111.56rupu6$11111111111111,,,,,,,,,,,,,,,,,,,,,,",
"1111111111111,,,,,,,,,,,,,,,,,,,,,,,.56rupu6$111111111111111111111111111111111111",
"11111111,,,,,11111111111111111111111.$-4232$$111111111111111111111111111111111111",
"1111111111111111111111111111111111111 7l`~j$1111111111111111111111111111111111111",
"1111111111111111111111111111111111111 ;hjj9$1111111111111111111111111111111111111",
"111111111111111111111111111111111111.kL~`_`j$111111111111111111111111111111111111",
"1111111111111111111111111111111111$$`:>8>:>>`$$1111111111111111111111111111111111",
"111111111111111111111111111111111$``::0wqqqzQ``$111111111111111111111111111111111",
"11111111111111111111111111111111$`::>qqfzMQQ````$11111111111111111111111111111111",
"11111,,,,,,,,,,,,,,,,,,,11111111$`::>qqfzMQQ````$11111111,,,,,,,11111111111111111",
"11111111<<<<<<<<<111111,1111111$`>::>:>8>:>z```>`$11111111111111,,,,,,,,,,,,,,,,,",
"1111111111111111111111111111111$`pppupupupuz```u`$1111111111111111111111111111111",
"1111111111111111111111111111111$`pzzzczczzzQ```z`$1111111111111111111111111111111",
"11111111111111111111111111111111$yppupupupuuzzzu$11111111111111111111111111111111",
"11111111111111111111111111111111$`ppcczczzzQ````$11111111111111111111111111111111",
"1111111111111111111111111111111$`pzzHJQGR_`````z`$,,,,,,,,,,,,,,,,,,,111111111111",
"1111111111111111111111111111111$`pzzzczczzzQ```z`$<<<1111111111111111111111111111",
"11111111111111111111111111111111$`ppcczczzzQQQQ`$11111111111111111111111111111111",
"11111111111111111111111111111111$yppupupupuuzzzu$11111111111111111111111111111111",
"11111111111111111111111111111111$yppupupupuuzzzu$11111111111111111111111111111111",
",,,,,,,,,,,,,,,,,,,,,,,,,,,,,,,1$`zzzczczzzQQQQ`$11111111111111111111111111111111",
"111111<<<<<<<<<<<<<<<<<<1111111$`pzzzcBGQY`````z`$1111111111111111111111111111111",
"1111111111111111111111111111111$`pzzzczczzzQ```z`$1111111111111111111111111111111",
"1111111111111111111111111111111$`pzzzcdszzzQQQQz`$1111111111111111111111111111111",
"11111111111111111111111111111111$`ppcczczzzQQzz`$11111111111111111111111111111111",
"11111111111111111111111111111111$tuupppppppuuppz$11111111111111111111111111111111",
"1111111111111111111111111111111$QuppuJTDcxTTucceJ$1111111111111111111111111111111",
"1111111111111111111111111111111@QuJJpJQVzMQQuHHuQ$,,,,,,,,,,,,,,,,,,,,,,,,,,,,,,,",
"1111111111111111111111111111111$_pQQuJQSzMQQzQQu_$1111111111111111111111111111111",
"1111111111111111111111111111111$`uQQcJQZzMQQzQQu`$1111111111111111111111111111111",
"1111111111111111111111111111111$`uQQcJQZzMQQzQQu`$1111111111111111111111111111111",
"111111,,,1111111111111111111111$`pQQbJQSzM``z``u`$1111111111111111111111111111111",
"111111111,,,,,,,,,1111,,,,,,111$`uHHxJQZzM``z``u`$1111111111111111111111111111111",
"111111111111111111,,,,111111111$`pQQb]{UzMHHzHHu`$1111111111111111111111111111111",
"1111111111111111111111111111111@)uQQm_`Pzv__z__u`@1111111111111111111111111111111",
"1111111111111111111111111111111$`p__bQQAzM``z``u`$,,,,,,1111111111111111111111111",
"1111111111111111111111111111111$`u``z[`Izv``z``u`$1111111111111111111111111111111",
"1111111111111111111111111111111$`p``z``PzM``z``u`$1111111111111111111111111111111",
"1111111111111111111111111111111o_u__z^`Pzm``z``u`o1111111111111111111111111111111",
"1111111111111111111111111111111$`p``z!!FzM``z``u`$1111111111111111111111111111111",
"11,1111111111111111111111111111$`p``z!!FzM``z``u`$1111111111111111111111111111111",
"111,,,,,,,,,,,,,,,,,,,,,,,,,,11*(p((zJHCcnWWc__p_*1111111111111111111111111111111",
"1111111111111111111111111111111$`p))bJQSzMQQz((u`$,,,,,,,,,,,,,,,,,,,,,1111111111",
"1111111111111111111111111111111%_uQQcJQZzMQQzQQu'%111111111111111111111,,,,,,,,,,",
"11111111111111111111111111111,,$/uQQzJQZzMQQcQQuQ$1111111111111111111111111111111",
"1111111111111111111111111111111$HpQQuJQSzMQQuQQuQ$1111111111111111111111111111111",
"1111111111111111111111111111111@HuQQtKQNtaQQtQQuQ@1111111111111111111111111111111",
"1111111111111111111111111111111$Hp```HJE`}JJ```pQ$1111111111111111111111111111111",
"1111111111111111111111111111111#HH$$$|`g$=``$$$HH#1111111111111111111111111111111",
"11111111111111111111111111111111..XX.O.&.+.......11111111111111111111111111111111",
"11111111111111111111111111111111..XX.O.&.+.......11111111111111111111111111111111",
"111111111111111111111111111111111111111111111111111111111111111111111111111111111",
"111111111111111111111111111111111111111111111111111111111111111111111111111111111",
"111111111111111111111111111111111111111111111111111111111111111111111111111111111",
"111111111111111111111111111111111111111111111111111111111111111111111111111111111",
"111111,,11111111111,,,,1111111111111111111111111111111111111111111111111111111111",
"11111111,,,,,,,,,,,11111111111111111111111111,,,,,,,,,,,,,,,,,,,,1111111111111111",
"11111111111111111111111111111111111111111111111111111111111111111,,,,111111111111",
"11111111111111111111111111111111111111111111,,,1111111111111111111111,,,,,,,11111",
"111111111111111111111111111111111111111,,,,,11111111111111111111111111111111,,,,,",
"1111111111111111111111111111111,,,,,,,,111111111111111111111111111111111111111111",
"111111111111111111111111111111111111111111111111111111111111111111111111111111111",
",,,,,,,,,,,,,,,,,,,,1111111111111111111111111111111111111111111111111111111111111",
"11111111111111111111,,,,111111111111111111111111111111111111111111111111111111111",
"111111111111111111111111111111111111111111111111111111111111111111111111111111111"
};
