/* XPM */
static char *_a1e40c2d43740bba9c630e8f685484ctfs2OxCxVkpPgX89[] = {
/* columns rows colors chars-per-pixel */
"81 81 154 2 ",
"   c None",
".  c #040301",
"X  c #0C0501",
"o  c #050C00",
"O  c #0D0901",
"+  c #06050A",
"@  c #0D050C",
"#  c #030A0A",
"$  c #0B0A0A",
"%  c #110602",
"&  c #1B0204",
"*  c #120902",
"=  c #1A0C06",
"-  c #14030A",
";  c #1B030E",
":  c #130B0A",
">  c #021200",
",  c #0B1000",
"<  c #001D00",
"1  c #001009",
"2  c #0A170E",
"3  c #161000",
"4  c #12120D",
"5  c #1C1409",
"6  c #130212",
"7  c #151312",
"8  c #1E1B16",
"9  c #230000",
"0  c #2B0001",
"q  c #350000",
"w  c #211200",
"e  c #232220",
"r  c #1D761C",
"t  c #286917",
"y  c #2F6D1C",
"u  c #31671C",
"i  c #3E631E",
"p  c #336C1E",
"a  c #2E7019",
"s  c #3B4E2E",
"d  c #3E5924",
"f  c #3F552F",
"g  c #3B5C2B",
"h  c #395F30",
"j  c #2F6325",
"k  c #2F6C22",
"l  c #22672E",
"z  c #326623",
"x  c #3B6626",
"c  c #356A25",
"v  c #386925",
"b  c #37672A",
"n  c #3A652A",
"m  c #36692A",
"M  c #3F6929",
"N  c #227326",
"B  c #2B7826",
"V  c #257129",
"C  c #367026",
"Z  c #3E702B",
"A  c #3E6431",
"S  c #34643D",
"D  c #485915",
"F  c #415230",
"G  c #445D34",
"H  c #41622C",
"J  c #426232",
"K  c #50673B",
"L  c #EE1D19",
"P  c #FC1516",
"I  c #FE1C15",
"U  c #FF151E",
"Y  c #F51E19",
"T  c #FD1C1C",
"R  c #F3260B",
"E  c #E92010",
"W  c #E92A17",
"Q  c #E6251C",
"!  c #EC251B",
"~  c #F42315",
"^  c #FC2014",
"/  c #F3221D",
"(  c #F9211C",
")  c #FF1727",
"_  c #FF1422",
"`  c #F61825",
"'  c #FF1B22",
"]  c #F91F20",
"[  c #FF1924",
"{  c #FC1D21",
"}  c #FF152A",
"|  c #FF132E",
" . c #FF152E",
".. c #FF172C",
"X. c #F31F2A",
"o. c #FF182B",
"O. c #FE192A",
"+. c #FF1137",
"@. c #FF1434",
"#. c #FB1732",
"$. c #DD2639",
"%. c #DA3136",
"&. c #EF2324",
"*. c #EF2226",
"=. c #E92622",
"-. c #EB232D",
";. c #F22222",
":. c #F22124",
">. c #F22124",
",. c #FF2720",
"<. c #FF2131",
"1. c #FF1140",
"2. c #DA3E42",
"3. c #E92042",
"4. c #ECEFE4",
"5. c #F5F7EA",
"6. c #FFFDEF",
"7. c #E1FFFD",
"8. c #EEFFFE",
"9. c #FAF4F6",
"0. c #FBF7F4",
"q. c #FDF7F7",
"w. c #F8F7F5",
"e. c #FFFCF7",
"r. c #FEFFF6",
"t. c #FCFFF6",
"y. c #FDFBF5",
"u. c #FFF5FF",
"i. c #FFF7FD",
"p. c #F2FFFF",
"a. c #F8F9FB",
"s. c #FFFBF8",
"d. c #FCFBF9",
"f. c #FBFFF8",
"g. c #FBFFFB",
"h. c #FDFCF8",
"j. c #FEFDF9",
"k. c #FFFDF9",
"l. c #FFFDFA",
"z. c #FFFFFA",
"x. c #FFFEFB",
"c. c #FFFFFB",
"v. c #FBF9FE",
"b. c #FFFEFC",
"n. c #FFFFFD",
"m. c #FEFDFF",
"M. c #FFFDFF",
"N. c #FDFFFE",
"B. c #FCFFFF",
"V. c #FEFEFF",
"C. c #FFFEFF",
"Z. c #FEFFFF",
"A. c white",
"S. c #FEFEFE",
/* pixels */
"                                                                                                                                                                  ",
"                                                                                                                                                                  ",
"                                                                                                                                                                  ",
"                                                                                                                                                                  ",
"                                                                                                                                                                  ",
"                                                                                                                                                                  ",
"                                                                                                                                                                  ",
"                                                                                                                                                                  ",
"                                                                                                                                                                  ",
"                                                                                                                                                                  ",
"                                                                                                                                                                  ",
"                                                                                                                                                                  ",
"                                                            : O O O O O O O O O O O O O O O % % O                                                                 ",
"                                                            1 % % % % % % % % % % O O % + + $ $ &                                                                 ",
"                                                  O & O O & +.I I I I I T T T T T &.&.~ L L 9 9 % % % o o                                                         ",
"                                                  O & O O & +.I I I I I T T T T T &.&.~ L L 9 9 % % % o o                                                         ",
"                                                X X > 9 9 0 <.( ( ( ( ( ] ] ] ] ] -.-.^ ! ! - - + % % : : = % %                                                   ",
"                                                O O & O O : 3.I I I I I o.o.o.o.o.@.@.>.| | , , 9 O O . . , > >                                                   ",
"                                            O O n.n.n.n.n.x.X O O O O O [ [ T ~ I ' ' ( _ _ ) ) ~ O O X X c k k % %                                               ",
"                                            O O n.n.n.n.n.x.X O O O O O [ [ T ~ I ' ' ( _ _ ) ) ~ O O X X c k k % %                                               ",
"                                          O O O n.n.n.n.n.x.X O O O O O ~ ~ T T T T T T / / ~ ~ I * * X X c k k O O O                                             ",
"                                  $ $ O O n.n.n.n.n.n.n.n.n.n.x.x.x.x.x.O O * 0 / I I ;.I I O O * > > X X c k k O O O O O                                         ",
"                                  X X % O n.n.n.n.n.n.n.n.n.n.n.n.n.n.n.O O $ O Q I I &.^ ^ O O @ % % X X c k k O O O O O                                         ",
"                                  X X 7 7 n.n.n.n.n.n.n.n.x.x.n.n.n.n.n.% % > * I W W }  . .O O O O O < < n p p . . . O O                                         ",
"                                  X X 7 7 n.n.n.n.n.n.n.n.x.x.n.n.n.n.n.% % > * I W W }  . .O O O O O < < n p p . . . O O                                         ",
"                              : : x.x.n.n.n.n.n.n.n.n.n.n.n.n.n.n.n.n.n.- - X o I T T 3 > > p p p p p Z Z c y y X X X x.x.X X O                                   ",
"                              O % x.x.n.0.n.n.n.n.n.n.n.n.n.a.n.n.n.n.n.o o & w P E E < @ @ n n n n n p p z m m X X . n.n.% % O O O                               ",
"                              O % n.n.n.x.O O O O O O O O : q.n.n.n.n.n.u.u.x.7., : : B M M p p p p p A h o O O x.x.x.n.n.% % % O O                               ",
"                              X X f.f.n.v.O O O O O : ; ; X n.n.n.n.n.n.f.f.n.0.& % % h c c b b k z z d d O X X n.n.n.n.n.% % O X X                               ",
"                              X X f.f.n.v.O O O O O : ; ; X n.n.n.n.n.n.f.f.n.0.& % % h c c b b k z z d d O X X n.n.n.n.n.% % O X X                               ",
"                              * X r.r.n.5.O O O O O > o o > r.r.r.r.x.x.s.s.x.4.> , , n c c n n c J J s s $ X X n.n.n.n.n.% % O 8 8                               ",
"                        O O O O % O O X o a a a a a c n n v o % % % % % % % % o n v v v c c v v v o o O O n.n.n.n.n.n.n.n.% % O O O O                             ",
"                        O O O O X O O X o a a a a a c n n v o % % % % % % % % o n v v v c c v v v o o O O n.n.n.n.n.n.n.n.% % O O O O                             ",
"                        O O o y v v v v v n c c v v c c c c c p p J O % c c c c c c c c c c x x k O O $ $ n.n.n.n.n.n.n.n.% % % $ $ O *                           ",
"                        O O . y v v v v v n c c v v c c c c c p p J O % c c c c c c c c c c x x k O O $ $ n.n.n.n.n.n.n.n.% % % $ $ O O                           ",
"                        O O . y v v v v v n c c b v v v v v v p p J O % v v v v v v v v v v c v k O O $ $ n.n.n.n.n.n.n.n.% % O % % % O                           ",
"                        O O . y v v v v v m c c n h n n n n n H J F O X n n n v n v n n n n A A n , O e e s.n.n.n.n.n.x.x.o o O 0 0 : O                           ",
"                        O O . y v v v v v m c c n h n n n n v H J F O X n n v v v n n n n n A A n , O e e s.n.n.n.n.n.x.x.o o O 0 0 : O                           ",
"                        O O o y y V V i u k N N % $ % % % * : O * * O X O O O O O - - o % % - - O n.n.w.w.n.n.n.6.6.6.O O I I I T T O O                           ",
"                        O O o y y V V i u k N N % $ % % % * : O * * O O O O O O X - - o % % % % O n.n.w.w.n.n.n.6.6.6.O O I I I T T O O                           ",
"                        O O o y V H H c l O 9 9 * > % O O O x.x.x.x.x.x.x.x.x.x.x.t.t.o % % J J H O O 4 4 0.n.n.8.8.l.& & I I I T T O O                           ",
"                        O O o y i C C D g 6 X X @ % : * : O w.n.n.n.n.n.n.n.n.a.a.v.v.@ - - k k c o o X X s.n.n.y.y.r.O O I I I T T O O                           ",
"                        O O o y i C C D g 6 X X @ % : : : O w.n.n.n.n.n.n.n.n.a.a.v.v.@ - - c c c o o X X s.n.n.y.y.r.O O I I I T T O O                           ",
"                        & & o v S O O > O I ' ' % O : n.n.n.n.n.n.n.n.n.s.s.n.f.f.- - J p p v v k * * o o & % % O O > T T I I I T T O O                           ",
"                        & & o v S O O > O I ' ' % O : n.n.n.n.n.n.n.n.n.l.l.n.f.f.- - J p p v v k O O o o & % % O O > T T I I I T T O O                           ",
"                        O O o v r O O @ , I ' ' % O : n.n.n.n.n.n.n.n.n.B.B.B.l.l.O O A c c v v k O O 9 9 o % % # # & ) ) I I I T T O O                           ",
"                        % % O o O #.#.O.=.I ' ' % O : n.n.n.n.n.n.n.n.n.% % % o o G G m c v v v c * O q q I I I ....>.U U I I I T T O O                           ",
"                        % % O o O #.#.O.=.T ] ] % O : n.n.n.n.n.n.n.n.n.% % % o o G G m c v v v c * * q q I I I ....>.U U I I I T T O O                           ",
"                        + + . 5 X Y Y ] o.T R R X O * p.p.x.p.n.n.n.n.n.% % O o o v v v v v v v v o o , , I ! ! T T T T T T T ' 2.2.=                             ",
"                        + + . 5 X Y T ] o.T R R X O * p.p.x.p.n.n.n.n.n.% % O o o v v v v v v x v o o , , I ! ! T T T T T T T ' 2.2.=                             ",
"                              . X Y T ] o.' I I O 9 O u.u.B.n.n.n.n.n.n.% % O o o v v v v v k c c > > > > Y T T T T T T T - - + 2 2                               ",
"                              O X Y T ] o.I T T % & X n.n.8.u.n.n.n.n.n.% % O o o v v v v v v v v o o 3 3 P U U T T T T T > > O * *                               ",
"                              O % T T ] o.I T T % & X n.n.8.u.n.n.n.n.n.% % O o o v v v v v v v v o o 3 3 P U U T T T T T o > O * *                               ",
"                              O % T T ] o.^ T T @._ $.o o : s.n.n.n.n.n.% % O o o v v v v v n n c H H f f & o o T T T T T > > o $ $                               ",
"                              = - X.X.,.1.T T T T T I * * % B.n.n.n.n.n.% % % o o v v t m m v v v v v K K - - - Y Y T T T % % O . .                               ",
"                              X 3 ` ` _ %.T T T T T I * * % B.n.n.n.n.n.. . X . . G G z b b v v v v v j j * 9 9 I I I I I X X X                                   ",
"                                  - - @ $ T T T T T I * * % B.n.n.n.n.n.n.x.n.s.s.% % A v v v v v v v c c x c c % % % % %                                         ",
"                                  - - @ $ T T T T T I * * % B.n.n.n.n.n.x.x.n.s.s.% % A v v v v v v v c c x c c % % % % %                                         ",
"                                  O O O > T T T T T I * * % B.n.n.n.n.n.n.n.n.x.x.- - n c c v v v v v v v c x x % % % % %                                         ",
"                                          O ; ; [ I / ~ ~ I < % % $ n.n.n.n.n.n.n.n.n.O % % c c c c c v v v p p % % *                                             ",
"                                          % $ $ [ I _ T T ! > % % $ n.n.n.n.n.n.n.n.n.O % % v v v v v c c v c c O O O                                             ",
"                                          % # # $.o.{  .} X.9 % % $ n.n.n.n.n.n.n.l.l.4 X X n n n n n b n J g g 4 4 .                                             ",
"                                          % # # $.o.{ } } X.9 % % $ n.n.n.n.n.n.n.l.l.4 X X n n n n n b n J g g 4 4 .                                             ",
"                                                % 9 . + + o : % % $ n.n.n.n.n.n.n.u.u.f.n.n.- - - - - O O : , ,                                                   ",
"                                                O % O O O X X O O X n.n.n.n.n.n.n.n.n.n.x.x.O O O O O O O O X X                                                   ",
"                                                            O O O . O O O O O O O X O O X X O O %                                                                 ",
"                                                            O O O . O O O O O O O O O O X X * * %                                                                 ",
"                                                            : O O O O % * * * * * O O O O O % % O                                                                 ",
"                                                              . . . X X X X X X X X X X X X X X                                                                   ",
"                                                                                                                                                                  ",
"                                                                                                                                                                  ",
"                                                                                                                                                                  ",
"                                                                                                                                                                  ",
"                                                                                                                                                                  ",
"                                                                                                                                                                  ",
"                                                                                                                                                                  ",
"                                                                                                                                                                  ",
"                                                                                                                                                                  ",
"                                                                                                                                                                  ",
"                                                                                                                                                                  ",
"                                                                                                                                                                  "
};
