/* XPM */
static char *_4d54b70100d4a01b15237ff170ef3cdNJ6yaqg5PvowTTC8[] = {
/* columns rows colors chars-per-pixel */
"32 32 32 1 ",
"  c #0D73EF",
". c #0E74EE",
"X c #1072EB",
"o c #1173EE",
"O c #1175EE",
"+ c #0E76F1",
"@ c #0F79F3",
"# c #0F78F5",
"$ c #1273F0",
"% c #1177F3",
"& c #1277F3",
"* c #1475F2",
"= c #1378F2",
"- c #147AF2",
"; c #127BF7",
": c #147BF6",
"> c #137DF7",
", c #157CF4",
"< c #157CF7",
"1 c #187EF7",
"2 c #107AF8",
"3 c #137DF8",
"4 c #167CF8",
"5 c #147FF9",
"6 c #147DFC",
"7 c #187EFA",
"8 c #1580F7",
"9 c #1381FA",
"0 c #1680FA",
"q c #1781FC",
"w c #1980F9",
"e c #1882FC",
/* pixels */
"55005055505335q053333>;;;;;;%%=%",
"55055>555355555>33>e55;;;:%;;==%",
">5q0055>35055535555>;>5;5:;==;:;",
"35>5555>55>55>55533553<;>=;;::::",
"3>55555>553535555>>555<>;;;=:=:=",
"5>>55>5355>>53555>05>>>>;;<:;;%%",
"33>>>>0>55>>;5;35>>;>:=:3:;;%%%%",
"305>>355>>>5>>35>3;>55;;:;:=%%%;",
"3>3>>>5>>>;;>>3>>5;5;;<;;<;;;%%%",
">55>>>>5>>>>5>335333;;;;;;;::%%%",
">>>>;>>>;>;>>2333>35;;;;::=;%%%%",
";>>;3>>@2>233>363>3>5>;2:;=%;%.%",
">5>>>355>>>3;;>>33;;;::::;%%%%+%",
";35;>>33>225#2>3;;32:;;;:%%%;%%%",
";>3;33>323355;:2225%5;5;5;%%%%+%",
">5>>;>;3>3;>5>;;;;::;;:;%;:%;++%",
">:<;;57:<:>;::::=::;::;:;;%%%%%%",
"::;;:::<<::;::::5::%;%:;::=%%*%$",
":;::::75:5::%::;;<:::;;;%;%%%*oO",
"5::5<;:=:<::::::;::;;;:;:;%%**oX",
"<:<:::5::5:::<::=:55::%%:==%OOXX",
"<<<<5551:71:<;:7::<<:::%<%;=%OOO",
"<17w<<5<:5<57<<55:5::::-<%-===-O",
"<<<17157<555<575:75<:::=::;=;=%;",
">50<<557<>5<5555555:<5:::5:;;%%%",
"8>055<55>530>>555;>575:;:-;;;%:%",
"8><5>>>>05555>>550500>>>>:=:%=%.",
"55555>>3>530555>>5555>5>@++%%=%%",
"553055>5335>>55>;>535>>>;@%@%%.%",
"3905055>5>55>>>>;5>>50>>>:@++; %",
"939>>>>>>5;>>>>50>>>#;;;##;@;=%.",
"9>53>>;>>>;;;>>>;>;@@@++=@++%+  "
};
