/* XPM */
static char *_13d9311d1da497086e0634192907429CgakDNMkS4EZ0ixP[] = {
/* columns rows colors chars-per-pixel */
"81 81 166 2 ",
"   c None",
".  c #301F2F",
"X  c #2E2329",
"o  c #2D212B",
"O  c #2F262B",
"+  c #2F222C",
"@  c #2E242C",
"#  c #2D282E",
"$  c #31212B",
"%  c #32212B",
"&  c #34202B",
"*  c #31212C",
"=  c #32202C",
"-  c #30232D",
";  c #32222C",
":  c #33222C",
">  c #32222D",
",  c #33232D",
"<  c #31242E",
"1  c #31252F",
"2  c #302B32",
"3  c #352832",
"4  c #352933",
"5  c #3F333D",
"6  c #334063",
"7  c #554A72",
"8  c #71687D",
"9  c #72697E",
"0  c #726A7F",
"q  c #736A7F",
"w  c #74687E",
"e  c #75697F",
"r  c #375A9C",
"t  c #365C9D",
"y  c #395F9E",
"u  c #3B7BB9",
"i  c #387CBD",
"p  c #656682",
"a  c #746C83",
"s  c #7D70B8",
"d  c #80738D",
"f  c #8B7C99",
"g  c #8A7D99",
"h  c #887D9B",
"j  c #8A7F9D",
"k  c #619DBF",
"l  c #4C8BC1",
"z  c #5F9DC4",
"x  c #5E9DC6",
"c  c #5F9EC7",
"v  c #609BC3",
"b  c #609CC1",
"n  c #629CC0",
"m  c #619DC2",
"M  c #629EC3",
"N  c #649CC2",
"B  c #619CC4",
"V  c #629CC4",
"C  c #629DC5",
"Z  c #609EC5",
"A  c #639FC4",
"S  c #639CC7",
"D  c #629DC7",
"F  c #66A6C9",
"G  c #70B0CC",
"H  c #76B6D2",
"J  c #8C9EB6",
"K  c #ABA8AF",
"L  c #8585C3",
"P  c #9AA1D5",
"I  c #99A0D7",
"U  c #9DA3D5",
"Y  c #B6BCE0",
"T  c #8DD1DA",
"R  c #8CD3DB",
"E  c #8FD2DA",
"W  c #8ED3DA",
"Q  c #8ED2DB",
"!  c #8FD2DB",
"~  c #8FD4D9",
"^  c #8FD4DB",
"/  c #8DD1DC",
"(  c #8CD3DD",
")  c #8FD3DC",
"_  c #8ED2DD",
"`  c #8FD3DE",
"'  c #8ED6DC",
"]  c #8FD6DE",
"[  c #90D3DB",
"{  c #95D2DA",
"}  c #90D3DC",
"|  c #91D3DF",
" . c #90D5DC",
".. c #90D4DD",
"X. c #91D4DD",
"o. c #91D6DD",
"O. c #91D5DE",
"+. c #92D5DE",
"@. c #9CD1E3",
"#. c #AADFE3",
"$. c #A8E3E7",
"%. c #A6E3EB",
"&. c #A8E3E9",
"*. c #ADE2EA",
"=. c #A9E4EA",
"-. c #A9E3EE",
";. c #BCE2EB",
":. c #BBEBEF",
">. c #BCEEED",
",. c #BDEDEF",
"<. c #BFECEF",
"1. c #BEEEEE",
"2. c #BCECF0",
"3. c #BDEDF1",
"4. c #BFECF1",
"5. c #BDEFF0",
"6. c #BEEEF0",
"7. c #BFEFF1",
"8. c #BEEEF2",
"9. c #BFEFF3",
"0. c #BFEEF4",
"q. c #C6C7E3",
"w. c #C7E2E9",
"e. c #C6E3E9",
"r. c #C2E2ED",
"t. c #CBE1EE",
"y. c #C1ECEB",
"u. c #C0EEEE",
"i. c #C4EFED",
"p. c #C8E8EA",
"a. c #DFEBEF",
"s. c #C0EDF0",
"d. c #C1EDF0",
"f. c #C1EEF1",
"g. c #C0EDF2",
"h. c #C2EDF3",
"j. c #DCEEF0",
"k. c #DCEEF2",
"l. c #E4E9ED",
"z. c #E7EBED",
"x. c #E6EEEF",
"c. c #EBEBE9",
"v. c #EAEBED",
"b. c #EBEAEE",
"n. c #EDEBEC",
"m. c #ECEBEF",
"M. c #E9EDEC",
"N. c #EBEDEC",
"B. c #EAEEED",
"V. c #E9EDEE",
"C. c #EBECEE",
"Z. c #EAEEEF",
"A. c #ECECEC",
"S. c gray93",
"D. c #EEECED",
"F. c #ECECEE",
"G. c #ECEDEF",
"H. c #EFEDEE",
"J. c #EEECEF",
"K. c #EEEEEE",
"L. c #F1EDEC",
"P. c #EAEEF0",
"I. c #EDEEF0",
"U. c #F1ECF0",
"Y. c #EEF1F6",
"T. c #F0F0F2",
/* pixels */
"                                                                                                                                                                  ",
"                                                                                                                                                                  ",
"                                                                                                                                                                  ",
"                                                                                                                                                                  ",
"                                                                                                                                                                  ",
"                                                                                                                                                                  ",
"                                                                                                                                                                  ",
"                                                                                                                                                                  ",
"                                                                                                                                                                  ",
"                                                                                                                                                                  ",
"                                                                                                                                                                  ",
"                                                                                                                                                                  ",
"                                                                                                                                                                  ",
"                                                                          . ; 4 ; 1 ; ;                                                                           ",
"                                                                        o N m G Q Q Q m ;                                                                         ",
"                                                                        o N m G Q Q Q m ;                                                                         ",
"                                                                        o u i l m C m i ;                                                                         ",
"                                                                        o u i l m C m i ;                                                                         ",
"                                                                        o ; 6 y r t r ; ;                                                                         ",
"                                                                          . p Y S.l.P ;                                                                           ",
"                                                                          . 7 L P P s ;                                                                           ",
"                                                                        o U q.l.S.V.S.P ;                                                                         ",
"                                                                    ; ; S.0 w a w 0 w w S.; ;                                                                     ",
"                                                                  ; S.S.0 0 d j f f f Q s.S.S.;                                                                   ",
"                                                                ; S.0 0 w f f J Q  .s.s.S.S.S.S.;                                                                 ",
"                                                                ; S.0 0 w f f J Q  .s.s.S.S.S.S.;                                                                 ",
"                                                              ; S.w 0 0 w 0 w a w 0 w Q S.S.S.w S.;                                                               ",
"                                                              ; S.C C C m C m C m C m Q S.S.S.m S.;                                                               ",
"                                                              ; S.C Q Q Q ( Q ( Q Q Q s.S.S.S.Q S.;                                                               ",
"                                                                ; v C C m C m C m C m m Q Q Q m ;                                                                 ",
"                                                                ; S.C C ( ( Q ( Q Q Q s.S.S.S.S.;                                                                 ",
"                                                              ; S.C Q Q ,.6.s.:.i.V.S.S.S.S.S.Q S.;                                                               ",
"                                                              ; S.C Q Q Q ( Q ( Q Q Q s.S.S.S.Q S.;                                                               ",
"                                                                ; S.C C ( ( Q ( Q Q Q s.s.s.s.S.;                                                                 ",
"                                                                ; v C C m C m C m C m m Q Q Q m ;                                                                 ",
"                                                                ; v C C m C m C m C m m Q Q Q m ;                                                                 ",
"                                                                ; S.Q Q Q ( Q ( Q Q Q s.s.s.s.S.;                                                                 ",
"                                                              ; S.C Q Q Q ( #.:.s.y.S.S.S.S.S.Q S.;                                                               ",
"                                                              ; S.C Q Q Q ( Q ( Q Q Q s.S.S.S.Q S.;                                                               ",
"                                                              ; S.C Q Q Q ( H G Q Q Q s.s.s.s.Q S.;                                                               ",
"                                                                ; S.C C ( ( Q ( Q Q Q s.s.Q Q S.;                                                                 ",
"                                                                ; z m m C C C C C C C m m C C Q ;                                                                 ",
"                                                              ; s.m C C m 6.u.-.( ~ u.u.m ( ( k 6.;                                                               ",
"                                                              % s.m 6.6.C 6.s.$.Q  .s.s.m ,.,.m s.;                                                               ",
"                                                              ; V.C s.s.m 6.s.=.Q  .s.s.Q s.s.m V.;                                                               ",
"                                                              ; S.m s.s.( 6.s.&.Q  .s.s.Q s.s.m S.;                                                               ",
"                                                              ; S.m s.s.( 6.s.&.Q  .s.s.Q s.s.m S.;                                                               ",
"                                                              ; S.C s.s.[ 6.s.=.Q  .S.S.Q S.S.m S.;                                                               ",
"                                                              ; S.m ,.,.~ 6.s.&.Q  .S.S.Q S.S.m S.;                                                               ",
"                                                              ; S.C s.s.[ P.U.t.Q  .,.,.Q ,.,.m S.;                                                               ",
"                                                              % n.m s.s.| V.S.e.Q ' V.V.Q V.V.m S.%                                                               ",
"                                                              ; S.C V.V.[ s.s.*.Q  .S.S.Q S.S.m S.;                                                               ",
"                                                              ; S.m S.S.Q I.S.r.Q ' S.S.Q S.S.m S.;                                                               ",
"                                                              ; S.C S.S.Q S.S.e.Q  .S.S.Q S.S.m S.;                                                               ",
"                                                              + V.m V.V.Q x.S.e.Q | S.S.Q S.S.m S.+                                                               ",
"                                                              ; S.C S.S.Q j.j.;.Q  .S.S.Q S.S.m S.;                                                               ",
"                                                              ; S.C S.S.Q j.j.;.Q  .S.S.Q S.S.m S.;                                                               ",
"                                                              4 b.C b.b.Q 6.,.%.( { a.a.( V.V.C V.4                                                               ",
"                                                              ; S.C n.n.[ 6.s.=.Q  .s.s.Q b.b.m S.;                                                               ",
"                                                              1 V.m s.s.( 6.s.&.Q  .s.s.Q s.s.m L.1                                                               ",
"                                                              ; c.m s.s.Q 6.s.&.Q  .s.s.( s.s.m s.;                                                               ",
"                                                              ; ,.C s.s.m 6.s.=.Q  .s.s.m s.s.m s.;                                                               ",
"                                                              % ,.m s.s.z 0.s.@.z F s.s.z s.s.m s.%                                                               ",
"                                                              ; ,.C S.S.S.,.6.p.S.Y.6.6.S.S.S.C s.;                                                               ",
"                                                              & ,.,.; ; ; T.S.K ; 5 S.S.; ; ; ,.,.&                                                               ",
"                                                                o o O O o @ o 2 o # o o o o o o o                                                                 ",
"                                                                o o O O o @ o 2 o # o o o o o o o                                                                 ",
"                                                                                                                                                                  ",
"                                                                                                                                                                  ",
"                                                                                                                                                                  ",
"                                                                                                                                                                  ",
"                                                                                                                                                                  ",
"                                                                                                                                                                  ",
"                                                                                                                                                                  ",
"                                                                                                                                                                  ",
"                                                                                                                                                                  ",
"                                                                                                                                                                  ",
"                                                                                                                                                                  ",
"                                                                                                                                                                  ",
"                                                                                                                                                                  ",
"                                                                                                                                                                  "
};
